G04 #@! TF.FileFunction,Soldermask,Top*
%FSLAX46Y46*%
G04 Gerber Fmt 4.6, Leading zero omitted, Abs format (unit mm)*
G04 Created by KiCad (PCBNEW 4.0.6+dfsg1-1) date Mon Apr  2 21:34:36 2018*
%MOMM*%
%LPD*%
G01*
G04 APERTURE LIST*
%ADD10C,0.100000*%
%ADD11C,1.700000*%
%ADD12R,1.700000X1.700000*%
%ADD13O,1.700000X1.700000*%
%ADD14C,2.000000*%
%ADD15C,2.500000*%
%ADD16R,3.000000X3.700000*%
%ADD17C,1.800000*%
%ADD18R,2.000000X2.000000*%
%ADD19R,1.350000X1.350000*%
%ADD20C,1.350000*%
%ADD21C,1.600000*%
%ADD22R,1.600000X1.600000*%
%ADD23C,2.400000*%
%ADD24C,4.500000*%
G04 APERTURE END LIST*
D10*
D11*
X196000000Y-80000000D03*
X191000000Y-76500000D03*
X196000000Y-73000000D03*
X191000000Y-69500000D03*
X196000000Y-66000000D03*
X196000000Y-59000000D03*
X191000000Y-62500000D03*
X191000000Y-55500000D03*
X58000000Y-159000000D03*
X61500000Y-154000000D03*
X65000000Y-159000000D03*
X68500000Y-154000000D03*
X38500000Y-159000000D03*
X42000000Y-154000000D03*
X45500000Y-159000000D03*
X49000000Y-154000000D03*
D12*
X44000000Y-144500000D03*
D13*
X44000000Y-141960000D03*
X44000000Y-139420000D03*
X44000000Y-136880000D03*
D12*
X142500000Y-161500000D03*
D13*
X142500000Y-158960000D03*
X142500000Y-156420000D03*
D11*
X30000000Y-124000000D03*
X35000000Y-127500000D03*
X30000000Y-131000000D03*
X35000000Y-134500000D03*
X30000000Y-105000000D03*
X35000000Y-108500000D03*
X30000000Y-112000000D03*
X35000000Y-115500000D03*
X196000000Y-119000000D03*
X191000000Y-115500000D03*
X196000000Y-112000000D03*
X191000000Y-108500000D03*
D12*
X150000000Y-161580000D03*
D13*
X150000000Y-159040000D03*
X150000000Y-156500000D03*
X150000000Y-153960000D03*
X150000000Y-151420000D03*
X150000000Y-148880000D03*
D12*
X120000000Y-161620000D03*
D13*
X120000000Y-159080000D03*
X120000000Y-156540000D03*
X120000000Y-154000000D03*
D12*
X127500000Y-161500000D03*
D13*
X127500000Y-158960000D03*
X127500000Y-156420000D03*
X127500000Y-153880000D03*
D12*
X80000000Y-161580000D03*
D13*
X80000000Y-159040000D03*
X80000000Y-156500000D03*
D12*
X95000000Y-161580000D03*
D13*
X95000000Y-159040000D03*
X95000000Y-156500000D03*
D12*
X87500000Y-161580000D03*
D13*
X87500000Y-159040000D03*
X87500000Y-156500000D03*
D12*
X102500000Y-161580000D03*
D13*
X102500000Y-159040000D03*
X102500000Y-156500000D03*
D12*
X135000000Y-161500000D03*
D13*
X135000000Y-158960000D03*
X135000000Y-156420000D03*
X135000000Y-153880000D03*
D14*
X108250000Y-45750000D03*
X111750000Y-104250000D03*
D15*
X105800000Y-51100000D03*
X105800000Y-98900000D03*
X114200000Y-49900000D03*
X114200000Y-100100000D03*
D14*
X108250000Y-104250000D03*
X128250000Y-45750000D03*
X131750000Y-104250000D03*
D15*
X125800000Y-51100000D03*
X125800000Y-98900000D03*
X134200000Y-49900000D03*
X134200000Y-100100000D03*
D14*
X128250000Y-104250000D03*
X94250000Y-48250000D03*
X35750000Y-51750000D03*
D15*
X88900000Y-45800000D03*
X41100000Y-45800000D03*
X90100000Y-54200000D03*
X39900000Y-54200000D03*
D14*
X35750000Y-48250000D03*
X94250000Y-68250000D03*
X35750000Y-71750000D03*
D15*
X88900000Y-65800000D03*
X41100000Y-65800000D03*
X90100000Y-74200000D03*
X39900000Y-74200000D03*
D14*
X35750000Y-68250000D03*
X148250000Y-45750000D03*
X151750000Y-104250000D03*
D15*
X145800000Y-51100000D03*
X145800000Y-98900000D03*
X154200000Y-49900000D03*
X154200000Y-100100000D03*
D14*
X148250000Y-104250000D03*
X168250000Y-45750000D03*
X171750000Y-104250000D03*
D15*
X165800000Y-51100000D03*
X165800000Y-98900000D03*
X174200000Y-49900000D03*
X174200000Y-100100000D03*
D14*
X168250000Y-104250000D03*
D16*
X35400000Y-90000000D03*
X48600000Y-90000000D03*
D17*
X42000000Y-97500000D03*
X39500000Y-97500000D03*
X44500000Y-97500000D03*
D16*
X58400000Y-90000000D03*
X71600000Y-90000000D03*
D17*
X65000000Y-97500000D03*
X62500000Y-97500000D03*
X67500000Y-97500000D03*
D16*
X81400000Y-90000000D03*
X94600000Y-90000000D03*
D17*
X88000000Y-97500000D03*
X85500000Y-97500000D03*
X90500000Y-97500000D03*
D16*
X183400000Y-90000000D03*
X196600000Y-90000000D03*
D17*
X190000000Y-97500000D03*
X187500000Y-97500000D03*
X192500000Y-97500000D03*
D18*
X152420000Y-132000000D03*
D14*
X154960000Y-132000000D03*
X157500000Y-132000000D03*
X160040000Y-132000000D03*
D19*
X185310000Y-131310000D03*
D20*
X182770000Y-131310000D03*
X180230000Y-131310000D03*
X177690000Y-131310000D03*
X177690000Y-123690000D03*
X180230000Y-123690000D03*
X182770000Y-123690000D03*
X185310000Y-123690000D03*
D21*
X113700000Y-120260000D03*
X116240000Y-120260000D03*
X118780000Y-120260000D03*
X121320000Y-120260000D03*
X111160000Y-120260000D03*
X108620000Y-120260000D03*
X106080000Y-120260000D03*
X123860000Y-120260000D03*
X126400000Y-120260000D03*
X128940000Y-120260000D03*
X131480000Y-120260000D03*
X118780000Y-122800000D03*
X118780000Y-125340000D03*
X118780000Y-127880000D03*
X118780000Y-130420000D03*
X118780000Y-132960000D03*
X131480000Y-135500000D03*
X128940000Y-135500000D03*
X126400000Y-135500000D03*
X123860000Y-135500000D03*
X121320000Y-135500000D03*
X118780000Y-135500000D03*
X116240000Y-135500000D03*
X113700000Y-135500000D03*
X103540000Y-120260000D03*
X101000000Y-120260000D03*
X98460000Y-120260000D03*
X95920000Y-120260000D03*
X93380000Y-120260000D03*
X90840000Y-120260000D03*
X88300000Y-120260000D03*
X85760000Y-120260000D03*
X83220000Y-120260000D03*
X80680000Y-120260000D03*
X78140000Y-120260000D03*
X75600000Y-120260000D03*
D22*
X73060000Y-120260000D03*
D21*
X111160000Y-135500000D03*
X108620000Y-135500000D03*
X106080000Y-135500000D03*
X103540000Y-135500000D03*
X101000000Y-135500000D03*
X98460000Y-135500000D03*
X95920000Y-135500000D03*
X93380000Y-135500000D03*
X90840000Y-135500000D03*
X88300000Y-135500000D03*
X85760000Y-135500000D03*
X83220000Y-135500000D03*
X80680000Y-135500000D03*
X78140000Y-135500000D03*
X75600000Y-135500000D03*
X73060000Y-135500000D03*
X75600000Y-132960000D03*
X80680000Y-132960000D03*
X83220000Y-132960000D03*
X85760000Y-132960000D03*
X88300000Y-127880000D03*
X90840000Y-127880000D03*
X93380000Y-127880000D03*
X95920000Y-127880000D03*
X111160000Y-127880000D03*
X113700000Y-127880000D03*
X116240000Y-127880000D03*
X121320000Y-127880000D03*
X123860000Y-127880000D03*
X126400000Y-127880000D03*
X128940000Y-127880000D03*
X131480000Y-127880000D03*
X131480000Y-130420000D03*
X128940000Y-130420000D03*
X126400000Y-130420000D03*
X123860000Y-130420000D03*
X121320000Y-130420000D03*
X116240000Y-130420000D03*
X113700000Y-130420000D03*
X111160000Y-130420000D03*
X95920000Y-130420000D03*
X93380000Y-130420000D03*
X90840000Y-130420000D03*
X88300000Y-130420000D03*
X79410000Y-123260000D03*
X81950000Y-123260000D03*
X84490000Y-123260000D03*
X87030000Y-123260000D03*
X89570000Y-123260000D03*
D14*
X172690000Y-143685000D03*
D23*
X168880000Y-148135000D03*
X176500000Y-147500000D03*
X168880000Y-157025000D03*
X176500000Y-151945000D03*
D24*
X195000000Y-45000000D03*
X27000000Y-158000000D03*
X27000000Y-45000000D03*
X195000000Y-158000000D03*
M02*
