G04 #@! TF.FileFunction,Legend,Top*
%FSLAX46Y46*%
G04 Gerber Fmt 4.6, Leading zero omitted, Abs format (unit mm)*
G04 Created by KiCad (PCBNEW 4.0.6+dfsg1-1) date Mon Apr  2 21:34:36 2018*
%MOMM*%
%LPD*%
G01*
G04 APERTURE LIST*
%ADD10C,0.100000*%
%ADD11C,0.300000*%
%ADD12C,1.500000*%
%ADD13C,0.500000*%
%ADD14C,0.150000*%
%ADD15C,0.200000*%
G04 APERTURE END LIST*
D10*
D11*
X142107143Y-114178571D02*
X142964286Y-114178571D01*
X142535715Y-115678571D02*
X142535715Y-114178571D01*
X143464286Y-114892857D02*
X143964286Y-114892857D01*
X144178572Y-115678571D02*
X143464286Y-115678571D01*
X143464286Y-114178571D01*
X144178572Y-114178571D01*
X144750000Y-115607143D02*
X144964286Y-115678571D01*
X145321429Y-115678571D01*
X145464286Y-115607143D01*
X145535715Y-115535714D01*
X145607143Y-115392857D01*
X145607143Y-115250000D01*
X145535715Y-115107143D01*
X145464286Y-115035714D01*
X145321429Y-114964286D01*
X145035715Y-114892857D01*
X144892857Y-114821429D01*
X144821429Y-114750000D01*
X144750000Y-114607143D01*
X144750000Y-114464286D01*
X144821429Y-114321429D01*
X144892857Y-114250000D01*
X145035715Y-114178571D01*
X145392857Y-114178571D01*
X145607143Y-114250000D01*
X146035714Y-114178571D02*
X146892857Y-114178571D01*
X146464286Y-115678571D02*
X146464286Y-114178571D01*
D12*
X140707107Y-115000000D02*
G75*
G03X140707107Y-115000000I-707107J0D01*
G01*
D13*
X82499999Y-113571429D02*
X82357142Y-113714286D01*
X81928571Y-113857143D01*
X81642857Y-113857143D01*
X81214285Y-113714286D01*
X80928571Y-113428571D01*
X80785714Y-113142857D01*
X80642857Y-112571429D01*
X80642857Y-112142857D01*
X80785714Y-111571429D01*
X80928571Y-111285714D01*
X81214285Y-111000000D01*
X81642857Y-110857143D01*
X81928571Y-110857143D01*
X82357142Y-111000000D01*
X82499999Y-111142857D01*
X84214285Y-113857143D02*
X83928571Y-113714286D01*
X83785714Y-113571429D01*
X83642857Y-113285714D01*
X83642857Y-112428571D01*
X83785714Y-112142857D01*
X83928571Y-112000000D01*
X84214285Y-111857143D01*
X84642857Y-111857143D01*
X84928571Y-112000000D01*
X85071428Y-112142857D01*
X85214285Y-112428571D01*
X85214285Y-113285714D01*
X85071428Y-113571429D01*
X84928571Y-113714286D01*
X84642857Y-113857143D01*
X84214285Y-113857143D01*
X86928571Y-113857143D02*
X86642857Y-113714286D01*
X86500000Y-113428571D01*
X86500000Y-110857143D01*
X88500000Y-113857143D02*
X88214286Y-113714286D01*
X88071429Y-113571429D01*
X87928572Y-113285714D01*
X87928572Y-112428571D01*
X88071429Y-112142857D01*
X88214286Y-112000000D01*
X88500000Y-111857143D01*
X88928572Y-111857143D01*
X89214286Y-112000000D01*
X89357143Y-112142857D01*
X89500000Y-112428571D01*
X89500000Y-113285714D01*
X89357143Y-113571429D01*
X89214286Y-113714286D01*
X88928572Y-113857143D01*
X88500000Y-113857143D01*
X90785715Y-113857143D02*
X90785715Y-111857143D01*
X90785715Y-112428571D02*
X90928572Y-112142857D01*
X91071429Y-112000000D01*
X91357143Y-111857143D01*
X91642858Y-111857143D01*
X93928572Y-113857143D02*
X93928572Y-110857143D01*
X93928572Y-113714286D02*
X93642858Y-113857143D01*
X93071429Y-113857143D01*
X92785715Y-113714286D01*
X92642858Y-113571429D01*
X92500001Y-113285714D01*
X92500001Y-112428571D01*
X92642858Y-112142857D01*
X92785715Y-112000000D01*
X93071429Y-111857143D01*
X93642858Y-111857143D01*
X93928572Y-112000000D01*
X96642858Y-113857143D02*
X96642858Y-112285714D01*
X96500001Y-112000000D01*
X96214287Y-111857143D01*
X95642858Y-111857143D01*
X95357144Y-112000000D01*
X96642858Y-113714286D02*
X96357144Y-113857143D01*
X95642858Y-113857143D01*
X95357144Y-113714286D01*
X95214287Y-113428571D01*
X95214287Y-113142857D01*
X95357144Y-112857143D01*
X95642858Y-112714286D01*
X96357144Y-112714286D01*
X96642858Y-112571429D01*
X98071430Y-111857143D02*
X98071430Y-113857143D01*
X98071430Y-112142857D02*
X98214287Y-112000000D01*
X98500001Y-111857143D01*
X98928573Y-111857143D01*
X99214287Y-112000000D01*
X99357144Y-112285714D01*
X99357144Y-113857143D01*
X102071430Y-113714286D02*
X101785716Y-113857143D01*
X101214287Y-113857143D01*
X100928573Y-113714286D01*
X100785716Y-113571429D01*
X100642859Y-113285714D01*
X100642859Y-112428571D01*
X100785716Y-112142857D01*
X100928573Y-112000000D01*
X101214287Y-111857143D01*
X101785716Y-111857143D01*
X102071430Y-112000000D01*
X104500002Y-113714286D02*
X104214288Y-113857143D01*
X103642859Y-113857143D01*
X103357145Y-113714286D01*
X103214288Y-113428571D01*
X103214288Y-112285714D01*
X103357145Y-112000000D01*
X103642859Y-111857143D01*
X104214288Y-111857143D01*
X104500002Y-112000000D01*
X104642859Y-112285714D01*
X104642859Y-112571429D01*
X103214288Y-112857143D01*
X107928573Y-111857143D02*
X108642859Y-113857143D01*
X109357145Y-111857143D01*
X112071430Y-113857143D02*
X110357145Y-113857143D01*
X111214287Y-113857143D02*
X111214287Y-110857143D01*
X110928573Y-111285714D01*
X110642859Y-111571429D01*
X110357145Y-111714286D01*
X113357145Y-113571429D02*
X113500002Y-113714286D01*
X113357145Y-113857143D01*
X113214288Y-113714286D01*
X113357145Y-113571429D01*
X113357145Y-113857143D01*
X115357144Y-110857143D02*
X115642859Y-110857143D01*
X115928573Y-111000000D01*
X116071430Y-111142857D01*
X116214287Y-111428571D01*
X116357144Y-112000000D01*
X116357144Y-112714286D01*
X116214287Y-113285714D01*
X116071430Y-113571429D01*
X115928573Y-113714286D01*
X115642859Y-113857143D01*
X115357144Y-113857143D01*
X115071430Y-113714286D01*
X114928573Y-113571429D01*
X114785716Y-113285714D01*
X114642859Y-112714286D01*
X114642859Y-112000000D01*
X114785716Y-111428571D01*
X114928573Y-111142857D01*
X115071430Y-111000000D01*
X115357144Y-110857143D01*
D11*
X199678571Y-63392857D02*
X198178571Y-63392857D01*
X199678571Y-62535714D01*
X198178571Y-62535714D01*
X198892857Y-61821428D02*
X198892857Y-61321428D01*
X199678571Y-61107142D02*
X199678571Y-61821428D01*
X198178571Y-61821428D01*
X198178571Y-61107142D01*
X198178571Y-60607142D02*
X199678571Y-59607142D01*
X198178571Y-59607142D02*
X199678571Y-60607142D01*
X198178571Y-59250000D02*
X198178571Y-58392857D01*
X199678571Y-58821428D02*
X198178571Y-58821428D01*
X199678571Y-77464285D02*
X198178571Y-77464285D01*
X198178571Y-76892857D01*
X198250000Y-76749999D01*
X198321429Y-76678571D01*
X198464286Y-76607142D01*
X198678571Y-76607142D01*
X198821429Y-76678571D01*
X198892857Y-76749999D01*
X198964286Y-76892857D01*
X198964286Y-77464285D01*
X199678571Y-75107142D02*
X198964286Y-75607142D01*
X199678571Y-75964285D02*
X198178571Y-75964285D01*
X198178571Y-75392857D01*
X198250000Y-75249999D01*
X198321429Y-75178571D01*
X198464286Y-75107142D01*
X198678571Y-75107142D01*
X198821429Y-75178571D01*
X198892857Y-75249999D01*
X198964286Y-75392857D01*
X198964286Y-75964285D01*
X198892857Y-74464285D02*
X198892857Y-73964285D01*
X199678571Y-73749999D02*
X199678571Y-74464285D01*
X198178571Y-74464285D01*
X198178571Y-73749999D01*
X198178571Y-73321428D02*
X199678571Y-72821428D01*
X198178571Y-72321428D01*
X198678571Y-116607143D02*
X198678571Y-116321429D01*
X198750000Y-116178571D01*
X198892857Y-116035714D01*
X199178571Y-115964286D01*
X199678571Y-115964286D01*
X199964286Y-116035714D01*
X200107143Y-116178571D01*
X200178571Y-116321429D01*
X200178571Y-116607143D01*
X200107143Y-116750000D01*
X199964286Y-116892857D01*
X199678571Y-116964286D01*
X199178571Y-116964286D01*
X198892857Y-116892857D01*
X198750000Y-116750000D01*
X198678571Y-116607143D01*
X200178571Y-115321428D02*
X198678571Y-115321428D01*
X200178571Y-114464285D01*
X198678571Y-114464285D01*
X199392857Y-112107142D02*
X199464286Y-111892856D01*
X199535714Y-111821428D01*
X199678571Y-111749999D01*
X199892857Y-111749999D01*
X200035714Y-111821428D01*
X200107143Y-111892856D01*
X200178571Y-112035714D01*
X200178571Y-112607142D01*
X198678571Y-112607142D01*
X198678571Y-112107142D01*
X198750000Y-111964285D01*
X198821429Y-111892856D01*
X198964286Y-111821428D01*
X199107143Y-111821428D01*
X199250000Y-111892856D01*
X199321429Y-111964285D01*
X199392857Y-112107142D01*
X199392857Y-112607142D01*
X198678571Y-111321428D02*
X198678571Y-110464285D01*
X200178571Y-110892856D02*
X198678571Y-110892856D01*
X200178571Y-109964285D02*
X198678571Y-109964285D01*
X200178571Y-109107142D01*
X198678571Y-109107142D01*
X170035715Y-163178571D02*
X170035715Y-161678571D01*
X170392858Y-161678571D01*
X170607143Y-161750000D01*
X170750001Y-161892857D01*
X170821429Y-162035714D01*
X170892858Y-162321429D01*
X170892858Y-162535714D01*
X170821429Y-162821429D01*
X170750001Y-162964286D01*
X170607143Y-163107143D01*
X170392858Y-163178571D01*
X170035715Y-163178571D01*
X171535715Y-163178571D02*
X171535715Y-161678571D01*
X172035715Y-162750000D01*
X172535715Y-161678571D01*
X172535715Y-163178571D01*
X173107144Y-161678571D02*
X174107144Y-163178571D01*
X174107144Y-161678571D02*
X173107144Y-163178571D01*
X59857143Y-163107143D02*
X60071429Y-163178571D01*
X60428572Y-163178571D01*
X60571429Y-163107143D01*
X60642858Y-163035714D01*
X60714286Y-162892857D01*
X60714286Y-162750000D01*
X60642858Y-162607143D01*
X60571429Y-162535714D01*
X60428572Y-162464286D01*
X60142858Y-162392857D01*
X60000000Y-162321429D01*
X59928572Y-162250000D01*
X59857143Y-162107143D01*
X59857143Y-161964286D01*
X59928572Y-161821429D01*
X60000000Y-161750000D01*
X60142858Y-161678571D01*
X60500000Y-161678571D01*
X60714286Y-161750000D01*
X61357143Y-163178571D02*
X61357143Y-161678571D01*
X61928571Y-161678571D01*
X62071429Y-161750000D01*
X62142857Y-161821429D01*
X62214286Y-161964286D01*
X62214286Y-162178571D01*
X62142857Y-162321429D01*
X62071429Y-162392857D01*
X61928571Y-162464286D01*
X61357143Y-162464286D01*
X62857143Y-163178571D02*
X62857143Y-161678571D01*
X65428572Y-163178571D02*
X64714286Y-163178571D01*
X64714286Y-161678571D01*
X65928572Y-162392857D02*
X66428572Y-162392857D01*
X66642858Y-163178571D02*
X65928572Y-163178571D01*
X65928572Y-161678571D01*
X66642858Y-161678571D01*
X67285715Y-163178571D02*
X67285715Y-161678571D01*
X67642858Y-161678571D01*
X67857143Y-161750000D01*
X68000001Y-161892857D01*
X68071429Y-162035714D01*
X68142858Y-162321429D01*
X68142858Y-162535714D01*
X68071429Y-162821429D01*
X68000001Y-162964286D01*
X67857143Y-163107143D01*
X67642858Y-163178571D01*
X67285715Y-163178571D01*
X40535714Y-163178571D02*
X40535714Y-161678571D01*
X41107142Y-161678571D01*
X41250000Y-161750000D01*
X41321428Y-161821429D01*
X41392857Y-161964286D01*
X41392857Y-162178571D01*
X41321428Y-162321429D01*
X41250000Y-162392857D01*
X41107142Y-162464286D01*
X40535714Y-162464286D01*
X42321428Y-161678571D02*
X42607142Y-161678571D01*
X42750000Y-161750000D01*
X42892857Y-161892857D01*
X42964285Y-162178571D01*
X42964285Y-162678571D01*
X42892857Y-162964286D01*
X42750000Y-163107143D01*
X42607142Y-163178571D01*
X42321428Y-163178571D01*
X42178571Y-163107143D01*
X42035714Y-162964286D01*
X41964285Y-162678571D01*
X41964285Y-162178571D01*
X42035714Y-161892857D01*
X42178571Y-161750000D01*
X42321428Y-161678571D01*
X43464286Y-161678571D02*
X43821429Y-163178571D01*
X44107143Y-162107143D01*
X44392857Y-163178571D01*
X44750000Y-161678571D01*
X45321429Y-162392857D02*
X45821429Y-162392857D01*
X46035715Y-163178571D02*
X45321429Y-163178571D01*
X45321429Y-161678571D01*
X46035715Y-161678571D01*
X47535715Y-163178571D02*
X47035715Y-162464286D01*
X46678572Y-163178571D02*
X46678572Y-161678571D01*
X47250000Y-161678571D01*
X47392858Y-161750000D01*
X47464286Y-161821429D01*
X47535715Y-161964286D01*
X47535715Y-162178571D01*
X47464286Y-162321429D01*
X47392858Y-162392857D01*
X47250000Y-162464286D01*
X46678572Y-162464286D01*
X26821429Y-104571428D02*
X26821429Y-104857142D01*
X26750000Y-105000000D01*
X26607143Y-105142857D01*
X26321429Y-105214285D01*
X25821429Y-105214285D01*
X25535714Y-105142857D01*
X25392857Y-105000000D01*
X25321429Y-104857142D01*
X25321429Y-104571428D01*
X25392857Y-104428571D01*
X25535714Y-104285714D01*
X25821429Y-104214285D01*
X26321429Y-104214285D01*
X26607143Y-104285714D01*
X26750000Y-104428571D01*
X26821429Y-104571428D01*
X25321429Y-106714286D02*
X26035714Y-106214286D01*
X25321429Y-105857143D02*
X26821429Y-105857143D01*
X26821429Y-106428571D01*
X26750000Y-106571429D01*
X26678571Y-106642857D01*
X26535714Y-106714286D01*
X26321429Y-106714286D01*
X26178571Y-106642857D01*
X26107143Y-106571429D01*
X26035714Y-106428571D01*
X26035714Y-105857143D01*
X25321429Y-107357143D02*
X26821429Y-107357143D01*
X26107143Y-108071429D02*
X26107143Y-108571429D01*
X25321429Y-108785715D02*
X25321429Y-108071429D01*
X26821429Y-108071429D01*
X26821429Y-108785715D01*
X25321429Y-109428572D02*
X26821429Y-109428572D01*
X25321429Y-110285715D01*
X26821429Y-110285715D01*
X26821429Y-110785715D02*
X26821429Y-111642858D01*
X25321429Y-111214287D02*
X26821429Y-111214287D01*
X25750000Y-112071429D02*
X25750000Y-112785715D01*
X25321429Y-111928572D02*
X26821429Y-112428572D01*
X25321429Y-112928572D01*
X26821429Y-113214286D02*
X26821429Y-114071429D01*
X25321429Y-113642858D02*
X26821429Y-113642858D01*
X25321429Y-114571429D02*
X26821429Y-114571429D01*
X26821429Y-115571429D02*
X26821429Y-115857143D01*
X26750000Y-116000001D01*
X26607143Y-116142858D01*
X26321429Y-116214286D01*
X25821429Y-116214286D01*
X25535714Y-116142858D01*
X25392857Y-116000001D01*
X25321429Y-115857143D01*
X25321429Y-115571429D01*
X25392857Y-115428572D01*
X25535714Y-115285715D01*
X25821429Y-115214286D01*
X26321429Y-115214286D01*
X26607143Y-115285715D01*
X26750000Y-115428572D01*
X26821429Y-115571429D01*
X25321429Y-116857144D02*
X26821429Y-116857144D01*
X25321429Y-117714287D01*
X26821429Y-117714287D01*
X26821429Y-126000000D02*
X26821429Y-126857143D01*
X25321429Y-126428572D02*
X26821429Y-126428572D01*
X26107143Y-127357143D02*
X26107143Y-127857143D01*
X25321429Y-128071429D02*
X25321429Y-127357143D01*
X26821429Y-127357143D01*
X26821429Y-128071429D01*
X25321429Y-128714286D02*
X26821429Y-128714286D01*
X25750000Y-129214286D01*
X26821429Y-129714286D01*
X25321429Y-129714286D01*
X25321429Y-130428572D02*
X26821429Y-130428572D01*
X26821429Y-131000000D01*
X26750000Y-131142858D01*
X26678571Y-131214286D01*
X26535714Y-131285715D01*
X26321429Y-131285715D01*
X26178571Y-131214286D01*
X26107143Y-131142858D01*
X26035714Y-131000000D01*
X26035714Y-130428572D01*
X26821429Y-132214286D02*
X26821429Y-132500000D01*
X26750000Y-132642858D01*
X26607143Y-132785715D01*
X26321429Y-132857143D01*
X25821429Y-132857143D01*
X25535714Y-132785715D01*
X25392857Y-132642858D01*
X25321429Y-132500000D01*
X25321429Y-132214286D01*
X25392857Y-132071429D01*
X25535714Y-131928572D01*
X25821429Y-131857143D01*
X26321429Y-131857143D01*
X26607143Y-131928572D01*
X26750000Y-132071429D01*
X26821429Y-132214286D01*
D14*
X109000000Y-50000000D02*
X109000000Y-100000000D01*
X111000000Y-50000000D02*
X109000000Y-50000000D01*
X111000000Y-100000000D02*
X111000000Y-50000000D01*
X109000000Y-100000000D02*
X111000000Y-100000000D01*
X104000000Y-106000000D02*
X104000000Y-44000000D01*
X104000000Y-44000000D02*
X116000000Y-44000000D01*
X116000000Y-44000000D02*
X116000000Y-105500000D01*
X116000000Y-105500000D02*
X116000000Y-106000000D01*
X116000000Y-106000000D02*
X104000000Y-106000000D01*
X129000000Y-50000000D02*
X129000000Y-100000000D01*
X131000000Y-50000000D02*
X129000000Y-50000000D01*
X131000000Y-100000000D02*
X131000000Y-50000000D01*
X129000000Y-100000000D02*
X131000000Y-100000000D01*
X124000000Y-106000000D02*
X124000000Y-44000000D01*
X124000000Y-44000000D02*
X136000000Y-44000000D01*
X136000000Y-44000000D02*
X136000000Y-105500000D01*
X136000000Y-105500000D02*
X136000000Y-106000000D01*
X136000000Y-106000000D02*
X124000000Y-106000000D01*
X90000000Y-49000000D02*
X40000000Y-49000000D01*
X90000000Y-51000000D02*
X90000000Y-49000000D01*
X40000000Y-51000000D02*
X90000000Y-51000000D01*
X40000000Y-49000000D02*
X40000000Y-51000000D01*
X34000000Y-44000000D02*
X96000000Y-44000000D01*
X96000000Y-44000000D02*
X96000000Y-56000000D01*
X96000000Y-56000000D02*
X34500000Y-56000000D01*
X34500000Y-56000000D02*
X34000000Y-56000000D01*
X34000000Y-56000000D02*
X34000000Y-44000000D01*
X90000000Y-69000000D02*
X40000000Y-69000000D01*
X90000000Y-71000000D02*
X90000000Y-69000000D01*
X40000000Y-71000000D02*
X90000000Y-71000000D01*
X40000000Y-69000000D02*
X40000000Y-71000000D01*
X34000000Y-64000000D02*
X96000000Y-64000000D01*
X96000000Y-64000000D02*
X96000000Y-76000000D01*
X96000000Y-76000000D02*
X34500000Y-76000000D01*
X34500000Y-76000000D02*
X34000000Y-76000000D01*
X34000000Y-76000000D02*
X34000000Y-64000000D01*
X149000000Y-50000000D02*
X149000000Y-100000000D01*
X151000000Y-50000000D02*
X149000000Y-50000000D01*
X151000000Y-100000000D02*
X151000000Y-50000000D01*
X149000000Y-100000000D02*
X151000000Y-100000000D01*
X144000000Y-106000000D02*
X144000000Y-44000000D01*
X144000000Y-44000000D02*
X156000000Y-44000000D01*
X156000000Y-44000000D02*
X156000000Y-105500000D01*
X156000000Y-105500000D02*
X156000000Y-106000000D01*
X156000000Y-106000000D02*
X144000000Y-106000000D01*
X169000000Y-50000000D02*
X169000000Y-100000000D01*
X171000000Y-50000000D02*
X169000000Y-50000000D01*
X171000000Y-100000000D02*
X171000000Y-50000000D01*
X169000000Y-100000000D02*
X171000000Y-100000000D01*
X164000000Y-106000000D02*
X164000000Y-44000000D01*
X164000000Y-44000000D02*
X176000000Y-44000000D01*
X176000000Y-44000000D02*
X176000000Y-105500000D01*
X176000000Y-105500000D02*
X176000000Y-106000000D01*
X176000000Y-106000000D02*
X164000000Y-106000000D01*
X45041381Y-90000000D02*
G75*
G03X45041381Y-90000000I-3041381J0D01*
G01*
X50500000Y-99000000D02*
X50500000Y-90000000D01*
X33500000Y-99000000D02*
X50500000Y-99000000D01*
X33500000Y-83000000D02*
X33500000Y-99000000D01*
X50500000Y-83000000D02*
X33500000Y-83000000D01*
X50500000Y-90000000D02*
X50500000Y-83000000D01*
X45535534Y-90000000D02*
G75*
G03X45535534Y-90000000I-3535534J0D01*
G01*
X68041381Y-90000000D02*
G75*
G03X68041381Y-90000000I-3041381J0D01*
G01*
X73500000Y-99000000D02*
X73500000Y-90000000D01*
X56500000Y-99000000D02*
X73500000Y-99000000D01*
X56500000Y-83000000D02*
X56500000Y-99000000D01*
X73500000Y-83000000D02*
X56500000Y-83000000D01*
X73500000Y-90000000D02*
X73500000Y-83000000D01*
X68535534Y-90000000D02*
G75*
G03X68535534Y-90000000I-3535534J0D01*
G01*
X91041381Y-90000000D02*
G75*
G03X91041381Y-90000000I-3041381J0D01*
G01*
X96500000Y-99000000D02*
X96500000Y-90000000D01*
X79500000Y-99000000D02*
X96500000Y-99000000D01*
X79500000Y-83000000D02*
X79500000Y-99000000D01*
X96500000Y-83000000D02*
X79500000Y-83000000D01*
X96500000Y-90000000D02*
X96500000Y-83000000D01*
X91535534Y-90000000D02*
G75*
G03X91535534Y-90000000I-3535534J0D01*
G01*
X193041381Y-90000000D02*
G75*
G03X193041381Y-90000000I-3041381J0D01*
G01*
X198500000Y-99000000D02*
X198500000Y-90000000D01*
X181500000Y-99000000D02*
X198500000Y-99000000D01*
X181500000Y-83000000D02*
X181500000Y-99000000D01*
X198500000Y-83000000D02*
X181500000Y-83000000D01*
X198500000Y-90000000D02*
X198500000Y-83000000D01*
X193535534Y-90000000D02*
G75*
G03X193535534Y-90000000I-3535534J0D01*
G01*
D15*
X197462214Y-45000000D02*
G75*
G03X197462214Y-45000000I-2462214J0D01*
G01*
X29462214Y-158000000D02*
G75*
G03X29462214Y-158000000I-2462214J0D01*
G01*
X29462214Y-45000000D02*
G75*
G03X29462214Y-45000000I-2462214J0D01*
G01*
X197462214Y-158000000D02*
G75*
G03X197462214Y-158000000I-2462214J0D01*
G01*
M02*
