G04 #@! TF.GenerationSoftware,KiCad,Pcbnew,5.1.2-f72e74a~84~ubuntu18.04.1*
G04 #@! TF.CreationDate,2019-07-06T16:20:52-06:00*
G04 #@! TF.ProjectId,colordance_mini,636f6c6f-7264-4616-9e63-655f6d696e69,rev?*
G04 #@! TF.SameCoordinates,Original*
G04 #@! TF.FileFunction,Paste,Bot*
G04 #@! TF.FilePolarity,Positive*
%FSLAX46Y46*%
G04 Gerber Fmt 4.6, Leading zero omitted, Abs format (unit mm)*
G04 Created by KiCad (PCBNEW 5.1.2-f72e74a~84~ubuntu18.04.1) date 2019-07-06 16:20:52*
%MOMM*%
%LPD*%
G04 APERTURE LIST*
%ADD10R,1.200000X0.750000*%
%ADD11R,2.000000X1.100000*%
%ADD12R,1.200000X0.900000*%
%ADD13R,0.508000X1.143000*%
%ADD14R,6.068060X6.068060*%
%ADD15C,0.100000*%
%ADD16C,0.950000*%
G04 APERTURE END LIST*
D10*
X29550000Y-97000000D03*
X31450000Y-97000000D03*
X52550000Y-97000000D03*
X54450000Y-97000000D03*
X29550000Y-86000000D03*
X31450000Y-86000000D03*
X52550000Y-86000000D03*
X54450000Y-86000000D03*
X75550000Y-97000000D03*
X77450000Y-97000000D03*
X173050000Y-112500000D03*
X174950000Y-112500000D03*
X157434588Y-139277576D03*
X155534588Y-139277576D03*
X157434588Y-141277576D03*
X155534588Y-141277576D03*
X75550000Y-86000000D03*
X77450000Y-86000000D03*
X179050000Y-112500000D03*
X180950000Y-112500000D03*
X170950000Y-121000000D03*
X169050000Y-121000000D03*
X170950000Y-119000000D03*
X169050000Y-119000000D03*
D11*
X42600000Y-114299999D03*
X42600002Y-116000000D03*
X42600000Y-117700000D03*
X47400000Y-117700001D03*
X47399998Y-116000000D03*
X47400000Y-114300000D03*
D12*
X166100000Y-122000000D03*
X163900000Y-122000000D03*
X163900000Y-139000000D03*
X166100000Y-139000000D03*
X163900000Y-120000000D03*
X166100000Y-120000000D03*
X31600000Y-95000000D03*
X29400000Y-95000000D03*
X54600000Y-95000000D03*
X52400000Y-95000000D03*
X29400000Y-93000000D03*
X31600000Y-93000000D03*
X52400000Y-93000000D03*
X54600000Y-93000000D03*
X29400000Y-90000000D03*
X31600000Y-90000000D03*
X52400000Y-90000000D03*
X54600000Y-90000000D03*
X29400000Y-88000000D03*
X31600000Y-88000000D03*
X52400000Y-88000000D03*
X54600000Y-88000000D03*
X77600000Y-95000000D03*
X75400000Y-95000000D03*
X175100000Y-110500000D03*
X172900000Y-110500000D03*
X75400000Y-93000000D03*
X77600000Y-93000000D03*
X172900000Y-108500000D03*
X175100000Y-108500000D03*
X75400000Y-90000000D03*
X77600000Y-90000000D03*
X178900000Y-108500000D03*
X181100000Y-108500000D03*
X75300000Y-88000000D03*
X77500000Y-88000000D03*
X178900000Y-110500000D03*
X181100000Y-110500000D03*
X166100000Y-137000000D03*
X163900000Y-137000000D03*
X163900000Y-118000000D03*
X166100000Y-118000000D03*
X110900000Y-158500000D03*
X113100000Y-158500000D03*
X110900000Y-160500000D03*
X113100000Y-160500000D03*
D10*
X38983814Y-148240702D03*
X37083814Y-148240702D03*
X38983814Y-150740702D03*
X37083814Y-150740702D03*
D13*
X166595000Y-132675000D03*
X167865000Y-132675000D03*
X169135000Y-132675000D03*
X170405000Y-132675000D03*
X170405000Y-126325000D03*
X169135000Y-126325000D03*
X167865000Y-126325000D03*
X166595000Y-126325000D03*
D14*
X124800000Y-90299340D03*
X124800000Y-77800000D03*
X124800000Y-65300660D03*
D15*
G36*
X108585779Y-107526144D02*
G01*
X108608834Y-107529563D01*
X108631443Y-107535227D01*
X108653387Y-107543079D01*
X108674457Y-107553044D01*
X108694448Y-107565026D01*
X108713168Y-107578910D01*
X108730438Y-107594562D01*
X108746090Y-107611832D01*
X108759974Y-107630552D01*
X108771956Y-107650543D01*
X108781921Y-107671613D01*
X108789773Y-107693557D01*
X108795437Y-107716166D01*
X108798856Y-107739221D01*
X108800000Y-107762500D01*
X108800000Y-108237500D01*
X108798856Y-108260779D01*
X108795437Y-108283834D01*
X108789773Y-108306443D01*
X108781921Y-108328387D01*
X108771956Y-108349457D01*
X108759974Y-108369448D01*
X108746090Y-108388168D01*
X108730438Y-108405438D01*
X108713168Y-108421090D01*
X108694448Y-108434974D01*
X108674457Y-108446956D01*
X108653387Y-108456921D01*
X108631443Y-108464773D01*
X108608834Y-108470437D01*
X108585779Y-108473856D01*
X108562500Y-108475000D01*
X107987500Y-108475000D01*
X107964221Y-108473856D01*
X107941166Y-108470437D01*
X107918557Y-108464773D01*
X107896613Y-108456921D01*
X107875543Y-108446956D01*
X107855552Y-108434974D01*
X107836832Y-108421090D01*
X107819562Y-108405438D01*
X107803910Y-108388168D01*
X107790026Y-108369448D01*
X107778044Y-108349457D01*
X107768079Y-108328387D01*
X107760227Y-108306443D01*
X107754563Y-108283834D01*
X107751144Y-108260779D01*
X107750000Y-108237500D01*
X107750000Y-107762500D01*
X107751144Y-107739221D01*
X107754563Y-107716166D01*
X107760227Y-107693557D01*
X107768079Y-107671613D01*
X107778044Y-107650543D01*
X107790026Y-107630552D01*
X107803910Y-107611832D01*
X107819562Y-107594562D01*
X107836832Y-107578910D01*
X107855552Y-107565026D01*
X107875543Y-107553044D01*
X107896613Y-107543079D01*
X107918557Y-107535227D01*
X107941166Y-107529563D01*
X107964221Y-107526144D01*
X107987500Y-107525000D01*
X108562500Y-107525000D01*
X108585779Y-107526144D01*
X108585779Y-107526144D01*
G37*
D16*
X108275000Y-108000000D03*
D15*
G36*
X106835779Y-107526144D02*
G01*
X106858834Y-107529563D01*
X106881443Y-107535227D01*
X106903387Y-107543079D01*
X106924457Y-107553044D01*
X106944448Y-107565026D01*
X106963168Y-107578910D01*
X106980438Y-107594562D01*
X106996090Y-107611832D01*
X107009974Y-107630552D01*
X107021956Y-107650543D01*
X107031921Y-107671613D01*
X107039773Y-107693557D01*
X107045437Y-107716166D01*
X107048856Y-107739221D01*
X107050000Y-107762500D01*
X107050000Y-108237500D01*
X107048856Y-108260779D01*
X107045437Y-108283834D01*
X107039773Y-108306443D01*
X107031921Y-108328387D01*
X107021956Y-108349457D01*
X107009974Y-108369448D01*
X106996090Y-108388168D01*
X106980438Y-108405438D01*
X106963168Y-108421090D01*
X106944448Y-108434974D01*
X106924457Y-108446956D01*
X106903387Y-108456921D01*
X106881443Y-108464773D01*
X106858834Y-108470437D01*
X106835779Y-108473856D01*
X106812500Y-108475000D01*
X106237500Y-108475000D01*
X106214221Y-108473856D01*
X106191166Y-108470437D01*
X106168557Y-108464773D01*
X106146613Y-108456921D01*
X106125543Y-108446956D01*
X106105552Y-108434974D01*
X106086832Y-108421090D01*
X106069562Y-108405438D01*
X106053910Y-108388168D01*
X106040026Y-108369448D01*
X106028044Y-108349457D01*
X106018079Y-108328387D01*
X106010227Y-108306443D01*
X106004563Y-108283834D01*
X106001144Y-108260779D01*
X106000000Y-108237500D01*
X106000000Y-107762500D01*
X106001144Y-107739221D01*
X106004563Y-107716166D01*
X106010227Y-107693557D01*
X106018079Y-107671613D01*
X106028044Y-107650543D01*
X106040026Y-107630552D01*
X106053910Y-107611832D01*
X106069562Y-107594562D01*
X106086832Y-107578910D01*
X106105552Y-107565026D01*
X106125543Y-107553044D01*
X106146613Y-107543079D01*
X106168557Y-107535227D01*
X106191166Y-107529563D01*
X106214221Y-107526144D01*
X106237500Y-107525000D01*
X106812500Y-107525000D01*
X106835779Y-107526144D01*
X106835779Y-107526144D01*
G37*
D16*
X106525000Y-108000000D03*
D15*
G36*
X127785779Y-109126144D02*
G01*
X127808834Y-109129563D01*
X127831443Y-109135227D01*
X127853387Y-109143079D01*
X127874457Y-109153044D01*
X127894448Y-109165026D01*
X127913168Y-109178910D01*
X127930438Y-109194562D01*
X127946090Y-109211832D01*
X127959974Y-109230552D01*
X127971956Y-109250543D01*
X127981921Y-109271613D01*
X127989773Y-109293557D01*
X127995437Y-109316166D01*
X127998856Y-109339221D01*
X128000000Y-109362500D01*
X128000000Y-109837500D01*
X127998856Y-109860779D01*
X127995437Y-109883834D01*
X127989773Y-109906443D01*
X127981921Y-109928387D01*
X127971956Y-109949457D01*
X127959974Y-109969448D01*
X127946090Y-109988168D01*
X127930438Y-110005438D01*
X127913168Y-110021090D01*
X127894448Y-110034974D01*
X127874457Y-110046956D01*
X127853387Y-110056921D01*
X127831443Y-110064773D01*
X127808834Y-110070437D01*
X127785779Y-110073856D01*
X127762500Y-110075000D01*
X127187500Y-110075000D01*
X127164221Y-110073856D01*
X127141166Y-110070437D01*
X127118557Y-110064773D01*
X127096613Y-110056921D01*
X127075543Y-110046956D01*
X127055552Y-110034974D01*
X127036832Y-110021090D01*
X127019562Y-110005438D01*
X127003910Y-109988168D01*
X126990026Y-109969448D01*
X126978044Y-109949457D01*
X126968079Y-109928387D01*
X126960227Y-109906443D01*
X126954563Y-109883834D01*
X126951144Y-109860779D01*
X126950000Y-109837500D01*
X126950000Y-109362500D01*
X126951144Y-109339221D01*
X126954563Y-109316166D01*
X126960227Y-109293557D01*
X126968079Y-109271613D01*
X126978044Y-109250543D01*
X126990026Y-109230552D01*
X127003910Y-109211832D01*
X127019562Y-109194562D01*
X127036832Y-109178910D01*
X127055552Y-109165026D01*
X127075543Y-109153044D01*
X127096613Y-109143079D01*
X127118557Y-109135227D01*
X127141166Y-109129563D01*
X127164221Y-109126144D01*
X127187500Y-109125000D01*
X127762500Y-109125000D01*
X127785779Y-109126144D01*
X127785779Y-109126144D01*
G37*
D16*
X127475000Y-109600000D03*
D15*
G36*
X126035779Y-109126144D02*
G01*
X126058834Y-109129563D01*
X126081443Y-109135227D01*
X126103387Y-109143079D01*
X126124457Y-109153044D01*
X126144448Y-109165026D01*
X126163168Y-109178910D01*
X126180438Y-109194562D01*
X126196090Y-109211832D01*
X126209974Y-109230552D01*
X126221956Y-109250543D01*
X126231921Y-109271613D01*
X126239773Y-109293557D01*
X126245437Y-109316166D01*
X126248856Y-109339221D01*
X126250000Y-109362500D01*
X126250000Y-109837500D01*
X126248856Y-109860779D01*
X126245437Y-109883834D01*
X126239773Y-109906443D01*
X126231921Y-109928387D01*
X126221956Y-109949457D01*
X126209974Y-109969448D01*
X126196090Y-109988168D01*
X126180438Y-110005438D01*
X126163168Y-110021090D01*
X126144448Y-110034974D01*
X126124457Y-110046956D01*
X126103387Y-110056921D01*
X126081443Y-110064773D01*
X126058834Y-110070437D01*
X126035779Y-110073856D01*
X126012500Y-110075000D01*
X125437500Y-110075000D01*
X125414221Y-110073856D01*
X125391166Y-110070437D01*
X125368557Y-110064773D01*
X125346613Y-110056921D01*
X125325543Y-110046956D01*
X125305552Y-110034974D01*
X125286832Y-110021090D01*
X125269562Y-110005438D01*
X125253910Y-109988168D01*
X125240026Y-109969448D01*
X125228044Y-109949457D01*
X125218079Y-109928387D01*
X125210227Y-109906443D01*
X125204563Y-109883834D01*
X125201144Y-109860779D01*
X125200000Y-109837500D01*
X125200000Y-109362500D01*
X125201144Y-109339221D01*
X125204563Y-109316166D01*
X125210227Y-109293557D01*
X125218079Y-109271613D01*
X125228044Y-109250543D01*
X125240026Y-109230552D01*
X125253910Y-109211832D01*
X125269562Y-109194562D01*
X125286832Y-109178910D01*
X125305552Y-109165026D01*
X125325543Y-109153044D01*
X125346613Y-109143079D01*
X125368557Y-109135227D01*
X125391166Y-109129563D01*
X125414221Y-109126144D01*
X125437500Y-109125000D01*
X126012500Y-109125000D01*
X126035779Y-109126144D01*
X126035779Y-109126144D01*
G37*
D16*
X125725000Y-109600000D03*
D15*
G36*
X35860779Y-54001144D02*
G01*
X35883834Y-54004563D01*
X35906443Y-54010227D01*
X35928387Y-54018079D01*
X35949457Y-54028044D01*
X35969448Y-54040026D01*
X35988168Y-54053910D01*
X36005438Y-54069562D01*
X36021090Y-54086832D01*
X36034974Y-54105552D01*
X36046956Y-54125543D01*
X36056921Y-54146613D01*
X36064773Y-54168557D01*
X36070437Y-54191166D01*
X36073856Y-54214221D01*
X36075000Y-54237500D01*
X36075000Y-54812500D01*
X36073856Y-54835779D01*
X36070437Y-54858834D01*
X36064773Y-54881443D01*
X36056921Y-54903387D01*
X36046956Y-54924457D01*
X36034974Y-54944448D01*
X36021090Y-54963168D01*
X36005438Y-54980438D01*
X35988168Y-54996090D01*
X35969448Y-55009974D01*
X35949457Y-55021956D01*
X35928387Y-55031921D01*
X35906443Y-55039773D01*
X35883834Y-55045437D01*
X35860779Y-55048856D01*
X35837500Y-55050000D01*
X35362500Y-55050000D01*
X35339221Y-55048856D01*
X35316166Y-55045437D01*
X35293557Y-55039773D01*
X35271613Y-55031921D01*
X35250543Y-55021956D01*
X35230552Y-55009974D01*
X35211832Y-54996090D01*
X35194562Y-54980438D01*
X35178910Y-54963168D01*
X35165026Y-54944448D01*
X35153044Y-54924457D01*
X35143079Y-54903387D01*
X35135227Y-54881443D01*
X35129563Y-54858834D01*
X35126144Y-54835779D01*
X35125000Y-54812500D01*
X35125000Y-54237500D01*
X35126144Y-54214221D01*
X35129563Y-54191166D01*
X35135227Y-54168557D01*
X35143079Y-54146613D01*
X35153044Y-54125543D01*
X35165026Y-54105552D01*
X35178910Y-54086832D01*
X35194562Y-54069562D01*
X35211832Y-54053910D01*
X35230552Y-54040026D01*
X35250543Y-54028044D01*
X35271613Y-54018079D01*
X35293557Y-54010227D01*
X35316166Y-54004563D01*
X35339221Y-54001144D01*
X35362500Y-54000000D01*
X35837500Y-54000000D01*
X35860779Y-54001144D01*
X35860779Y-54001144D01*
G37*
D16*
X35600000Y-54525000D03*
D15*
G36*
X35860779Y-55751144D02*
G01*
X35883834Y-55754563D01*
X35906443Y-55760227D01*
X35928387Y-55768079D01*
X35949457Y-55778044D01*
X35969448Y-55790026D01*
X35988168Y-55803910D01*
X36005438Y-55819562D01*
X36021090Y-55836832D01*
X36034974Y-55855552D01*
X36046956Y-55875543D01*
X36056921Y-55896613D01*
X36064773Y-55918557D01*
X36070437Y-55941166D01*
X36073856Y-55964221D01*
X36075000Y-55987500D01*
X36075000Y-56562500D01*
X36073856Y-56585779D01*
X36070437Y-56608834D01*
X36064773Y-56631443D01*
X36056921Y-56653387D01*
X36046956Y-56674457D01*
X36034974Y-56694448D01*
X36021090Y-56713168D01*
X36005438Y-56730438D01*
X35988168Y-56746090D01*
X35969448Y-56759974D01*
X35949457Y-56771956D01*
X35928387Y-56781921D01*
X35906443Y-56789773D01*
X35883834Y-56795437D01*
X35860779Y-56798856D01*
X35837500Y-56800000D01*
X35362500Y-56800000D01*
X35339221Y-56798856D01*
X35316166Y-56795437D01*
X35293557Y-56789773D01*
X35271613Y-56781921D01*
X35250543Y-56771956D01*
X35230552Y-56759974D01*
X35211832Y-56746090D01*
X35194562Y-56730438D01*
X35178910Y-56713168D01*
X35165026Y-56694448D01*
X35153044Y-56674457D01*
X35143079Y-56653387D01*
X35135227Y-56631443D01*
X35129563Y-56608834D01*
X35126144Y-56585779D01*
X35125000Y-56562500D01*
X35125000Y-55987500D01*
X35126144Y-55964221D01*
X35129563Y-55941166D01*
X35135227Y-55918557D01*
X35143079Y-55896613D01*
X35153044Y-55875543D01*
X35165026Y-55855552D01*
X35178910Y-55836832D01*
X35194562Y-55819562D01*
X35211832Y-55803910D01*
X35230552Y-55790026D01*
X35250543Y-55778044D01*
X35271613Y-55768079D01*
X35293557Y-55760227D01*
X35316166Y-55754563D01*
X35339221Y-55751144D01*
X35362500Y-55750000D01*
X35837500Y-55750000D01*
X35860779Y-55751144D01*
X35860779Y-55751144D01*
G37*
D16*
X35600000Y-56275000D03*
D15*
G36*
X35860779Y-75751144D02*
G01*
X35883834Y-75754563D01*
X35906443Y-75760227D01*
X35928387Y-75768079D01*
X35949457Y-75778044D01*
X35969448Y-75790026D01*
X35988168Y-75803910D01*
X36005438Y-75819562D01*
X36021090Y-75836832D01*
X36034974Y-75855552D01*
X36046956Y-75875543D01*
X36056921Y-75896613D01*
X36064773Y-75918557D01*
X36070437Y-75941166D01*
X36073856Y-75964221D01*
X36075000Y-75987500D01*
X36075000Y-76562500D01*
X36073856Y-76585779D01*
X36070437Y-76608834D01*
X36064773Y-76631443D01*
X36056921Y-76653387D01*
X36046956Y-76674457D01*
X36034974Y-76694448D01*
X36021090Y-76713168D01*
X36005438Y-76730438D01*
X35988168Y-76746090D01*
X35969448Y-76759974D01*
X35949457Y-76771956D01*
X35928387Y-76781921D01*
X35906443Y-76789773D01*
X35883834Y-76795437D01*
X35860779Y-76798856D01*
X35837500Y-76800000D01*
X35362500Y-76800000D01*
X35339221Y-76798856D01*
X35316166Y-76795437D01*
X35293557Y-76789773D01*
X35271613Y-76781921D01*
X35250543Y-76771956D01*
X35230552Y-76759974D01*
X35211832Y-76746090D01*
X35194562Y-76730438D01*
X35178910Y-76713168D01*
X35165026Y-76694448D01*
X35153044Y-76674457D01*
X35143079Y-76653387D01*
X35135227Y-76631443D01*
X35129563Y-76608834D01*
X35126144Y-76585779D01*
X35125000Y-76562500D01*
X35125000Y-75987500D01*
X35126144Y-75964221D01*
X35129563Y-75941166D01*
X35135227Y-75918557D01*
X35143079Y-75896613D01*
X35153044Y-75875543D01*
X35165026Y-75855552D01*
X35178910Y-75836832D01*
X35194562Y-75819562D01*
X35211832Y-75803910D01*
X35230552Y-75790026D01*
X35250543Y-75778044D01*
X35271613Y-75768079D01*
X35293557Y-75760227D01*
X35316166Y-75754563D01*
X35339221Y-75751144D01*
X35362500Y-75750000D01*
X35837500Y-75750000D01*
X35860779Y-75751144D01*
X35860779Y-75751144D01*
G37*
D16*
X35600000Y-76275000D03*
D15*
G36*
X35860779Y-74001144D02*
G01*
X35883834Y-74004563D01*
X35906443Y-74010227D01*
X35928387Y-74018079D01*
X35949457Y-74028044D01*
X35969448Y-74040026D01*
X35988168Y-74053910D01*
X36005438Y-74069562D01*
X36021090Y-74086832D01*
X36034974Y-74105552D01*
X36046956Y-74125543D01*
X36056921Y-74146613D01*
X36064773Y-74168557D01*
X36070437Y-74191166D01*
X36073856Y-74214221D01*
X36075000Y-74237500D01*
X36075000Y-74812500D01*
X36073856Y-74835779D01*
X36070437Y-74858834D01*
X36064773Y-74881443D01*
X36056921Y-74903387D01*
X36046956Y-74924457D01*
X36034974Y-74944448D01*
X36021090Y-74963168D01*
X36005438Y-74980438D01*
X35988168Y-74996090D01*
X35969448Y-75009974D01*
X35949457Y-75021956D01*
X35928387Y-75031921D01*
X35906443Y-75039773D01*
X35883834Y-75045437D01*
X35860779Y-75048856D01*
X35837500Y-75050000D01*
X35362500Y-75050000D01*
X35339221Y-75048856D01*
X35316166Y-75045437D01*
X35293557Y-75039773D01*
X35271613Y-75031921D01*
X35250543Y-75021956D01*
X35230552Y-75009974D01*
X35211832Y-74996090D01*
X35194562Y-74980438D01*
X35178910Y-74963168D01*
X35165026Y-74944448D01*
X35153044Y-74924457D01*
X35143079Y-74903387D01*
X35135227Y-74881443D01*
X35129563Y-74858834D01*
X35126144Y-74835779D01*
X35125000Y-74812500D01*
X35125000Y-74237500D01*
X35126144Y-74214221D01*
X35129563Y-74191166D01*
X35135227Y-74168557D01*
X35143079Y-74146613D01*
X35153044Y-74125543D01*
X35165026Y-74105552D01*
X35178910Y-74086832D01*
X35194562Y-74069562D01*
X35211832Y-74053910D01*
X35230552Y-74040026D01*
X35250543Y-74028044D01*
X35271613Y-74018079D01*
X35293557Y-74010227D01*
X35316166Y-74004563D01*
X35339221Y-74001144D01*
X35362500Y-74000000D01*
X35837500Y-74000000D01*
X35860779Y-74001144D01*
X35860779Y-74001144D01*
G37*
D16*
X35600000Y-74525000D03*
D15*
G36*
X151585779Y-101126144D02*
G01*
X151608834Y-101129563D01*
X151631443Y-101135227D01*
X151653387Y-101143079D01*
X151674457Y-101153044D01*
X151694448Y-101165026D01*
X151713168Y-101178910D01*
X151730438Y-101194562D01*
X151746090Y-101211832D01*
X151759974Y-101230552D01*
X151771956Y-101250543D01*
X151781921Y-101271613D01*
X151789773Y-101293557D01*
X151795437Y-101316166D01*
X151798856Y-101339221D01*
X151800000Y-101362500D01*
X151800000Y-101837500D01*
X151798856Y-101860779D01*
X151795437Y-101883834D01*
X151789773Y-101906443D01*
X151781921Y-101928387D01*
X151771956Y-101949457D01*
X151759974Y-101969448D01*
X151746090Y-101988168D01*
X151730438Y-102005438D01*
X151713168Y-102021090D01*
X151694448Y-102034974D01*
X151674457Y-102046956D01*
X151653387Y-102056921D01*
X151631443Y-102064773D01*
X151608834Y-102070437D01*
X151585779Y-102073856D01*
X151562500Y-102075000D01*
X150987500Y-102075000D01*
X150964221Y-102073856D01*
X150941166Y-102070437D01*
X150918557Y-102064773D01*
X150896613Y-102056921D01*
X150875543Y-102046956D01*
X150855552Y-102034974D01*
X150836832Y-102021090D01*
X150819562Y-102005438D01*
X150803910Y-101988168D01*
X150790026Y-101969448D01*
X150778044Y-101949457D01*
X150768079Y-101928387D01*
X150760227Y-101906443D01*
X150754563Y-101883834D01*
X150751144Y-101860779D01*
X150750000Y-101837500D01*
X150750000Y-101362500D01*
X150751144Y-101339221D01*
X150754563Y-101316166D01*
X150760227Y-101293557D01*
X150768079Y-101271613D01*
X150778044Y-101250543D01*
X150790026Y-101230552D01*
X150803910Y-101211832D01*
X150819562Y-101194562D01*
X150836832Y-101178910D01*
X150855552Y-101165026D01*
X150875543Y-101153044D01*
X150896613Y-101143079D01*
X150918557Y-101135227D01*
X150941166Y-101129563D01*
X150964221Y-101126144D01*
X150987500Y-101125000D01*
X151562500Y-101125000D01*
X151585779Y-101126144D01*
X151585779Y-101126144D01*
G37*
D16*
X151275000Y-101600000D03*
D15*
G36*
X149835779Y-101126144D02*
G01*
X149858834Y-101129563D01*
X149881443Y-101135227D01*
X149903387Y-101143079D01*
X149924457Y-101153044D01*
X149944448Y-101165026D01*
X149963168Y-101178910D01*
X149980438Y-101194562D01*
X149996090Y-101211832D01*
X150009974Y-101230552D01*
X150021956Y-101250543D01*
X150031921Y-101271613D01*
X150039773Y-101293557D01*
X150045437Y-101316166D01*
X150048856Y-101339221D01*
X150050000Y-101362500D01*
X150050000Y-101837500D01*
X150048856Y-101860779D01*
X150045437Y-101883834D01*
X150039773Y-101906443D01*
X150031921Y-101928387D01*
X150021956Y-101949457D01*
X150009974Y-101969448D01*
X149996090Y-101988168D01*
X149980438Y-102005438D01*
X149963168Y-102021090D01*
X149944448Y-102034974D01*
X149924457Y-102046956D01*
X149903387Y-102056921D01*
X149881443Y-102064773D01*
X149858834Y-102070437D01*
X149835779Y-102073856D01*
X149812500Y-102075000D01*
X149237500Y-102075000D01*
X149214221Y-102073856D01*
X149191166Y-102070437D01*
X149168557Y-102064773D01*
X149146613Y-102056921D01*
X149125543Y-102046956D01*
X149105552Y-102034974D01*
X149086832Y-102021090D01*
X149069562Y-102005438D01*
X149053910Y-101988168D01*
X149040026Y-101969448D01*
X149028044Y-101949457D01*
X149018079Y-101928387D01*
X149010227Y-101906443D01*
X149004563Y-101883834D01*
X149001144Y-101860779D01*
X149000000Y-101837500D01*
X149000000Y-101362500D01*
X149001144Y-101339221D01*
X149004563Y-101316166D01*
X149010227Y-101293557D01*
X149018079Y-101271613D01*
X149028044Y-101250543D01*
X149040026Y-101230552D01*
X149053910Y-101211832D01*
X149069562Y-101194562D01*
X149086832Y-101178910D01*
X149105552Y-101165026D01*
X149125543Y-101153044D01*
X149146613Y-101143079D01*
X149168557Y-101135227D01*
X149191166Y-101129563D01*
X149214221Y-101126144D01*
X149237500Y-101125000D01*
X149812500Y-101125000D01*
X149835779Y-101126144D01*
X149835779Y-101126144D01*
G37*
D16*
X149525000Y-101600000D03*
D15*
G36*
X163960779Y-105526144D02*
G01*
X163983834Y-105529563D01*
X164006443Y-105535227D01*
X164028387Y-105543079D01*
X164049457Y-105553044D01*
X164069448Y-105565026D01*
X164088168Y-105578910D01*
X164105438Y-105594562D01*
X164121090Y-105611832D01*
X164134974Y-105630552D01*
X164146956Y-105650543D01*
X164156921Y-105671613D01*
X164164773Y-105693557D01*
X164170437Y-105716166D01*
X164173856Y-105739221D01*
X164175000Y-105762500D01*
X164175000Y-106237500D01*
X164173856Y-106260779D01*
X164170437Y-106283834D01*
X164164773Y-106306443D01*
X164156921Y-106328387D01*
X164146956Y-106349457D01*
X164134974Y-106369448D01*
X164121090Y-106388168D01*
X164105438Y-106405438D01*
X164088168Y-106421090D01*
X164069448Y-106434974D01*
X164049457Y-106446956D01*
X164028387Y-106456921D01*
X164006443Y-106464773D01*
X163983834Y-106470437D01*
X163960779Y-106473856D01*
X163937500Y-106475000D01*
X163362500Y-106475000D01*
X163339221Y-106473856D01*
X163316166Y-106470437D01*
X163293557Y-106464773D01*
X163271613Y-106456921D01*
X163250543Y-106446956D01*
X163230552Y-106434974D01*
X163211832Y-106421090D01*
X163194562Y-106405438D01*
X163178910Y-106388168D01*
X163165026Y-106369448D01*
X163153044Y-106349457D01*
X163143079Y-106328387D01*
X163135227Y-106306443D01*
X163129563Y-106283834D01*
X163126144Y-106260779D01*
X163125000Y-106237500D01*
X163125000Y-105762500D01*
X163126144Y-105739221D01*
X163129563Y-105716166D01*
X163135227Y-105693557D01*
X163143079Y-105671613D01*
X163153044Y-105650543D01*
X163165026Y-105630552D01*
X163178910Y-105611832D01*
X163194562Y-105594562D01*
X163211832Y-105578910D01*
X163230552Y-105565026D01*
X163250543Y-105553044D01*
X163271613Y-105543079D01*
X163293557Y-105535227D01*
X163316166Y-105529563D01*
X163339221Y-105526144D01*
X163362500Y-105525000D01*
X163937500Y-105525000D01*
X163960779Y-105526144D01*
X163960779Y-105526144D01*
G37*
D16*
X163650000Y-106000000D03*
D15*
G36*
X165710779Y-105526144D02*
G01*
X165733834Y-105529563D01*
X165756443Y-105535227D01*
X165778387Y-105543079D01*
X165799457Y-105553044D01*
X165819448Y-105565026D01*
X165838168Y-105578910D01*
X165855438Y-105594562D01*
X165871090Y-105611832D01*
X165884974Y-105630552D01*
X165896956Y-105650543D01*
X165906921Y-105671613D01*
X165914773Y-105693557D01*
X165920437Y-105716166D01*
X165923856Y-105739221D01*
X165925000Y-105762500D01*
X165925000Y-106237500D01*
X165923856Y-106260779D01*
X165920437Y-106283834D01*
X165914773Y-106306443D01*
X165906921Y-106328387D01*
X165896956Y-106349457D01*
X165884974Y-106369448D01*
X165871090Y-106388168D01*
X165855438Y-106405438D01*
X165838168Y-106421090D01*
X165819448Y-106434974D01*
X165799457Y-106446956D01*
X165778387Y-106456921D01*
X165756443Y-106464773D01*
X165733834Y-106470437D01*
X165710779Y-106473856D01*
X165687500Y-106475000D01*
X165112500Y-106475000D01*
X165089221Y-106473856D01*
X165066166Y-106470437D01*
X165043557Y-106464773D01*
X165021613Y-106456921D01*
X165000543Y-106446956D01*
X164980552Y-106434974D01*
X164961832Y-106421090D01*
X164944562Y-106405438D01*
X164928910Y-106388168D01*
X164915026Y-106369448D01*
X164903044Y-106349457D01*
X164893079Y-106328387D01*
X164885227Y-106306443D01*
X164879563Y-106283834D01*
X164876144Y-106260779D01*
X164875000Y-106237500D01*
X164875000Y-105762500D01*
X164876144Y-105739221D01*
X164879563Y-105716166D01*
X164885227Y-105693557D01*
X164893079Y-105671613D01*
X164903044Y-105650543D01*
X164915026Y-105630552D01*
X164928910Y-105611832D01*
X164944562Y-105594562D01*
X164961832Y-105578910D01*
X164980552Y-105565026D01*
X165000543Y-105553044D01*
X165021613Y-105543079D01*
X165043557Y-105535227D01*
X165066166Y-105529563D01*
X165089221Y-105526144D01*
X165112500Y-105525000D01*
X165687500Y-105525000D01*
X165710779Y-105526144D01*
X165710779Y-105526144D01*
G37*
D16*
X165400000Y-106000000D03*
D15*
G36*
X179710779Y-120326144D02*
G01*
X179733834Y-120329563D01*
X179756443Y-120335227D01*
X179778387Y-120343079D01*
X179799457Y-120353044D01*
X179819448Y-120365026D01*
X179838168Y-120378910D01*
X179855438Y-120394562D01*
X179871090Y-120411832D01*
X179884974Y-120430552D01*
X179896956Y-120450543D01*
X179906921Y-120471613D01*
X179914773Y-120493557D01*
X179920437Y-120516166D01*
X179923856Y-120539221D01*
X179925000Y-120562500D01*
X179925000Y-121037500D01*
X179923856Y-121060779D01*
X179920437Y-121083834D01*
X179914773Y-121106443D01*
X179906921Y-121128387D01*
X179896956Y-121149457D01*
X179884974Y-121169448D01*
X179871090Y-121188168D01*
X179855438Y-121205438D01*
X179838168Y-121221090D01*
X179819448Y-121234974D01*
X179799457Y-121246956D01*
X179778387Y-121256921D01*
X179756443Y-121264773D01*
X179733834Y-121270437D01*
X179710779Y-121273856D01*
X179687500Y-121275000D01*
X179112500Y-121275000D01*
X179089221Y-121273856D01*
X179066166Y-121270437D01*
X179043557Y-121264773D01*
X179021613Y-121256921D01*
X179000543Y-121246956D01*
X178980552Y-121234974D01*
X178961832Y-121221090D01*
X178944562Y-121205438D01*
X178928910Y-121188168D01*
X178915026Y-121169448D01*
X178903044Y-121149457D01*
X178893079Y-121128387D01*
X178885227Y-121106443D01*
X178879563Y-121083834D01*
X178876144Y-121060779D01*
X178875000Y-121037500D01*
X178875000Y-120562500D01*
X178876144Y-120539221D01*
X178879563Y-120516166D01*
X178885227Y-120493557D01*
X178893079Y-120471613D01*
X178903044Y-120450543D01*
X178915026Y-120430552D01*
X178928910Y-120411832D01*
X178944562Y-120394562D01*
X178961832Y-120378910D01*
X178980552Y-120365026D01*
X179000543Y-120353044D01*
X179021613Y-120343079D01*
X179043557Y-120335227D01*
X179066166Y-120329563D01*
X179089221Y-120326144D01*
X179112500Y-120325000D01*
X179687500Y-120325000D01*
X179710779Y-120326144D01*
X179710779Y-120326144D01*
G37*
D16*
X179400000Y-120800000D03*
D15*
G36*
X177960779Y-120326144D02*
G01*
X177983834Y-120329563D01*
X178006443Y-120335227D01*
X178028387Y-120343079D01*
X178049457Y-120353044D01*
X178069448Y-120365026D01*
X178088168Y-120378910D01*
X178105438Y-120394562D01*
X178121090Y-120411832D01*
X178134974Y-120430552D01*
X178146956Y-120450543D01*
X178156921Y-120471613D01*
X178164773Y-120493557D01*
X178170437Y-120516166D01*
X178173856Y-120539221D01*
X178175000Y-120562500D01*
X178175000Y-121037500D01*
X178173856Y-121060779D01*
X178170437Y-121083834D01*
X178164773Y-121106443D01*
X178156921Y-121128387D01*
X178146956Y-121149457D01*
X178134974Y-121169448D01*
X178121090Y-121188168D01*
X178105438Y-121205438D01*
X178088168Y-121221090D01*
X178069448Y-121234974D01*
X178049457Y-121246956D01*
X178028387Y-121256921D01*
X178006443Y-121264773D01*
X177983834Y-121270437D01*
X177960779Y-121273856D01*
X177937500Y-121275000D01*
X177362500Y-121275000D01*
X177339221Y-121273856D01*
X177316166Y-121270437D01*
X177293557Y-121264773D01*
X177271613Y-121256921D01*
X177250543Y-121246956D01*
X177230552Y-121234974D01*
X177211832Y-121221090D01*
X177194562Y-121205438D01*
X177178910Y-121188168D01*
X177165026Y-121169448D01*
X177153044Y-121149457D01*
X177143079Y-121128387D01*
X177135227Y-121106443D01*
X177129563Y-121083834D01*
X177126144Y-121060779D01*
X177125000Y-121037500D01*
X177125000Y-120562500D01*
X177126144Y-120539221D01*
X177129563Y-120516166D01*
X177135227Y-120493557D01*
X177143079Y-120471613D01*
X177153044Y-120450543D01*
X177165026Y-120430552D01*
X177178910Y-120411832D01*
X177194562Y-120394562D01*
X177211832Y-120378910D01*
X177230552Y-120365026D01*
X177250543Y-120353044D01*
X177271613Y-120343079D01*
X177293557Y-120335227D01*
X177316166Y-120329563D01*
X177339221Y-120326144D01*
X177362500Y-120325000D01*
X177937500Y-120325000D01*
X177960779Y-120326144D01*
X177960779Y-120326144D01*
G37*
D16*
X177650000Y-120800000D03*
D15*
G36*
X46185779Y-119126144D02*
G01*
X46208834Y-119129563D01*
X46231443Y-119135227D01*
X46253387Y-119143079D01*
X46274457Y-119153044D01*
X46294448Y-119165026D01*
X46313168Y-119178910D01*
X46330438Y-119194562D01*
X46346090Y-119211832D01*
X46359974Y-119230552D01*
X46371956Y-119250543D01*
X46381921Y-119271613D01*
X46389773Y-119293557D01*
X46395437Y-119316166D01*
X46398856Y-119339221D01*
X46400000Y-119362500D01*
X46400000Y-119837500D01*
X46398856Y-119860779D01*
X46395437Y-119883834D01*
X46389773Y-119906443D01*
X46381921Y-119928387D01*
X46371956Y-119949457D01*
X46359974Y-119969448D01*
X46346090Y-119988168D01*
X46330438Y-120005438D01*
X46313168Y-120021090D01*
X46294448Y-120034974D01*
X46274457Y-120046956D01*
X46253387Y-120056921D01*
X46231443Y-120064773D01*
X46208834Y-120070437D01*
X46185779Y-120073856D01*
X46162500Y-120075000D01*
X45587500Y-120075000D01*
X45564221Y-120073856D01*
X45541166Y-120070437D01*
X45518557Y-120064773D01*
X45496613Y-120056921D01*
X45475543Y-120046956D01*
X45455552Y-120034974D01*
X45436832Y-120021090D01*
X45419562Y-120005438D01*
X45403910Y-119988168D01*
X45390026Y-119969448D01*
X45378044Y-119949457D01*
X45368079Y-119928387D01*
X45360227Y-119906443D01*
X45354563Y-119883834D01*
X45351144Y-119860779D01*
X45350000Y-119837500D01*
X45350000Y-119362500D01*
X45351144Y-119339221D01*
X45354563Y-119316166D01*
X45360227Y-119293557D01*
X45368079Y-119271613D01*
X45378044Y-119250543D01*
X45390026Y-119230552D01*
X45403910Y-119211832D01*
X45419562Y-119194562D01*
X45436832Y-119178910D01*
X45455552Y-119165026D01*
X45475543Y-119153044D01*
X45496613Y-119143079D01*
X45518557Y-119135227D01*
X45541166Y-119129563D01*
X45564221Y-119126144D01*
X45587500Y-119125000D01*
X46162500Y-119125000D01*
X46185779Y-119126144D01*
X46185779Y-119126144D01*
G37*
D16*
X45875000Y-119600000D03*
D15*
G36*
X44435779Y-119126144D02*
G01*
X44458834Y-119129563D01*
X44481443Y-119135227D01*
X44503387Y-119143079D01*
X44524457Y-119153044D01*
X44544448Y-119165026D01*
X44563168Y-119178910D01*
X44580438Y-119194562D01*
X44596090Y-119211832D01*
X44609974Y-119230552D01*
X44621956Y-119250543D01*
X44631921Y-119271613D01*
X44639773Y-119293557D01*
X44645437Y-119316166D01*
X44648856Y-119339221D01*
X44650000Y-119362500D01*
X44650000Y-119837500D01*
X44648856Y-119860779D01*
X44645437Y-119883834D01*
X44639773Y-119906443D01*
X44631921Y-119928387D01*
X44621956Y-119949457D01*
X44609974Y-119969448D01*
X44596090Y-119988168D01*
X44580438Y-120005438D01*
X44563168Y-120021090D01*
X44544448Y-120034974D01*
X44524457Y-120046956D01*
X44503387Y-120056921D01*
X44481443Y-120064773D01*
X44458834Y-120070437D01*
X44435779Y-120073856D01*
X44412500Y-120075000D01*
X43837500Y-120075000D01*
X43814221Y-120073856D01*
X43791166Y-120070437D01*
X43768557Y-120064773D01*
X43746613Y-120056921D01*
X43725543Y-120046956D01*
X43705552Y-120034974D01*
X43686832Y-120021090D01*
X43669562Y-120005438D01*
X43653910Y-119988168D01*
X43640026Y-119969448D01*
X43628044Y-119949457D01*
X43618079Y-119928387D01*
X43610227Y-119906443D01*
X43604563Y-119883834D01*
X43601144Y-119860779D01*
X43600000Y-119837500D01*
X43600000Y-119362500D01*
X43601144Y-119339221D01*
X43604563Y-119316166D01*
X43610227Y-119293557D01*
X43618079Y-119271613D01*
X43628044Y-119250543D01*
X43640026Y-119230552D01*
X43653910Y-119211832D01*
X43669562Y-119194562D01*
X43686832Y-119178910D01*
X43705552Y-119165026D01*
X43725543Y-119153044D01*
X43746613Y-119143079D01*
X43768557Y-119135227D01*
X43791166Y-119129563D01*
X43814221Y-119126144D01*
X43837500Y-119125000D01*
X44412500Y-119125000D01*
X44435779Y-119126144D01*
X44435779Y-119126144D01*
G37*
D16*
X44125000Y-119600000D03*
D15*
G36*
X73660779Y-158201144D02*
G01*
X73683834Y-158204563D01*
X73706443Y-158210227D01*
X73728387Y-158218079D01*
X73749457Y-158228044D01*
X73769448Y-158240026D01*
X73788168Y-158253910D01*
X73805438Y-158269562D01*
X73821090Y-158286832D01*
X73834974Y-158305552D01*
X73846956Y-158325543D01*
X73856921Y-158346613D01*
X73864773Y-158368557D01*
X73870437Y-158391166D01*
X73873856Y-158414221D01*
X73875000Y-158437500D01*
X73875000Y-159012500D01*
X73873856Y-159035779D01*
X73870437Y-159058834D01*
X73864773Y-159081443D01*
X73856921Y-159103387D01*
X73846956Y-159124457D01*
X73834974Y-159144448D01*
X73821090Y-159163168D01*
X73805438Y-159180438D01*
X73788168Y-159196090D01*
X73769448Y-159209974D01*
X73749457Y-159221956D01*
X73728387Y-159231921D01*
X73706443Y-159239773D01*
X73683834Y-159245437D01*
X73660779Y-159248856D01*
X73637500Y-159250000D01*
X73162500Y-159250000D01*
X73139221Y-159248856D01*
X73116166Y-159245437D01*
X73093557Y-159239773D01*
X73071613Y-159231921D01*
X73050543Y-159221956D01*
X73030552Y-159209974D01*
X73011832Y-159196090D01*
X72994562Y-159180438D01*
X72978910Y-159163168D01*
X72965026Y-159144448D01*
X72953044Y-159124457D01*
X72943079Y-159103387D01*
X72935227Y-159081443D01*
X72929563Y-159058834D01*
X72926144Y-159035779D01*
X72925000Y-159012500D01*
X72925000Y-158437500D01*
X72926144Y-158414221D01*
X72929563Y-158391166D01*
X72935227Y-158368557D01*
X72943079Y-158346613D01*
X72953044Y-158325543D01*
X72965026Y-158305552D01*
X72978910Y-158286832D01*
X72994562Y-158269562D01*
X73011832Y-158253910D01*
X73030552Y-158240026D01*
X73050543Y-158228044D01*
X73071613Y-158218079D01*
X73093557Y-158210227D01*
X73116166Y-158204563D01*
X73139221Y-158201144D01*
X73162500Y-158200000D01*
X73637500Y-158200000D01*
X73660779Y-158201144D01*
X73660779Y-158201144D01*
G37*
D16*
X73400000Y-158725000D03*
D15*
G36*
X73660779Y-159951144D02*
G01*
X73683834Y-159954563D01*
X73706443Y-159960227D01*
X73728387Y-159968079D01*
X73749457Y-159978044D01*
X73769448Y-159990026D01*
X73788168Y-160003910D01*
X73805438Y-160019562D01*
X73821090Y-160036832D01*
X73834974Y-160055552D01*
X73846956Y-160075543D01*
X73856921Y-160096613D01*
X73864773Y-160118557D01*
X73870437Y-160141166D01*
X73873856Y-160164221D01*
X73875000Y-160187500D01*
X73875000Y-160762500D01*
X73873856Y-160785779D01*
X73870437Y-160808834D01*
X73864773Y-160831443D01*
X73856921Y-160853387D01*
X73846956Y-160874457D01*
X73834974Y-160894448D01*
X73821090Y-160913168D01*
X73805438Y-160930438D01*
X73788168Y-160946090D01*
X73769448Y-160959974D01*
X73749457Y-160971956D01*
X73728387Y-160981921D01*
X73706443Y-160989773D01*
X73683834Y-160995437D01*
X73660779Y-160998856D01*
X73637500Y-161000000D01*
X73162500Y-161000000D01*
X73139221Y-160998856D01*
X73116166Y-160995437D01*
X73093557Y-160989773D01*
X73071613Y-160981921D01*
X73050543Y-160971956D01*
X73030552Y-160959974D01*
X73011832Y-160946090D01*
X72994562Y-160930438D01*
X72978910Y-160913168D01*
X72965026Y-160894448D01*
X72953044Y-160874457D01*
X72943079Y-160853387D01*
X72935227Y-160831443D01*
X72929563Y-160808834D01*
X72926144Y-160785779D01*
X72925000Y-160762500D01*
X72925000Y-160187500D01*
X72926144Y-160164221D01*
X72929563Y-160141166D01*
X72935227Y-160118557D01*
X72943079Y-160096613D01*
X72953044Y-160075543D01*
X72965026Y-160055552D01*
X72978910Y-160036832D01*
X72994562Y-160019562D01*
X73011832Y-160003910D01*
X73030552Y-159990026D01*
X73050543Y-159978044D01*
X73071613Y-159968079D01*
X73093557Y-159960227D01*
X73116166Y-159954563D01*
X73139221Y-159951144D01*
X73162500Y-159950000D01*
X73637500Y-159950000D01*
X73660779Y-159951144D01*
X73660779Y-159951144D01*
G37*
D16*
X73400000Y-160475000D03*
M02*
