G04 #@! TF.FileFunction,Legend,Bot*
%FSLAX46Y46*%
G04 Gerber Fmt 4.6, Leading zero omitted, Abs format (unit mm)*
G04 Created by KiCad (PCBNEW 4.0.6+dfsg1-1) date Fri Apr 13 21:26:29 2018*
%MOMM*%
%LPD*%
G01*
G04 APERTURE LIST*
%ADD10C,0.100000*%
%ADD11C,0.300000*%
%ADD12C,0.200000*%
%ADD13C,0.120000*%
%ADD14C,0.203200*%
%ADD15C,0.150000*%
G04 APERTURE END LIST*
D10*
D11*
X107928571Y-114642858D02*
X107928571Y-115571429D01*
X108500000Y-115071429D01*
X108500000Y-115285715D01*
X108571429Y-115428572D01*
X108642857Y-115500001D01*
X108785714Y-115571429D01*
X109142857Y-115571429D01*
X109285714Y-115500001D01*
X109357143Y-115428572D01*
X109428571Y-115285715D01*
X109428571Y-114857143D01*
X109357143Y-114714286D01*
X109285714Y-114642858D01*
X107928571Y-116000000D02*
X109428571Y-116500000D01*
X107928571Y-117000000D01*
X107928571Y-117357143D02*
X107928571Y-118285714D01*
X108500000Y-117785714D01*
X108500000Y-118000000D01*
X108571429Y-118142857D01*
X108642857Y-118214286D01*
X108785714Y-118285714D01*
X109142857Y-118285714D01*
X109285714Y-118214286D01*
X109357143Y-118142857D01*
X109428571Y-118000000D01*
X109428571Y-117571428D01*
X109357143Y-117428571D01*
X109285714Y-117357143D01*
X74850000Y-138657143D02*
X74778571Y-138514286D01*
X74778571Y-138300000D01*
X74850000Y-138085715D01*
X74992857Y-137942857D01*
X75135714Y-137871429D01*
X75421429Y-137800000D01*
X75635714Y-137800000D01*
X75921429Y-137871429D01*
X76064286Y-137942857D01*
X76207143Y-138085715D01*
X76278571Y-138300000D01*
X76278571Y-138442857D01*
X76207143Y-138657143D01*
X76135714Y-138728572D01*
X75635714Y-138728572D01*
X75635714Y-138442857D01*
X76278571Y-139371429D02*
X74778571Y-139371429D01*
X76278571Y-140228572D01*
X74778571Y-140228572D01*
X76278571Y-140942858D02*
X74778571Y-140942858D01*
X74778571Y-141300001D01*
X74850000Y-141514286D01*
X74992857Y-141657144D01*
X75135714Y-141728572D01*
X75421429Y-141800001D01*
X75635714Y-141800001D01*
X75921429Y-141728572D01*
X76064286Y-141657144D01*
X76207143Y-141514286D01*
X76278571Y-141300001D01*
X76278571Y-140942858D01*
X72178571Y-138614287D02*
X72178571Y-137900001D01*
X72892857Y-137828572D01*
X72821429Y-137900001D01*
X72750000Y-138042858D01*
X72750000Y-138400001D01*
X72821429Y-138542858D01*
X72892857Y-138614287D01*
X73035714Y-138685715D01*
X73392857Y-138685715D01*
X73535714Y-138614287D01*
X73607143Y-138542858D01*
X73678571Y-138400001D01*
X73678571Y-138042858D01*
X73607143Y-137900001D01*
X73535714Y-137828572D01*
X72178571Y-139114286D02*
X73678571Y-139614286D01*
X72178571Y-140114286D01*
D12*
X166741421Y-127600000D02*
G75*
G03X166741421Y-127600000I-141421J0D01*
G01*
D11*
X48700000Y-136342857D02*
X48471429Y-136342857D01*
X48357143Y-136400000D01*
X48242857Y-136514286D01*
X48185715Y-136742857D01*
X48185715Y-137142857D01*
X48242857Y-137371429D01*
X48357143Y-137485714D01*
X48471429Y-137542857D01*
X48700000Y-137542857D01*
X48814286Y-137485714D01*
X48928572Y-137371429D01*
X48985715Y-137142857D01*
X48985715Y-136742857D01*
X48928572Y-136514286D01*
X48814286Y-136400000D01*
X48700000Y-136342857D01*
X47671429Y-136342857D02*
X47671429Y-137314286D01*
X47614286Y-137428571D01*
X47557143Y-137485714D01*
X47442857Y-137542857D01*
X47214286Y-137542857D01*
X47100000Y-137485714D01*
X47042857Y-137428571D01*
X46985714Y-137314286D01*
X46985714Y-136342857D01*
X46585714Y-136342857D02*
X45900000Y-136342857D01*
X46242857Y-137542857D02*
X46242857Y-136342857D01*
X48985713Y-141342857D02*
X48242856Y-141342857D01*
X48642856Y-141800000D01*
X48471428Y-141800000D01*
X48357142Y-141857143D01*
X48299999Y-141914286D01*
X48242856Y-142028571D01*
X48242856Y-142314286D01*
X48299999Y-142428571D01*
X48357142Y-142485714D01*
X48471428Y-142542857D01*
X48814285Y-142542857D01*
X48928571Y-142485714D01*
X48985713Y-142428571D01*
X47899999Y-141342857D02*
X47499999Y-142542857D01*
X47099999Y-141342857D01*
X46814285Y-141342857D02*
X46071428Y-141342857D01*
X46471428Y-141800000D01*
X46300000Y-141800000D01*
X46185714Y-141857143D01*
X46128571Y-141914286D01*
X46071428Y-142028571D01*
X46071428Y-142314286D01*
X46128571Y-142428571D01*
X46185714Y-142485714D01*
X46300000Y-142542857D01*
X46642857Y-142542857D01*
X46757143Y-142485714D01*
X46814285Y-142428571D01*
X48414285Y-143900000D02*
X48528571Y-143842857D01*
X48700000Y-143842857D01*
X48871428Y-143900000D01*
X48985714Y-144014286D01*
X49042857Y-144128571D01*
X49100000Y-144357143D01*
X49100000Y-144528571D01*
X49042857Y-144757143D01*
X48985714Y-144871429D01*
X48871428Y-144985714D01*
X48700000Y-145042857D01*
X48585714Y-145042857D01*
X48414285Y-144985714D01*
X48357142Y-144928571D01*
X48357142Y-144528571D01*
X48585714Y-144528571D01*
X47842857Y-145042857D02*
X47842857Y-143842857D01*
X47157142Y-145042857D01*
X47157142Y-143842857D01*
X46585714Y-145042857D02*
X46585714Y-143842857D01*
X46299999Y-143842857D01*
X46128571Y-143900000D01*
X46014285Y-144014286D01*
X45957142Y-144128571D01*
X45899999Y-144357143D01*
X45899999Y-144528571D01*
X45957142Y-144757143D01*
X46014285Y-144871429D01*
X46128571Y-144985714D01*
X46299999Y-145042857D01*
X46585714Y-145042857D01*
X65542857Y-147200000D02*
X64342857Y-147200000D01*
X64342857Y-147485715D01*
X64400000Y-147657143D01*
X64514286Y-147771429D01*
X64628571Y-147828572D01*
X64857143Y-147885715D01*
X65028571Y-147885715D01*
X65257143Y-147828572D01*
X65371429Y-147771429D01*
X65485714Y-147657143D01*
X65542857Y-147485715D01*
X65542857Y-147200000D01*
X65200000Y-148342857D02*
X65200000Y-148914286D01*
X65542857Y-148228572D02*
X64342857Y-148628572D01*
X65542857Y-149028572D01*
X64342857Y-149257143D02*
X64342857Y-149942857D01*
X65542857Y-149600000D02*
X64342857Y-149600000D01*
X65200000Y-150285714D02*
X65200000Y-150857143D01*
X65542857Y-150171429D02*
X64342857Y-150571429D01*
X65542857Y-150971429D01*
X61928571Y-148785715D02*
X61985714Y-148728572D01*
X62042857Y-148557143D01*
X62042857Y-148442857D01*
X61985714Y-148271429D01*
X61871429Y-148157143D01*
X61757143Y-148100000D01*
X61528571Y-148042857D01*
X61357143Y-148042857D01*
X61128571Y-148100000D01*
X61014286Y-148157143D01*
X60900000Y-148271429D01*
X60842857Y-148442857D01*
X60842857Y-148557143D01*
X60900000Y-148728572D01*
X60957143Y-148785715D01*
X62042857Y-149871429D02*
X62042857Y-149300000D01*
X60842857Y-149300000D01*
X62042857Y-150271429D02*
X60842857Y-150271429D01*
X62042857Y-150957144D02*
X61357143Y-150442858D01*
X60842857Y-150957144D02*
X61528571Y-150271429D01*
X57342857Y-149771429D02*
X57342857Y-149200000D01*
X57914286Y-149142857D01*
X57857143Y-149200000D01*
X57800000Y-149314286D01*
X57800000Y-149600000D01*
X57857143Y-149714286D01*
X57914286Y-149771429D01*
X58028571Y-149828572D01*
X58314286Y-149828572D01*
X58428571Y-149771429D01*
X58485714Y-149714286D01*
X58542857Y-149600000D01*
X58542857Y-149314286D01*
X58485714Y-149200000D01*
X58428571Y-149142857D01*
X57342857Y-150171429D02*
X58542857Y-150571429D01*
X57342857Y-150971429D01*
X67900000Y-148585715D02*
X67842857Y-148471429D01*
X67842857Y-148300000D01*
X67900000Y-148128572D01*
X68014286Y-148014286D01*
X68128571Y-147957143D01*
X68357143Y-147900000D01*
X68528571Y-147900000D01*
X68757143Y-147957143D01*
X68871429Y-148014286D01*
X68985714Y-148128572D01*
X69042857Y-148300000D01*
X69042857Y-148414286D01*
X68985714Y-148585715D01*
X68928571Y-148642858D01*
X68528571Y-148642858D01*
X68528571Y-148414286D01*
X69042857Y-149157143D02*
X67842857Y-149157143D01*
X69042857Y-149842858D01*
X67842857Y-149842858D01*
X69042857Y-150414286D02*
X67842857Y-150414286D01*
X67842857Y-150700001D01*
X67900000Y-150871429D01*
X68014286Y-150985715D01*
X68128571Y-151042858D01*
X68357143Y-151100001D01*
X68528571Y-151100001D01*
X68757143Y-151042858D01*
X68871429Y-150985715D01*
X68985714Y-150871429D01*
X69042857Y-150700001D01*
X69042857Y-150414286D01*
X46042857Y-148757144D02*
X46042857Y-148071429D01*
X46042857Y-148414287D02*
X44842857Y-148414287D01*
X45014286Y-148300001D01*
X45128571Y-148185715D01*
X45185714Y-148071429D01*
X44957143Y-149214286D02*
X44900000Y-149271429D01*
X44842857Y-149385715D01*
X44842857Y-149671429D01*
X44900000Y-149785715D01*
X44957143Y-149842858D01*
X45071429Y-149900001D01*
X45185714Y-149900001D01*
X45357143Y-149842858D01*
X46042857Y-149157144D01*
X46042857Y-149900001D01*
X44842857Y-150242858D02*
X46042857Y-150642858D01*
X44842857Y-151042858D01*
X41342857Y-149271429D02*
X41342857Y-148700000D01*
X41914286Y-148642857D01*
X41857143Y-148700000D01*
X41800000Y-148814286D01*
X41800000Y-149100000D01*
X41857143Y-149214286D01*
X41914286Y-149271429D01*
X42028571Y-149328572D01*
X42314286Y-149328572D01*
X42428571Y-149271429D01*
X42485714Y-149214286D01*
X42542857Y-149100000D01*
X42542857Y-148814286D01*
X42485714Y-148700000D01*
X42428571Y-148642857D01*
X41342857Y-149671429D02*
X42542857Y-150071429D01*
X41342857Y-150471429D01*
X38100000Y-148585715D02*
X38042857Y-148471429D01*
X38042857Y-148300000D01*
X38100000Y-148128572D01*
X38214286Y-148014286D01*
X38328571Y-147957143D01*
X38557143Y-147900000D01*
X38728571Y-147900000D01*
X38957143Y-147957143D01*
X39071429Y-148014286D01*
X39185714Y-148128572D01*
X39242857Y-148300000D01*
X39242857Y-148414286D01*
X39185714Y-148585715D01*
X39128571Y-148642858D01*
X38728571Y-148642858D01*
X38728571Y-148414286D01*
X39242857Y-149157143D02*
X38042857Y-149157143D01*
X39242857Y-149842858D01*
X38042857Y-149842858D01*
X39242857Y-150414286D02*
X38042857Y-150414286D01*
X38042857Y-150700001D01*
X38100000Y-150871429D01*
X38214286Y-150985715D01*
X38328571Y-151042858D01*
X38557143Y-151100001D01*
X38728571Y-151100001D01*
X38957143Y-151042858D01*
X39071429Y-150985715D01*
X39185714Y-150871429D01*
X39242857Y-150700001D01*
X39242857Y-150414286D01*
X107642857Y-160750000D02*
X107785714Y-160678571D01*
X108000000Y-160678571D01*
X108214285Y-160750000D01*
X108357143Y-160892857D01*
X108428571Y-161035714D01*
X108500000Y-161321429D01*
X108500000Y-161535714D01*
X108428571Y-161821429D01*
X108357143Y-161964286D01*
X108214285Y-162107143D01*
X108000000Y-162178571D01*
X107857143Y-162178571D01*
X107642857Y-162107143D01*
X107571428Y-162035714D01*
X107571428Y-161535714D01*
X107857143Y-161535714D01*
X106928571Y-162178571D02*
X106928571Y-160678571D01*
X106071428Y-162178571D01*
X106071428Y-160678571D01*
X105357142Y-162178571D02*
X105357142Y-160678571D01*
X104999999Y-160678571D01*
X104785714Y-160750000D01*
X104642856Y-160892857D01*
X104571428Y-161035714D01*
X104499999Y-161321429D01*
X104499999Y-161535714D01*
X104571428Y-161821429D01*
X104642856Y-161964286D01*
X104785714Y-162107143D01*
X104999999Y-162178571D01*
X105357142Y-162178571D01*
X106285714Y-159678571D02*
X106285714Y-158178571D01*
X105571428Y-159678571D02*
X105571428Y-158178571D01*
X104714285Y-159678571D01*
X104714285Y-158178571D01*
X105785713Y-155678571D02*
X106499999Y-155678571D01*
X106571428Y-156392857D01*
X106499999Y-156321429D01*
X106357142Y-156250000D01*
X105999999Y-156250000D01*
X105857142Y-156321429D01*
X105785713Y-156392857D01*
X105714285Y-156535714D01*
X105714285Y-156892857D01*
X105785713Y-157035714D01*
X105857142Y-157107143D01*
X105999999Y-157178571D01*
X106357142Y-157178571D01*
X106499999Y-157107143D01*
X106571428Y-157035714D01*
X105285714Y-155678571D02*
X104785714Y-157178571D01*
X104285714Y-155678571D01*
X78285714Y-159678571D02*
X78285714Y-158178571D01*
X77571428Y-159678571D02*
X77571428Y-158178571D01*
X76714285Y-159678571D01*
X76714285Y-158178571D01*
X77142857Y-160750000D02*
X77285714Y-160678571D01*
X77500000Y-160678571D01*
X77714285Y-160750000D01*
X77857143Y-160892857D01*
X77928571Y-161035714D01*
X78000000Y-161321429D01*
X78000000Y-161535714D01*
X77928571Y-161821429D01*
X77857143Y-161964286D01*
X77714285Y-162107143D01*
X77500000Y-162178571D01*
X77357143Y-162178571D01*
X77142857Y-162107143D01*
X77071428Y-162035714D01*
X77071428Y-161535714D01*
X77357143Y-161535714D01*
X76428571Y-162178571D02*
X76428571Y-160678571D01*
X75571428Y-162178571D01*
X75571428Y-160678571D01*
X74857142Y-162178571D02*
X74857142Y-160678571D01*
X74499999Y-160678571D01*
X74285714Y-160750000D01*
X74142856Y-160892857D01*
X74071428Y-161035714D01*
X73999999Y-161321429D01*
X73999999Y-161535714D01*
X74071428Y-161821429D01*
X74142856Y-161964286D01*
X74285714Y-162107143D01*
X74499999Y-162178571D01*
X74857142Y-162178571D01*
X77285713Y-155678571D02*
X77999999Y-155678571D01*
X78071428Y-156392857D01*
X77999999Y-156321429D01*
X77857142Y-156250000D01*
X77499999Y-156250000D01*
X77357142Y-156321429D01*
X77285713Y-156392857D01*
X77214285Y-156535714D01*
X77214285Y-156892857D01*
X77285713Y-157035714D01*
X77357142Y-157107143D01*
X77499999Y-157178571D01*
X77857142Y-157178571D01*
X77999999Y-157107143D01*
X78071428Y-157035714D01*
X76785714Y-155678571D02*
X76285714Y-157178571D01*
X75785714Y-155678571D01*
X153749999Y-159535714D02*
X153821428Y-159607143D01*
X154035714Y-159678571D01*
X154178571Y-159678571D01*
X154392856Y-159607143D01*
X154535714Y-159464286D01*
X154607142Y-159321429D01*
X154678571Y-159035714D01*
X154678571Y-158821429D01*
X154607142Y-158535714D01*
X154535714Y-158392857D01*
X154392856Y-158250000D01*
X154178571Y-158178571D01*
X154035714Y-158178571D01*
X153821428Y-158250000D01*
X153749999Y-158321429D01*
X153178571Y-159607143D02*
X152964285Y-159678571D01*
X152607142Y-159678571D01*
X152464285Y-159607143D01*
X152392856Y-159535714D01*
X152321428Y-159392857D01*
X152321428Y-159250000D01*
X152392856Y-159107143D01*
X152464285Y-159035714D01*
X152607142Y-158964286D01*
X152892856Y-158892857D01*
X153035714Y-158821429D01*
X153107142Y-158750000D01*
X153178571Y-158607143D01*
X153178571Y-158464286D01*
X153107142Y-158321429D01*
X153035714Y-158250000D01*
X152892856Y-158178571D01*
X152535714Y-158178571D01*
X152321428Y-158250000D01*
X156857143Y-157178571D02*
X156857143Y-155678571D01*
X156357143Y-156750000D01*
X155857143Y-155678571D01*
X155857143Y-157178571D01*
X154857143Y-155678571D02*
X154571429Y-155678571D01*
X154428571Y-155750000D01*
X154285714Y-155892857D01*
X154214286Y-156178571D01*
X154214286Y-156678571D01*
X154285714Y-156964286D01*
X154428571Y-157107143D01*
X154571429Y-157178571D01*
X154857143Y-157178571D01*
X155000000Y-157107143D01*
X155142857Y-156964286D01*
X155214286Y-156678571D01*
X155214286Y-156178571D01*
X155142857Y-155892857D01*
X155000000Y-155750000D01*
X154857143Y-155678571D01*
X153642857Y-157107143D02*
X153428571Y-157178571D01*
X153071428Y-157178571D01*
X152928571Y-157107143D01*
X152857142Y-157035714D01*
X152785714Y-156892857D01*
X152785714Y-156750000D01*
X152857142Y-156607143D01*
X152928571Y-156535714D01*
X153071428Y-156464286D01*
X153357142Y-156392857D01*
X153500000Y-156321429D01*
X153571428Y-156250000D01*
X153642857Y-156107143D01*
X153642857Y-155964286D01*
X153571428Y-155821429D01*
X153500000Y-155750000D01*
X153357142Y-155678571D01*
X153000000Y-155678571D01*
X152785714Y-155750000D01*
X152142857Y-157178571D02*
X152142857Y-155678571D01*
X156857143Y-154678571D02*
X156857143Y-153178571D01*
X156357143Y-154250000D01*
X155857143Y-153178571D01*
X155857143Y-154678571D01*
X155142857Y-154678571D02*
X155142857Y-153178571D01*
X154500000Y-154607143D02*
X154285714Y-154678571D01*
X153928571Y-154678571D01*
X153785714Y-154607143D01*
X153714285Y-154535714D01*
X153642857Y-154392857D01*
X153642857Y-154250000D01*
X153714285Y-154107143D01*
X153785714Y-154035714D01*
X153928571Y-153964286D01*
X154214285Y-153892857D01*
X154357143Y-153821429D01*
X154428571Y-153750000D01*
X154500000Y-153607143D01*
X154500000Y-153464286D01*
X154428571Y-153321429D01*
X154357143Y-153250000D01*
X154214285Y-153178571D01*
X153857143Y-153178571D01*
X153642857Y-153250000D01*
X152714286Y-153178571D02*
X152428572Y-153178571D01*
X152285714Y-153250000D01*
X152142857Y-153392857D01*
X152071429Y-153678571D01*
X152071429Y-154178571D01*
X152142857Y-154464286D01*
X152285714Y-154607143D01*
X152428572Y-154678571D01*
X152714286Y-154678571D01*
X152857143Y-154607143D01*
X153000000Y-154464286D01*
X153071429Y-154178571D01*
X153071429Y-153678571D01*
X153000000Y-153392857D01*
X152857143Y-153250000D01*
X152714286Y-153178571D01*
X155928571Y-152107143D02*
X155714285Y-152178571D01*
X155357142Y-152178571D01*
X155214285Y-152107143D01*
X155142856Y-152035714D01*
X155071428Y-151892857D01*
X155071428Y-151750000D01*
X155142856Y-151607143D01*
X155214285Y-151535714D01*
X155357142Y-151464286D01*
X155642856Y-151392857D01*
X155785714Y-151321429D01*
X155857142Y-151250000D01*
X155928571Y-151107143D01*
X155928571Y-150964286D01*
X155857142Y-150821429D01*
X155785714Y-150750000D01*
X155642856Y-150678571D01*
X155285714Y-150678571D01*
X155071428Y-150750000D01*
X153571428Y-152035714D02*
X153642857Y-152107143D01*
X153857143Y-152178571D01*
X154000000Y-152178571D01*
X154214285Y-152107143D01*
X154357143Y-151964286D01*
X154428571Y-151821429D01*
X154500000Y-151535714D01*
X154500000Y-151321429D01*
X154428571Y-151035714D01*
X154357143Y-150892857D01*
X154214285Y-150750000D01*
X154000000Y-150678571D01*
X153857143Y-150678571D01*
X153642857Y-150750000D01*
X153571428Y-150821429D01*
X152928571Y-152178571D02*
X152928571Y-150678571D01*
X152071428Y-152178571D02*
X152714285Y-151321429D01*
X152071428Y-150678571D02*
X152928571Y-151535714D01*
X140607143Y-159678571D02*
X140607143Y-158178571D01*
X140107143Y-159250000D01*
X139607143Y-158178571D01*
X139607143Y-159678571D01*
X138892857Y-159678571D02*
X138892857Y-158178571D01*
X137321428Y-159535714D02*
X137392857Y-159607143D01*
X137607143Y-159678571D01*
X137750000Y-159678571D01*
X137964285Y-159607143D01*
X138107143Y-159464286D01*
X138178571Y-159321429D01*
X138250000Y-159035714D01*
X138250000Y-158821429D01*
X138178571Y-158535714D01*
X138107143Y-158392857D01*
X137964285Y-158250000D01*
X137750000Y-158178571D01*
X137607143Y-158178571D01*
X137392857Y-158250000D01*
X137321428Y-158321429D01*
X132249999Y-159678571D02*
X132749999Y-158964286D01*
X133107142Y-159678571D02*
X133107142Y-158178571D01*
X132535714Y-158178571D01*
X132392856Y-158250000D01*
X132321428Y-158321429D01*
X132249999Y-158464286D01*
X132249999Y-158678571D01*
X132321428Y-158821429D01*
X132392856Y-158892857D01*
X132535714Y-158964286D01*
X133107142Y-158964286D01*
X131749999Y-158178571D02*
X130749999Y-159678571D01*
X130749999Y-158178571D02*
X131749999Y-159678571D01*
X133142857Y-155678571D02*
X132285714Y-155678571D01*
X132714285Y-157178571D02*
X132714285Y-155678571D01*
X131928571Y-155678571D02*
X130928571Y-157178571D01*
X130928571Y-155678571D02*
X131928571Y-157178571D01*
X125428571Y-158321429D02*
X125357142Y-158250000D01*
X125214285Y-158178571D01*
X124857142Y-158178571D01*
X124714285Y-158250000D01*
X124642856Y-158321429D01*
X124571428Y-158464286D01*
X124571428Y-158607143D01*
X124642856Y-158821429D01*
X125499999Y-159678571D01*
X124571428Y-159678571D01*
X124571428Y-156678571D02*
X125428571Y-156678571D01*
X124999999Y-156678571D02*
X124999999Y-155178571D01*
X125142856Y-155392857D01*
X125285714Y-155535714D01*
X125428571Y-155607143D01*
X118285714Y-159607143D02*
X118071428Y-159678571D01*
X117714285Y-159678571D01*
X117571428Y-159607143D01*
X117499999Y-159535714D01*
X117428571Y-159392857D01*
X117428571Y-159250000D01*
X117499999Y-159107143D01*
X117571428Y-159035714D01*
X117714285Y-158964286D01*
X117999999Y-158892857D01*
X118142857Y-158821429D01*
X118214285Y-158750000D01*
X118285714Y-158607143D01*
X118285714Y-158464286D01*
X118214285Y-158321429D01*
X118142857Y-158250000D01*
X117999999Y-158178571D01*
X117642857Y-158178571D01*
X117428571Y-158250000D01*
X115928571Y-159535714D02*
X116000000Y-159607143D01*
X116214286Y-159678571D01*
X116357143Y-159678571D01*
X116571428Y-159607143D01*
X116714286Y-159464286D01*
X116785714Y-159321429D01*
X116857143Y-159035714D01*
X116857143Y-158821429D01*
X116785714Y-158535714D01*
X116714286Y-158392857D01*
X116571428Y-158250000D01*
X116357143Y-158178571D01*
X116214286Y-158178571D01*
X116000000Y-158250000D01*
X115928571Y-158321429D01*
X114571428Y-159678571D02*
X115285714Y-159678571D01*
X115285714Y-158178571D01*
X118321428Y-157107143D02*
X118107142Y-157178571D01*
X117749999Y-157178571D01*
X117607142Y-157107143D01*
X117535713Y-157035714D01*
X117464285Y-156892857D01*
X117464285Y-156750000D01*
X117535713Y-156607143D01*
X117607142Y-156535714D01*
X117749999Y-156464286D01*
X118035713Y-156392857D01*
X118178571Y-156321429D01*
X118249999Y-156250000D01*
X118321428Y-156107143D01*
X118321428Y-155964286D01*
X118249999Y-155821429D01*
X118178571Y-155750000D01*
X118035713Y-155678571D01*
X117678571Y-155678571D01*
X117464285Y-155750000D01*
X116821428Y-157178571D02*
X116821428Y-155678571D01*
X116464285Y-155678571D01*
X116250000Y-155750000D01*
X116107142Y-155892857D01*
X116035714Y-156035714D01*
X115964285Y-156321429D01*
X115964285Y-156535714D01*
X116035714Y-156821429D01*
X116107142Y-156964286D01*
X116250000Y-157107143D01*
X116464285Y-157178571D01*
X116821428Y-157178571D01*
X115392857Y-156750000D02*
X114678571Y-156750000D01*
X115535714Y-157178571D02*
X115035714Y-155678571D01*
X114535714Y-157178571D01*
D12*
X151000000Y-149000000D02*
X152000000Y-149000000D01*
D11*
X155857142Y-148178571D02*
X154928571Y-148178571D01*
X155428571Y-148750000D01*
X155214285Y-148750000D01*
X155071428Y-148821429D01*
X154999999Y-148892857D01*
X154928571Y-149035714D01*
X154928571Y-149392857D01*
X154999999Y-149535714D01*
X155071428Y-149607143D01*
X155214285Y-149678571D01*
X155642857Y-149678571D01*
X155785714Y-149607143D01*
X155857142Y-149535714D01*
X154500000Y-148178571D02*
X154000000Y-149678571D01*
X153500000Y-148178571D01*
X153142857Y-148178571D02*
X152214286Y-148178571D01*
X152714286Y-148750000D01*
X152500000Y-148750000D01*
X152357143Y-148821429D01*
X152285714Y-148892857D01*
X152214286Y-149035714D01*
X152214286Y-149392857D01*
X152285714Y-149535714D01*
X152357143Y-149607143D01*
X152500000Y-149678571D01*
X152928572Y-149678571D01*
X153071429Y-149607143D01*
X153142857Y-149535714D01*
D12*
X143500000Y-156500000D02*
X149000000Y-149000000D01*
X136000000Y-154000000D02*
X141500000Y-156500000D01*
X128500000Y-154000000D02*
X134000000Y-154000000D01*
X121000000Y-154000000D02*
X126500000Y-154000000D01*
X118000000Y-154000000D02*
X119000000Y-154000000D01*
D11*
X117857142Y-153178571D02*
X116928571Y-153178571D01*
X117428571Y-153750000D01*
X117214285Y-153750000D01*
X117071428Y-153821429D01*
X116999999Y-153892857D01*
X116928571Y-154035714D01*
X116928571Y-154392857D01*
X116999999Y-154535714D01*
X117071428Y-154607143D01*
X117214285Y-154678571D01*
X117642857Y-154678571D01*
X117785714Y-154607143D01*
X117857142Y-154535714D01*
X116500000Y-153178571D02*
X116000000Y-154678571D01*
X115500000Y-153178571D01*
X115142857Y-153178571D02*
X114214286Y-153178571D01*
X114714286Y-153750000D01*
X114500000Y-153750000D01*
X114357143Y-153821429D01*
X114285714Y-153892857D01*
X114214286Y-154035714D01*
X114214286Y-154392857D01*
X114285714Y-154535714D01*
X114357143Y-154607143D01*
X114500000Y-154678571D01*
X114928572Y-154678571D01*
X115071429Y-154607143D01*
X115142857Y-154535714D01*
X121464285Y-151678571D02*
X121464285Y-150178571D01*
X120821428Y-150321429D02*
X120749999Y-150250000D01*
X120607142Y-150178571D01*
X120249999Y-150178571D01*
X120107142Y-150250000D01*
X120035713Y-150321429D01*
X119964285Y-150464286D01*
X119964285Y-150607143D01*
X120035713Y-150821429D01*
X120892856Y-151678571D01*
X119964285Y-151678571D01*
X118464285Y-151535714D02*
X118535714Y-151607143D01*
X118750000Y-151678571D01*
X118892857Y-151678571D01*
X119107142Y-151607143D01*
X119250000Y-151464286D01*
X119321428Y-151321429D01*
X119392857Y-151035714D01*
X119392857Y-150821429D01*
X119321428Y-150535714D01*
X119250000Y-150392857D01*
X119107142Y-150250000D01*
X118892857Y-150178571D01*
X118750000Y-150178571D01*
X118535714Y-150250000D01*
X118464285Y-150321429D01*
X129357143Y-151250000D02*
X128642857Y-151250000D01*
X129500000Y-151678571D02*
X129000000Y-150178571D01*
X128500000Y-151678571D01*
X128000000Y-150178571D02*
X128000000Y-151392857D01*
X127928572Y-151535714D01*
X127857143Y-151607143D01*
X127714286Y-151678571D01*
X127428572Y-151678571D01*
X127285714Y-151607143D01*
X127214286Y-151535714D01*
X127142857Y-151392857D01*
X127142857Y-150178571D01*
X126571428Y-150178571D02*
X125571428Y-151678571D01*
X125571428Y-150178571D02*
X126571428Y-151678571D01*
X137392857Y-150178571D02*
X137392857Y-151392857D01*
X137321429Y-151535714D01*
X137250000Y-151607143D01*
X137107143Y-151678571D01*
X136821429Y-151678571D01*
X136678571Y-151607143D01*
X136607143Y-151535714D01*
X136535714Y-151392857D01*
X136535714Y-150178571D01*
X135892857Y-151250000D02*
X135178571Y-151250000D01*
X136035714Y-151678571D02*
X135535714Y-150178571D01*
X135035714Y-151678571D01*
X133678571Y-151678571D02*
X134178571Y-150964286D01*
X134535714Y-151678571D02*
X134535714Y-150178571D01*
X133964286Y-150178571D01*
X133821428Y-150250000D01*
X133750000Y-150321429D01*
X133678571Y-150464286D01*
X133678571Y-150678571D01*
X133750000Y-150821429D01*
X133821428Y-150892857D01*
X133964286Y-150964286D01*
X134535714Y-150964286D01*
X133250000Y-150178571D02*
X132392857Y-150178571D01*
X132821428Y-151678571D02*
X132821428Y-150178571D01*
X144107143Y-154178571D02*
X144107143Y-152678571D01*
X143607143Y-153750000D01*
X143107143Y-152678571D01*
X143107143Y-154178571D01*
X142392857Y-154178571D02*
X142392857Y-152678571D01*
X140821428Y-154035714D02*
X140892857Y-154107143D01*
X141107143Y-154178571D01*
X141250000Y-154178571D01*
X141464285Y-154107143D01*
X141607143Y-153964286D01*
X141678571Y-153821429D01*
X141750000Y-153535714D01*
X141750000Y-153321429D01*
X141678571Y-153035714D01*
X141607143Y-152892857D01*
X141464285Y-152750000D01*
X141250000Y-152678571D01*
X141107143Y-152678571D01*
X140892857Y-152750000D01*
X140821428Y-152821429D01*
X151535714Y-146607143D02*
X151321428Y-146678571D01*
X150964285Y-146678571D01*
X150821428Y-146607143D01*
X150749999Y-146535714D01*
X150678571Y-146392857D01*
X150678571Y-146250000D01*
X150749999Y-146107143D01*
X150821428Y-146035714D01*
X150964285Y-145964286D01*
X151249999Y-145892857D01*
X151392857Y-145821429D01*
X151464285Y-145750000D01*
X151535714Y-145607143D01*
X151535714Y-145464286D01*
X151464285Y-145321429D01*
X151392857Y-145250000D01*
X151249999Y-145178571D01*
X150892857Y-145178571D01*
X150678571Y-145250000D01*
X150035714Y-146678571D02*
X150035714Y-145178571D01*
X149464286Y-145178571D01*
X149321428Y-145250000D01*
X149250000Y-145321429D01*
X149178571Y-145464286D01*
X149178571Y-145678571D01*
X149250000Y-145821429D01*
X149321428Y-145892857D01*
X149464286Y-145964286D01*
X150035714Y-145964286D01*
X148535714Y-146678571D02*
X148535714Y-145178571D01*
D12*
X119000000Y-161500000D02*
X118500000Y-161500000D01*
X151000000Y-161500000D02*
X151500000Y-161500000D01*
X143500000Y-161500000D02*
X149000000Y-161500000D01*
X136000000Y-161500000D02*
X141500000Y-161500000D01*
X129000000Y-161500000D02*
X134000000Y-161500000D01*
X121000000Y-161500000D02*
X126500000Y-161500000D01*
D11*
X117142857Y-160750000D02*
X117285714Y-160678571D01*
X117500000Y-160678571D01*
X117714285Y-160750000D01*
X117857143Y-160892857D01*
X117928571Y-161035714D01*
X118000000Y-161321429D01*
X118000000Y-161535714D01*
X117928571Y-161821429D01*
X117857143Y-161964286D01*
X117714285Y-162107143D01*
X117500000Y-162178571D01*
X117357143Y-162178571D01*
X117142857Y-162107143D01*
X117071428Y-162035714D01*
X117071428Y-161535714D01*
X117357143Y-161535714D01*
X116428571Y-162178571D02*
X116428571Y-160678571D01*
X115571428Y-162178571D01*
X115571428Y-160678571D01*
X114857142Y-162178571D02*
X114857142Y-160678571D01*
X114499999Y-160678571D01*
X114285714Y-160750000D01*
X114142856Y-160892857D01*
X114071428Y-161035714D01*
X113999999Y-161321429D01*
X113999999Y-161535714D01*
X114071428Y-161821429D01*
X114142856Y-161964286D01*
X114285714Y-162107143D01*
X114499999Y-162178571D01*
X114857142Y-162178571D01*
X155142857Y-160750000D02*
X155285714Y-160678571D01*
X155500000Y-160678571D01*
X155714285Y-160750000D01*
X155857143Y-160892857D01*
X155928571Y-161035714D01*
X156000000Y-161321429D01*
X156000000Y-161535714D01*
X155928571Y-161821429D01*
X155857143Y-161964286D01*
X155714285Y-162107143D01*
X155500000Y-162178571D01*
X155357143Y-162178571D01*
X155142857Y-162107143D01*
X155071428Y-162035714D01*
X155071428Y-161535714D01*
X155357143Y-161535714D01*
X154428571Y-162178571D02*
X154428571Y-160678571D01*
X153571428Y-162178571D01*
X153571428Y-160678571D01*
X152857142Y-162178571D02*
X152857142Y-160678571D01*
X152499999Y-160678571D01*
X152285714Y-160750000D01*
X152142856Y-160892857D01*
X152071428Y-161035714D01*
X151999999Y-161321429D01*
X151999999Y-161535714D01*
X152071428Y-161821429D01*
X152142856Y-161964286D01*
X152285714Y-162107143D01*
X152499999Y-162178571D01*
X152857142Y-162178571D01*
D12*
X80000000Y-152000000D02*
X102500000Y-152000000D01*
D11*
X79571428Y-154178571D02*
X80428571Y-154178571D01*
X79999999Y-154178571D02*
X79999999Y-152678571D01*
X80142856Y-152892857D01*
X80285714Y-153035714D01*
X80428571Y-153107143D01*
X87928571Y-152821429D02*
X87857142Y-152750000D01*
X87714285Y-152678571D01*
X87357142Y-152678571D01*
X87214285Y-152750000D01*
X87142856Y-152821429D01*
X87071428Y-152964286D01*
X87071428Y-153107143D01*
X87142856Y-153321429D01*
X87999999Y-154178571D01*
X87071428Y-154178571D01*
X95499999Y-152678571D02*
X94571428Y-152678571D01*
X95071428Y-153250000D01*
X94857142Y-153250000D01*
X94714285Y-153321429D01*
X94642856Y-153392857D01*
X94571428Y-153535714D01*
X94571428Y-153892857D01*
X94642856Y-154035714D01*
X94714285Y-154107143D01*
X94857142Y-154178571D01*
X95285714Y-154178571D01*
X95428571Y-154107143D01*
X95499999Y-154035714D01*
X102214285Y-153178571D02*
X102214285Y-154178571D01*
X102571428Y-152607143D02*
X102928571Y-153678571D01*
X101999999Y-153678571D01*
X96047619Y-150404762D02*
X96047619Y-148404762D01*
X95380952Y-149833333D01*
X94714285Y-148404762D01*
X94714285Y-150404762D01*
X93380952Y-148404762D02*
X93000000Y-148404762D01*
X92809524Y-148500000D01*
X92619047Y-148690476D01*
X92523809Y-149071429D01*
X92523809Y-149738095D01*
X92619047Y-150119048D01*
X92809524Y-150309524D01*
X93000000Y-150404762D01*
X93380952Y-150404762D01*
X93571428Y-150309524D01*
X93761905Y-150119048D01*
X93857143Y-149738095D01*
X93857143Y-149071429D01*
X93761905Y-148690476D01*
X93571428Y-148500000D01*
X93380952Y-148404762D01*
X91952381Y-148404762D02*
X90809524Y-148404762D01*
X91380952Y-150404762D02*
X91380952Y-148404762D01*
X90142857Y-150404762D02*
X90142857Y-148404762D01*
X88809523Y-148404762D02*
X88428571Y-148404762D01*
X88238095Y-148500000D01*
X88047618Y-148690476D01*
X87952380Y-149071429D01*
X87952380Y-149738095D01*
X88047618Y-150119048D01*
X88238095Y-150309524D01*
X88428571Y-150404762D01*
X88809523Y-150404762D01*
X88999999Y-150309524D01*
X89190476Y-150119048D01*
X89285714Y-149738095D01*
X89285714Y-149071429D01*
X89190476Y-148690476D01*
X88999999Y-148500000D01*
X88809523Y-148404762D01*
X87095238Y-150404762D02*
X87095238Y-148404762D01*
X85952380Y-150404762D01*
X85952380Y-148404762D01*
D12*
X183500000Y-109500000D02*
X183500000Y-118500000D01*
X183500000Y-70500000D02*
X183500000Y-79000000D01*
X183500000Y-56000000D02*
X183500000Y-64500000D01*
D11*
X181404762Y-57309523D02*
X179404762Y-57309523D01*
X181404762Y-58452381D01*
X179404762Y-58452381D01*
X180357143Y-59404761D02*
X180357143Y-60071428D01*
X181404762Y-60357142D02*
X181404762Y-59404761D01*
X179404762Y-59404761D01*
X179404762Y-60357142D01*
X179404762Y-61023809D02*
X181404762Y-62357143D01*
X179404762Y-62357143D02*
X181404762Y-61023809D01*
X179404762Y-62833333D02*
X179404762Y-63976190D01*
X181404762Y-63404762D02*
X179404762Y-63404762D01*
X181404762Y-71714285D02*
X179404762Y-71714285D01*
X179404762Y-72476190D01*
X179500000Y-72666666D01*
X179595238Y-72761905D01*
X179785714Y-72857143D01*
X180071429Y-72857143D01*
X180261905Y-72761905D01*
X180357143Y-72666666D01*
X180452381Y-72476190D01*
X180452381Y-71714285D01*
X181404762Y-74857143D02*
X180452381Y-74190476D01*
X181404762Y-73714285D02*
X179404762Y-73714285D01*
X179404762Y-74476190D01*
X179500000Y-74666666D01*
X179595238Y-74761905D01*
X179785714Y-74857143D01*
X180071429Y-74857143D01*
X180261905Y-74761905D01*
X180357143Y-74666666D01*
X180452381Y-74476190D01*
X180452381Y-73714285D01*
X180357143Y-75714285D02*
X180357143Y-76380952D01*
X181404762Y-76666666D02*
X181404762Y-75714285D01*
X179404762Y-75714285D01*
X179404762Y-76666666D01*
X179404762Y-77238095D02*
X181404762Y-77904762D01*
X179404762Y-78571429D01*
X197809524Y-102404762D02*
X197428572Y-102404762D01*
X197238096Y-102500000D01*
X197047619Y-102690476D01*
X196952381Y-103071429D01*
X196952381Y-103738095D01*
X197047619Y-104119048D01*
X197238096Y-104309524D01*
X197428572Y-104404762D01*
X197809524Y-104404762D01*
X198000000Y-104309524D01*
X198190477Y-104119048D01*
X198285715Y-103738095D01*
X198285715Y-103071429D01*
X198190477Y-102690476D01*
X198000000Y-102500000D01*
X197809524Y-102404762D01*
X196095239Y-104404762D02*
X196095239Y-102404762D01*
X194952381Y-104404762D01*
X194952381Y-102404762D01*
X191809524Y-103357143D02*
X191523810Y-103452381D01*
X191428571Y-103547619D01*
X191333333Y-103738095D01*
X191333333Y-104023810D01*
X191428571Y-104214286D01*
X191523810Y-104309524D01*
X191714286Y-104404762D01*
X192476191Y-104404762D01*
X192476191Y-102404762D01*
X191809524Y-102404762D01*
X191619048Y-102500000D01*
X191523810Y-102595238D01*
X191428571Y-102785714D01*
X191428571Y-102976190D01*
X191523810Y-103166667D01*
X191619048Y-103261905D01*
X191809524Y-103357143D01*
X192476191Y-103357143D01*
X190761905Y-102404762D02*
X189619048Y-102404762D01*
X190190476Y-104404762D02*
X190190476Y-102404762D01*
X188952381Y-104404762D02*
X188952381Y-102404762D01*
X187809523Y-104404762D01*
X187809523Y-102404762D01*
X55309524Y-152476190D02*
X55404762Y-152761905D01*
X55404762Y-153238095D01*
X55309524Y-153428571D01*
X55214286Y-153523809D01*
X55023810Y-153619048D01*
X54833333Y-153619048D01*
X54642857Y-153523809D01*
X54547619Y-153428571D01*
X54452381Y-153238095D01*
X54357143Y-152857143D01*
X54261905Y-152666667D01*
X54166667Y-152571428D01*
X53976190Y-152476190D01*
X53785714Y-152476190D01*
X53595238Y-152571428D01*
X53500000Y-152666667D01*
X53404762Y-152857143D01*
X53404762Y-153333333D01*
X53500000Y-153619048D01*
X55404762Y-154476190D02*
X53404762Y-154476190D01*
X53404762Y-155238095D01*
X53500000Y-155428571D01*
X53595238Y-155523810D01*
X53785714Y-155619048D01*
X54071429Y-155619048D01*
X54261905Y-155523810D01*
X54357143Y-155428571D01*
X54452381Y-155238095D01*
X54452381Y-154476190D01*
X55404762Y-156476190D02*
X53404762Y-156476190D01*
X55404762Y-159904762D02*
X55404762Y-158952381D01*
X53404762Y-158952381D01*
X54357143Y-160571429D02*
X54357143Y-161238096D01*
X55404762Y-161523810D02*
X55404762Y-160571429D01*
X53404762Y-160571429D01*
X53404762Y-161523810D01*
X55404762Y-162380953D02*
X53404762Y-162380953D01*
X53404762Y-162857144D01*
X53500000Y-163142858D01*
X53690476Y-163333334D01*
X53880952Y-163428573D01*
X54261905Y-163523811D01*
X54547619Y-163523811D01*
X54928571Y-163428573D01*
X55119048Y-163333334D01*
X55309524Y-163142858D01*
X55404762Y-162857144D01*
X55404762Y-162380953D01*
X35904762Y-153380952D02*
X33904762Y-153380952D01*
X33904762Y-154142857D01*
X34000000Y-154333333D01*
X34095238Y-154428572D01*
X34285714Y-154523810D01*
X34571429Y-154523810D01*
X34761905Y-154428572D01*
X34857143Y-154333333D01*
X34952381Y-154142857D01*
X34952381Y-153380952D01*
X33904762Y-155761905D02*
X33904762Y-156142857D01*
X34000000Y-156333333D01*
X34190476Y-156523810D01*
X34571429Y-156619048D01*
X35238095Y-156619048D01*
X35619048Y-156523810D01*
X35809524Y-156333333D01*
X35904762Y-156142857D01*
X35904762Y-155761905D01*
X35809524Y-155571429D01*
X35619048Y-155380952D01*
X35238095Y-155285714D01*
X34571429Y-155285714D01*
X34190476Y-155380952D01*
X34000000Y-155571429D01*
X33904762Y-155761905D01*
X33904762Y-157285714D02*
X35904762Y-157761905D01*
X34476190Y-158142857D01*
X35904762Y-158523810D01*
X33904762Y-159000000D01*
X34857143Y-159761904D02*
X34857143Y-160428571D01*
X35904762Y-160714285D02*
X35904762Y-159761904D01*
X33904762Y-159761904D01*
X33904762Y-160714285D01*
X35904762Y-162714286D02*
X34952381Y-162047619D01*
X35904762Y-161571428D02*
X33904762Y-161571428D01*
X33904762Y-162333333D01*
X34000000Y-162523809D01*
X34095238Y-162619048D01*
X34285714Y-162714286D01*
X34571429Y-162714286D01*
X34761905Y-162619048D01*
X34857143Y-162523809D01*
X34952381Y-162333333D01*
X34952381Y-161571428D01*
D12*
X42500000Y-124500000D02*
X42500000Y-133500000D01*
X42500000Y-104000000D02*
X42500000Y-112500000D01*
D11*
X53666667Y-127904762D02*
X52523810Y-127904762D01*
X53095238Y-129904762D02*
X53095238Y-127904762D01*
X51857143Y-128857143D02*
X51190476Y-128857143D01*
X50904762Y-129904762D02*
X51857143Y-129904762D01*
X51857143Y-127904762D01*
X50904762Y-127904762D01*
X50047619Y-129904762D02*
X50047619Y-127904762D01*
X49380952Y-129333333D01*
X48714285Y-127904762D01*
X48714285Y-129904762D01*
X47761905Y-129904762D02*
X47761905Y-127904762D01*
X47000000Y-127904762D01*
X46809524Y-128000000D01*
X46714285Y-128095238D01*
X46619047Y-128285714D01*
X46619047Y-128571429D01*
X46714285Y-128761905D01*
X46809524Y-128857143D01*
X47000000Y-128952381D01*
X47761905Y-128952381D01*
X45380952Y-127904762D02*
X45000000Y-127904762D01*
X44809524Y-128000000D01*
X44619047Y-128190476D01*
X44523809Y-128571429D01*
X44523809Y-129238095D01*
X44619047Y-129619048D01*
X44809524Y-129809524D01*
X45000000Y-129904762D01*
X45380952Y-129904762D01*
X45571428Y-129809524D01*
X45761905Y-129619048D01*
X45857143Y-129238095D01*
X45857143Y-128571429D01*
X45761905Y-128190476D01*
X45571428Y-128000000D01*
X45380952Y-127904762D01*
X62071429Y-106904762D02*
X61690477Y-106904762D01*
X61500001Y-107000000D01*
X61309524Y-107190476D01*
X61214286Y-107571429D01*
X61214286Y-108238095D01*
X61309524Y-108619048D01*
X61500001Y-108809524D01*
X61690477Y-108904762D01*
X62071429Y-108904762D01*
X62261905Y-108809524D01*
X62452382Y-108619048D01*
X62547620Y-108238095D01*
X62547620Y-107571429D01*
X62452382Y-107190476D01*
X62261905Y-107000000D01*
X62071429Y-106904762D01*
X59214286Y-108904762D02*
X59880953Y-107952381D01*
X60357144Y-108904762D02*
X60357144Y-106904762D01*
X59595239Y-106904762D01*
X59404763Y-107000000D01*
X59309524Y-107095238D01*
X59214286Y-107285714D01*
X59214286Y-107571429D01*
X59309524Y-107761905D01*
X59404763Y-107857143D01*
X59595239Y-107952381D01*
X60357144Y-107952381D01*
X58357144Y-108904762D02*
X58357144Y-106904762D01*
X57404763Y-107857143D02*
X56738096Y-107857143D01*
X56452382Y-108904762D02*
X57404763Y-108904762D01*
X57404763Y-106904762D01*
X56452382Y-106904762D01*
X55595239Y-108904762D02*
X55595239Y-106904762D01*
X54452381Y-108904762D01*
X54452381Y-106904762D01*
X53785715Y-106904762D02*
X52642858Y-106904762D01*
X53214286Y-108904762D02*
X53214286Y-106904762D01*
X52071429Y-108333333D02*
X51119048Y-108333333D01*
X52261905Y-108904762D02*
X51595238Y-106904762D01*
X50928571Y-108904762D01*
X50547619Y-106904762D02*
X49404762Y-106904762D01*
X49976190Y-108904762D02*
X49976190Y-106904762D01*
X48738095Y-108904762D02*
X48738095Y-106904762D01*
X47404761Y-106904762D02*
X47023809Y-106904762D01*
X46833333Y-107000000D01*
X46642856Y-107190476D01*
X46547618Y-107571429D01*
X46547618Y-108238095D01*
X46642856Y-108619048D01*
X46833333Y-108809524D01*
X47023809Y-108904762D01*
X47404761Y-108904762D01*
X47595237Y-108809524D01*
X47785714Y-108619048D01*
X47880952Y-108238095D01*
X47880952Y-107571429D01*
X47785714Y-107190476D01*
X47595237Y-107000000D01*
X47404761Y-106904762D01*
X45690476Y-108904762D02*
X45690476Y-106904762D01*
X44547618Y-108904762D01*
X44547618Y-106904762D01*
X187250000Y-56567857D02*
X187035714Y-56639286D01*
X186964286Y-56710714D01*
X186892857Y-56853571D01*
X186892857Y-57067857D01*
X186964286Y-57210714D01*
X187035714Y-57282143D01*
X187178572Y-57353571D01*
X187750000Y-57353571D01*
X187750000Y-55853571D01*
X187250000Y-55853571D01*
X187107143Y-55925000D01*
X187035714Y-55996429D01*
X186964286Y-56139286D01*
X186964286Y-56282143D01*
X187035714Y-56425000D01*
X187107143Y-56496429D01*
X187250000Y-56567857D01*
X187750000Y-56567857D01*
X186464286Y-55853571D02*
X185607143Y-55853571D01*
X186035714Y-57353571D02*
X186035714Y-55853571D01*
X185107143Y-57353571D02*
X185107143Y-55853571D01*
X184250000Y-57353571D01*
X184250000Y-55853571D01*
X187142857Y-58475000D02*
X187285714Y-58403571D01*
X187500000Y-58403571D01*
X187714285Y-58475000D01*
X187857143Y-58617857D01*
X187928571Y-58760714D01*
X188000000Y-59046429D01*
X188000000Y-59260714D01*
X187928571Y-59546429D01*
X187857143Y-59689286D01*
X187714285Y-59832143D01*
X187500000Y-59903571D01*
X187357143Y-59903571D01*
X187142857Y-59832143D01*
X187071428Y-59760714D01*
X187071428Y-59260714D01*
X187357143Y-59260714D01*
X186428571Y-59903571D02*
X186428571Y-58403571D01*
X185571428Y-59903571D01*
X185571428Y-58403571D01*
X184857142Y-59903571D02*
X184857142Y-58403571D01*
X184499999Y-58403571D01*
X184285714Y-58475000D01*
X184142856Y-58617857D01*
X184071428Y-58760714D01*
X183999999Y-59046429D01*
X183999999Y-59260714D01*
X184071428Y-59546429D01*
X184142856Y-59689286D01*
X184285714Y-59832143D01*
X184499999Y-59903571D01*
X184857142Y-59903571D01*
X186964285Y-62453571D02*
X187678571Y-62453571D01*
X187678571Y-60953571D01*
X186464285Y-61667857D02*
X185964285Y-61667857D01*
X185749999Y-62453571D02*
X186464285Y-62453571D01*
X186464285Y-60953571D01*
X185749999Y-60953571D01*
X185107142Y-62453571D02*
X185107142Y-60953571D01*
X184749999Y-60953571D01*
X184535714Y-61025000D01*
X184392856Y-61167857D01*
X184321428Y-61310714D01*
X184249999Y-61596429D01*
X184249999Y-61810714D01*
X184321428Y-62096429D01*
X184392856Y-62239286D01*
X184535714Y-62382143D01*
X184749999Y-62453571D01*
X185107142Y-62453571D01*
X187142857Y-63575000D02*
X187285714Y-63503571D01*
X187500000Y-63503571D01*
X187714285Y-63575000D01*
X187857143Y-63717857D01*
X187928571Y-63860714D01*
X188000000Y-64146429D01*
X188000000Y-64360714D01*
X187928571Y-64646429D01*
X187857143Y-64789286D01*
X187714285Y-64932143D01*
X187500000Y-65003571D01*
X187357143Y-65003571D01*
X187142857Y-64932143D01*
X187071428Y-64860714D01*
X187071428Y-64360714D01*
X187357143Y-64360714D01*
X186428571Y-65003571D02*
X186428571Y-63503571D01*
X185571428Y-65003571D01*
X185571428Y-63503571D01*
X184857142Y-65003571D02*
X184857142Y-63503571D01*
X184499999Y-63503571D01*
X184285714Y-63575000D01*
X184142856Y-63717857D01*
X184071428Y-63860714D01*
X183999999Y-64146429D01*
X183999999Y-64360714D01*
X184071428Y-64646429D01*
X184142856Y-64789286D01*
X184285714Y-64932143D01*
X184499999Y-65003571D01*
X184857142Y-65003571D01*
X187250000Y-71067857D02*
X187035714Y-71139286D01*
X186964286Y-71210714D01*
X186892857Y-71353571D01*
X186892857Y-71567857D01*
X186964286Y-71710714D01*
X187035714Y-71782143D01*
X187178572Y-71853571D01*
X187750000Y-71853571D01*
X187750000Y-70353571D01*
X187250000Y-70353571D01*
X187107143Y-70425000D01*
X187035714Y-70496429D01*
X186964286Y-70639286D01*
X186964286Y-70782143D01*
X187035714Y-70925000D01*
X187107143Y-70996429D01*
X187250000Y-71067857D01*
X187750000Y-71067857D01*
X186464286Y-70353571D02*
X185607143Y-70353571D01*
X186035714Y-71853571D02*
X186035714Y-70353571D01*
X185107143Y-71853571D02*
X185107143Y-70353571D01*
X184250000Y-71853571D01*
X184250000Y-70353571D01*
X187142857Y-72975000D02*
X187285714Y-72903571D01*
X187500000Y-72903571D01*
X187714285Y-72975000D01*
X187857143Y-73117857D01*
X187928571Y-73260714D01*
X188000000Y-73546429D01*
X188000000Y-73760714D01*
X187928571Y-74046429D01*
X187857143Y-74189286D01*
X187714285Y-74332143D01*
X187500000Y-74403571D01*
X187357143Y-74403571D01*
X187142857Y-74332143D01*
X187071428Y-74260714D01*
X187071428Y-73760714D01*
X187357143Y-73760714D01*
X186428571Y-74403571D02*
X186428571Y-72903571D01*
X185571428Y-74403571D01*
X185571428Y-72903571D01*
X184857142Y-74403571D02*
X184857142Y-72903571D01*
X184499999Y-72903571D01*
X184285714Y-72975000D01*
X184142856Y-73117857D01*
X184071428Y-73260714D01*
X183999999Y-73546429D01*
X183999999Y-73760714D01*
X184071428Y-74046429D01*
X184142856Y-74189286D01*
X184285714Y-74332143D01*
X184499999Y-74403571D01*
X184857142Y-74403571D01*
X186964285Y-76953571D02*
X187678571Y-76953571D01*
X187678571Y-75453571D01*
X186464285Y-76167857D02*
X185964285Y-76167857D01*
X185749999Y-76953571D02*
X186464285Y-76953571D01*
X186464285Y-75453571D01*
X185749999Y-75453571D01*
X185107142Y-76953571D02*
X185107142Y-75453571D01*
X184749999Y-75453571D01*
X184535714Y-75525000D01*
X184392856Y-75667857D01*
X184321428Y-75810714D01*
X184249999Y-76096429D01*
X184249999Y-76310714D01*
X184321428Y-76596429D01*
X184392856Y-76739286D01*
X184535714Y-76882143D01*
X184749999Y-76953571D01*
X185107142Y-76953571D01*
X187142857Y-78075000D02*
X187285714Y-78003571D01*
X187500000Y-78003571D01*
X187714285Y-78075000D01*
X187857143Y-78217857D01*
X187928571Y-78360714D01*
X188000000Y-78646429D01*
X188000000Y-78860714D01*
X187928571Y-79146429D01*
X187857143Y-79289286D01*
X187714285Y-79432143D01*
X187500000Y-79503571D01*
X187357143Y-79503571D01*
X187142857Y-79432143D01*
X187071428Y-79360714D01*
X187071428Y-78860714D01*
X187357143Y-78860714D01*
X186428571Y-79503571D02*
X186428571Y-78003571D01*
X185571428Y-79503571D01*
X185571428Y-78003571D01*
X184857142Y-79503571D02*
X184857142Y-78003571D01*
X184499999Y-78003571D01*
X184285714Y-78075000D01*
X184142856Y-78217857D01*
X184071428Y-78360714D01*
X183999999Y-78646429D01*
X183999999Y-78860714D01*
X184071428Y-79146429D01*
X184142856Y-79289286D01*
X184285714Y-79432143D01*
X184499999Y-79503571D01*
X184857142Y-79503571D01*
X187250000Y-110067857D02*
X187035714Y-110139286D01*
X186964286Y-110210714D01*
X186892857Y-110353571D01*
X186892857Y-110567857D01*
X186964286Y-110710714D01*
X187035714Y-110782143D01*
X187178572Y-110853571D01*
X187750000Y-110853571D01*
X187750000Y-109353571D01*
X187250000Y-109353571D01*
X187107143Y-109425000D01*
X187035714Y-109496429D01*
X186964286Y-109639286D01*
X186964286Y-109782143D01*
X187035714Y-109925000D01*
X187107143Y-109996429D01*
X187250000Y-110067857D01*
X187750000Y-110067857D01*
X186464286Y-109353571D02*
X185607143Y-109353571D01*
X186035714Y-110853571D02*
X186035714Y-109353571D01*
X185107143Y-110853571D02*
X185107143Y-109353571D01*
X184250000Y-110853571D01*
X184250000Y-109353571D01*
X187142857Y-111975000D02*
X187285714Y-111903571D01*
X187500000Y-111903571D01*
X187714285Y-111975000D01*
X187857143Y-112117857D01*
X187928571Y-112260714D01*
X188000000Y-112546429D01*
X188000000Y-112760714D01*
X187928571Y-113046429D01*
X187857143Y-113189286D01*
X187714285Y-113332143D01*
X187500000Y-113403571D01*
X187357143Y-113403571D01*
X187142857Y-113332143D01*
X187071428Y-113260714D01*
X187071428Y-112760714D01*
X187357143Y-112760714D01*
X186428571Y-113403571D02*
X186428571Y-111903571D01*
X185571428Y-113403571D01*
X185571428Y-111903571D01*
X184857142Y-113403571D02*
X184857142Y-111903571D01*
X184499999Y-111903571D01*
X184285714Y-111975000D01*
X184142856Y-112117857D01*
X184071428Y-112260714D01*
X183999999Y-112546429D01*
X183999999Y-112760714D01*
X184071428Y-113046429D01*
X184142856Y-113189286D01*
X184285714Y-113332143D01*
X184499999Y-113403571D01*
X184857142Y-113403571D01*
X186964285Y-115953571D02*
X187678571Y-115953571D01*
X187678571Y-114453571D01*
X186464285Y-115167857D02*
X185964285Y-115167857D01*
X185749999Y-115953571D02*
X186464285Y-115953571D01*
X186464285Y-114453571D01*
X185749999Y-114453571D01*
X185107142Y-115953571D02*
X185107142Y-114453571D01*
X184749999Y-114453571D01*
X184535714Y-114525000D01*
X184392856Y-114667857D01*
X184321428Y-114810714D01*
X184249999Y-115096429D01*
X184249999Y-115310714D01*
X184321428Y-115596429D01*
X184392856Y-115739286D01*
X184535714Y-115882143D01*
X184749999Y-115953571D01*
X185107142Y-115953571D01*
X187142857Y-117075000D02*
X187285714Y-117003571D01*
X187500000Y-117003571D01*
X187714285Y-117075000D01*
X187857143Y-117217857D01*
X187928571Y-117360714D01*
X188000000Y-117646429D01*
X188000000Y-117860714D01*
X187928571Y-118146429D01*
X187857143Y-118289286D01*
X187714285Y-118432143D01*
X187500000Y-118503571D01*
X187357143Y-118503571D01*
X187142857Y-118432143D01*
X187071428Y-118360714D01*
X187071428Y-117860714D01*
X187357143Y-117860714D01*
X186428571Y-118503571D02*
X186428571Y-117003571D01*
X185571428Y-118503571D01*
X185571428Y-117003571D01*
X184857142Y-118503571D02*
X184857142Y-117003571D01*
X184499999Y-117003571D01*
X184285714Y-117075000D01*
X184142856Y-117217857D01*
X184071428Y-117360714D01*
X183999999Y-117646429D01*
X183999999Y-117860714D01*
X184071428Y-118146429D01*
X184142856Y-118289286D01*
X184285714Y-118432143D01*
X184499999Y-118503571D01*
X184857142Y-118503571D01*
X41142857Y-124425000D02*
X41285714Y-124353571D01*
X41500000Y-124353571D01*
X41714285Y-124425000D01*
X41857143Y-124567857D01*
X41928571Y-124710714D01*
X42000000Y-124996429D01*
X42000000Y-125210714D01*
X41928571Y-125496429D01*
X41857143Y-125639286D01*
X41714285Y-125782143D01*
X41500000Y-125853571D01*
X41357143Y-125853571D01*
X41142857Y-125782143D01*
X41071428Y-125710714D01*
X41071428Y-125210714D01*
X41357143Y-125210714D01*
X40428571Y-125853571D02*
X40428571Y-124353571D01*
X39571428Y-125853571D01*
X39571428Y-124353571D01*
X38857142Y-125853571D02*
X38857142Y-124353571D01*
X38499999Y-124353571D01*
X38285714Y-124425000D01*
X38142856Y-124567857D01*
X38071428Y-124710714D01*
X37999999Y-124996429D01*
X37999999Y-125210714D01*
X38071428Y-125496429D01*
X38142856Y-125639286D01*
X38285714Y-125782143D01*
X38499999Y-125853571D01*
X38857142Y-125853571D01*
X40964285Y-128403571D02*
X41678571Y-128403571D01*
X41678571Y-126903571D01*
X40464285Y-127617857D02*
X39964285Y-127617857D01*
X39749999Y-128403571D02*
X40464285Y-128403571D01*
X40464285Y-126903571D01*
X39749999Y-126903571D01*
X39107142Y-128403571D02*
X39107142Y-126903571D01*
X38749999Y-126903571D01*
X38535714Y-126975000D01*
X38392856Y-127117857D01*
X38321428Y-127260714D01*
X38249999Y-127546429D01*
X38249999Y-127760714D01*
X38321428Y-128046429D01*
X38392856Y-128189286D01*
X38535714Y-128332143D01*
X38749999Y-128403571D01*
X39107142Y-128403571D01*
X41142857Y-129525000D02*
X41285714Y-129453571D01*
X41500000Y-129453571D01*
X41714285Y-129525000D01*
X41857143Y-129667857D01*
X41928571Y-129810714D01*
X42000000Y-130096429D01*
X42000000Y-130310714D01*
X41928571Y-130596429D01*
X41857143Y-130739286D01*
X41714285Y-130882143D01*
X41500000Y-130953571D01*
X41357143Y-130953571D01*
X41142857Y-130882143D01*
X41071428Y-130810714D01*
X41071428Y-130310714D01*
X41357143Y-130310714D01*
X40428571Y-130953571D02*
X40428571Y-129453571D01*
X39571428Y-130953571D01*
X39571428Y-129453571D01*
X38857142Y-130953571D02*
X38857142Y-129453571D01*
X38499999Y-129453571D01*
X38285714Y-129525000D01*
X38142856Y-129667857D01*
X38071428Y-129810714D01*
X37999999Y-130096429D01*
X37999999Y-130310714D01*
X38071428Y-130596429D01*
X38142856Y-130739286D01*
X38285714Y-130882143D01*
X38499999Y-130953571D01*
X38857142Y-130953571D01*
X41250000Y-132717857D02*
X41035714Y-132789286D01*
X40964286Y-132860714D01*
X40892857Y-133003571D01*
X40892857Y-133217857D01*
X40964286Y-133360714D01*
X41035714Y-133432143D01*
X41178572Y-133503571D01*
X41750000Y-133503571D01*
X41750000Y-132003571D01*
X41250000Y-132003571D01*
X41107143Y-132075000D01*
X41035714Y-132146429D01*
X40964286Y-132289286D01*
X40964286Y-132432143D01*
X41035714Y-132575000D01*
X41107143Y-132646429D01*
X41250000Y-132717857D01*
X41750000Y-132717857D01*
X40464286Y-132003571D02*
X39607143Y-132003571D01*
X40035714Y-133503571D02*
X40035714Y-132003571D01*
X39107143Y-133503571D02*
X39107143Y-132003571D01*
X38250000Y-133503571D01*
X38250000Y-132003571D01*
X41142857Y-108475000D02*
X41285714Y-108403571D01*
X41500000Y-108403571D01*
X41714285Y-108475000D01*
X41857143Y-108617857D01*
X41928571Y-108760714D01*
X42000000Y-109046429D01*
X42000000Y-109260714D01*
X41928571Y-109546429D01*
X41857143Y-109689286D01*
X41714285Y-109832143D01*
X41500000Y-109903571D01*
X41357143Y-109903571D01*
X41142857Y-109832143D01*
X41071428Y-109760714D01*
X41071428Y-109260714D01*
X41357143Y-109260714D01*
X40428571Y-109903571D02*
X40428571Y-108403571D01*
X39571428Y-109903571D01*
X39571428Y-108403571D01*
X38857142Y-109903571D02*
X38857142Y-108403571D01*
X38499999Y-108403571D01*
X38285714Y-108475000D01*
X38142856Y-108617857D01*
X38071428Y-108760714D01*
X37999999Y-109046429D01*
X37999999Y-109260714D01*
X38071428Y-109546429D01*
X38142856Y-109689286D01*
X38285714Y-109832143D01*
X38499999Y-109903571D01*
X38857142Y-109903571D01*
X41250000Y-111667857D02*
X41035714Y-111739286D01*
X40964286Y-111810714D01*
X40892857Y-111953571D01*
X40892857Y-112167857D01*
X40964286Y-112310714D01*
X41035714Y-112382143D01*
X41178572Y-112453571D01*
X41750000Y-112453571D01*
X41750000Y-110953571D01*
X41250000Y-110953571D01*
X41107143Y-111025000D01*
X41035714Y-111096429D01*
X40964286Y-111239286D01*
X40964286Y-111382143D01*
X41035714Y-111525000D01*
X41107143Y-111596429D01*
X41250000Y-111667857D01*
X41750000Y-111667857D01*
X40464286Y-110953571D02*
X39607143Y-110953571D01*
X40035714Y-112453571D02*
X40035714Y-110953571D01*
X39107143Y-112453571D02*
X39107143Y-110953571D01*
X38250000Y-112453571D01*
X38250000Y-110953571D01*
X40964285Y-107678571D02*
X41678571Y-107678571D01*
X41678571Y-106178571D01*
X40464285Y-106892857D02*
X39964285Y-106892857D01*
X39749999Y-107678571D02*
X40464285Y-107678571D01*
X40464285Y-106178571D01*
X39749999Y-106178571D01*
X39107142Y-107678571D02*
X39107142Y-106178571D01*
X38749999Y-106178571D01*
X38535714Y-106250000D01*
X38392856Y-106392857D01*
X38321428Y-106535714D01*
X38249999Y-106821429D01*
X38249999Y-107035714D01*
X38321428Y-107321429D01*
X38392856Y-107464286D01*
X38535714Y-107607143D01*
X38749999Y-107678571D01*
X39107142Y-107678571D01*
X41142857Y-103750000D02*
X41285714Y-103678571D01*
X41500000Y-103678571D01*
X41714285Y-103750000D01*
X41857143Y-103892857D01*
X41928571Y-104035714D01*
X42000000Y-104321429D01*
X42000000Y-104535714D01*
X41928571Y-104821429D01*
X41857143Y-104964286D01*
X41714285Y-105107143D01*
X41500000Y-105178571D01*
X41357143Y-105178571D01*
X41142857Y-105107143D01*
X41071428Y-105035714D01*
X41071428Y-104535714D01*
X41357143Y-104535714D01*
X40428571Y-105178571D02*
X40428571Y-103678571D01*
X39571428Y-105178571D01*
X39571428Y-103678571D01*
X38857142Y-105178571D02*
X38857142Y-103678571D01*
X38499999Y-103678571D01*
X38285714Y-103750000D01*
X38142856Y-103892857D01*
X38071428Y-104035714D01*
X37999999Y-104321429D01*
X37999999Y-104535714D01*
X38071428Y-104821429D01*
X38142856Y-104964286D01*
X38285714Y-105107143D01*
X38499999Y-105178571D01*
X38857142Y-105178571D01*
X56678571Y-141678571D02*
X57392857Y-141678571D01*
X57392857Y-140178571D01*
X55964285Y-141678571D02*
X56107143Y-141607143D01*
X56178571Y-141535714D01*
X56250000Y-141392857D01*
X56250000Y-140964286D01*
X56178571Y-140821429D01*
X56107143Y-140750000D01*
X55964285Y-140678571D01*
X55750000Y-140678571D01*
X55607143Y-140750000D01*
X55535714Y-140821429D01*
X55464285Y-140964286D01*
X55464285Y-141392857D01*
X55535714Y-141535714D01*
X55607143Y-141607143D01*
X55750000Y-141678571D01*
X55964285Y-141678571D01*
X54178571Y-140678571D02*
X54178571Y-141892857D01*
X54250000Y-142035714D01*
X54321428Y-142107143D01*
X54464285Y-142178571D01*
X54678571Y-142178571D01*
X54821428Y-142107143D01*
X54178571Y-141607143D02*
X54321428Y-141678571D01*
X54607142Y-141678571D01*
X54750000Y-141607143D01*
X54821428Y-141535714D01*
X54892857Y-141392857D01*
X54892857Y-140964286D01*
X54821428Y-140821429D01*
X54750000Y-140750000D01*
X54607142Y-140678571D01*
X54321428Y-140678571D01*
X54178571Y-140750000D01*
X52821428Y-140678571D02*
X52821428Y-141892857D01*
X52892857Y-142035714D01*
X52964285Y-142107143D01*
X53107142Y-142178571D01*
X53321428Y-142178571D01*
X53464285Y-142107143D01*
X52821428Y-141607143D02*
X52964285Y-141678571D01*
X53249999Y-141678571D01*
X53392857Y-141607143D01*
X53464285Y-141535714D01*
X53535714Y-141392857D01*
X53535714Y-140964286D01*
X53464285Y-140821429D01*
X53392857Y-140750000D01*
X53249999Y-140678571D01*
X52964285Y-140678571D01*
X52821428Y-140750000D01*
X51535714Y-141607143D02*
X51678571Y-141678571D01*
X51964285Y-141678571D01*
X52107142Y-141607143D01*
X52178571Y-141464286D01*
X52178571Y-140892857D01*
X52107142Y-140750000D01*
X51964285Y-140678571D01*
X51678571Y-140678571D01*
X51535714Y-140750000D01*
X51464285Y-140892857D01*
X51464285Y-141035714D01*
X52178571Y-141178571D01*
X50821428Y-141678571D02*
X50821428Y-140678571D01*
X50821428Y-140964286D02*
X50750000Y-140821429D01*
X50678571Y-140750000D01*
X50535714Y-140678571D01*
X50392857Y-140678571D01*
D12*
X42000000Y-134000000D02*
X61500000Y-134000000D01*
X61500000Y-147500000D02*
X61500000Y-134000000D01*
X42000000Y-147500000D02*
X61500000Y-147500000D01*
X42000000Y-134000000D02*
X42000000Y-147500000D01*
D13*
X30150000Y-97600000D02*
X30850000Y-97600000D01*
X30850000Y-96400000D02*
X30150000Y-96400000D01*
X53150000Y-97600000D02*
X53850000Y-97600000D01*
X53850000Y-96400000D02*
X53150000Y-96400000D01*
X30150000Y-86600000D02*
X30850000Y-86600000D01*
X30850000Y-85400000D02*
X30150000Y-85400000D01*
X53150000Y-86600000D02*
X53850000Y-86600000D01*
X53850000Y-85400000D02*
X53150000Y-85400000D01*
X76150000Y-97600000D02*
X76850000Y-97600000D01*
X76850000Y-96400000D02*
X76150000Y-96400000D01*
X173650000Y-113100000D02*
X174350000Y-113100000D01*
X174350000Y-111900000D02*
X173650000Y-111900000D01*
X156834588Y-138677576D02*
X156134588Y-138677576D01*
X156134588Y-139877576D02*
X156834588Y-139877576D01*
X156834588Y-140677576D02*
X156134588Y-140677576D01*
X156134588Y-141877576D02*
X156834588Y-141877576D01*
X76150000Y-86600000D02*
X76850000Y-86600000D01*
X76850000Y-85400000D02*
X76150000Y-85400000D01*
X179650000Y-113100000D02*
X180350000Y-113100000D01*
X180350000Y-111900000D02*
X179650000Y-111900000D01*
X170350000Y-120400000D02*
X169650000Y-120400000D01*
X169650000Y-121600000D02*
X170350000Y-121600000D01*
X170350000Y-118400000D02*
X169650000Y-118400000D01*
X169650000Y-119600000D02*
X170350000Y-119600000D01*
D14*
X42500000Y-118500000D02*
X47500000Y-118500000D01*
X42500000Y-113500000D02*
X47500000Y-113500000D01*
D15*
X47641953Y-112952000D02*
G75*
G03X47641953Y-112952000I-228953J0D01*
G01*
X47502803Y-112952000D02*
G75*
G03X47502803Y-112952000I-89803J0D01*
G01*
X199750000Y-55500000D02*
X200750000Y-55500000D01*
X199750000Y-76500000D02*
X200750000Y-76500000D01*
X200750000Y-69500000D02*
X199750000Y-69500000D01*
X200750000Y-62500000D02*
X199750000Y-62500000D01*
X200750000Y-59000000D02*
X199750000Y-59000000D01*
X200750000Y-66000000D02*
X199750000Y-66000000D01*
X200750000Y-73000000D02*
X199750000Y-73000000D01*
X200750000Y-80000000D02*
X199750000Y-80000000D01*
X188500000Y-52250000D02*
X200750000Y-52250000D01*
X188500000Y-82000000D02*
X200750000Y-82000000D01*
X200750000Y-52250000D02*
X200750000Y-82000000D01*
X188500000Y-82000000D02*
X188500000Y-52250000D01*
X198500000Y-80000000D02*
G75*
G03X198500000Y-80000000I-750000J0D01*
G01*
X198500000Y-76500000D02*
G75*
G03X198500000Y-76500000I-750000J0D01*
G01*
X198500000Y-73000000D02*
G75*
G03X198500000Y-73000000I-750000J0D01*
G01*
X198500000Y-69500000D02*
G75*
G03X198500000Y-69500000I-750000J0D01*
G01*
X198500000Y-66000000D02*
G75*
G03X198500000Y-66000000I-750000J0D01*
G01*
X198500000Y-62500000D02*
G75*
G03X198500000Y-62500000I-750000J0D01*
G01*
X198500000Y-59000000D02*
G75*
G03X198500000Y-59000000I-750000J0D01*
G01*
X198500000Y-55500000D02*
G75*
G03X198500000Y-55500000I-750000J0D01*
G01*
X58750000Y-160750000D02*
G75*
G03X58750000Y-160750000I-750000J0D01*
G01*
X68500000Y-162750000D02*
X68500000Y-163750000D01*
X65000000Y-163750000D02*
X65000000Y-162750000D01*
X61500000Y-163750000D02*
X61500000Y-162750000D01*
X58000000Y-163750000D02*
X58000000Y-162750000D01*
X56000000Y-151500000D02*
X56000000Y-163750000D01*
X71750000Y-163750000D02*
X56000000Y-163750000D01*
X71750000Y-151500000D02*
X71750000Y-163750000D01*
X56000000Y-151500000D02*
X71750000Y-151500000D01*
X62250000Y-160750000D02*
G75*
G03X62250000Y-160750000I-750000J0D01*
G01*
X65750000Y-160750000D02*
G75*
G03X65750000Y-160750000I-750000J0D01*
G01*
X69250000Y-160750000D02*
G75*
G03X69250000Y-160750000I-750000J0D01*
G01*
X39250000Y-160750000D02*
G75*
G03X39250000Y-160750000I-750000J0D01*
G01*
X49000000Y-162750000D02*
X49000000Y-163750000D01*
X45500000Y-163750000D02*
X45500000Y-162750000D01*
X42000000Y-163750000D02*
X42000000Y-162750000D01*
X38500000Y-163750000D02*
X38500000Y-162750000D01*
X36500000Y-151500000D02*
X36500000Y-163750000D01*
X52250000Y-163750000D02*
X36500000Y-163750000D01*
X52250000Y-151500000D02*
X52250000Y-163750000D01*
X36500000Y-151500000D02*
X52250000Y-151500000D01*
X42750000Y-160750000D02*
G75*
G03X42750000Y-160750000I-750000J0D01*
G01*
X46250000Y-160750000D02*
G75*
G03X46250000Y-160750000I-750000J0D01*
G01*
X49750000Y-160750000D02*
G75*
G03X49750000Y-160750000I-750000J0D01*
G01*
D13*
X42610000Y-143230000D02*
X42610000Y-135490000D01*
X42610000Y-135490000D02*
X45390000Y-135490000D01*
X45390000Y-135490000D02*
X45390000Y-143230000D01*
X45390000Y-143230000D02*
X42610000Y-143230000D01*
X42610000Y-144500000D02*
X42610000Y-145890000D01*
X42610000Y-145890000D02*
X44000000Y-145890000D01*
X141110000Y-160230000D02*
X141110000Y-155030000D01*
X141110000Y-155030000D02*
X143890000Y-155030000D01*
X143890000Y-155030000D02*
X143890000Y-160230000D01*
X143890000Y-160230000D02*
X141110000Y-160230000D01*
X141110000Y-161500000D02*
X141110000Y-162890000D01*
X141110000Y-162890000D02*
X142500000Y-162890000D01*
D15*
X29000000Y-124000000D02*
G75*
G03X29000000Y-124000000I-750000J0D01*
G01*
X26250000Y-134500000D02*
X25250000Y-134500000D01*
X25250000Y-131000000D02*
X26250000Y-131000000D01*
X25250000Y-127500000D02*
X26250000Y-127500000D01*
X25250000Y-124000000D02*
X26250000Y-124000000D01*
X37500000Y-122000000D02*
X25250000Y-122000000D01*
X25250000Y-137750000D02*
X25250000Y-122000000D01*
X37500000Y-137750000D02*
X25250000Y-137750000D01*
X37500000Y-122000000D02*
X37500000Y-137750000D01*
X29000000Y-127500000D02*
G75*
G03X29000000Y-127500000I-750000J0D01*
G01*
X29000000Y-131000000D02*
G75*
G03X29000000Y-131000000I-750000J0D01*
G01*
X29000000Y-134500000D02*
G75*
G03X29000000Y-134500000I-750000J0D01*
G01*
X29000000Y-105000000D02*
G75*
G03X29000000Y-105000000I-750000J0D01*
G01*
X26250000Y-115500000D02*
X25250000Y-115500000D01*
X25250000Y-112000000D02*
X26250000Y-112000000D01*
X25250000Y-108500000D02*
X26250000Y-108500000D01*
X25250000Y-105000000D02*
X26250000Y-105000000D01*
X37500000Y-103000000D02*
X25250000Y-103000000D01*
X25250000Y-118750000D02*
X25250000Y-103000000D01*
X37500000Y-118750000D02*
X25250000Y-118750000D01*
X37500000Y-103000000D02*
X37500000Y-118750000D01*
X29000000Y-108500000D02*
G75*
G03X29000000Y-108500000I-750000J0D01*
G01*
X29000000Y-112000000D02*
G75*
G03X29000000Y-112000000I-750000J0D01*
G01*
X29000000Y-115500000D02*
G75*
G03X29000000Y-115500000I-750000J0D01*
G01*
X198500000Y-119000000D02*
G75*
G03X198500000Y-119000000I-750000J0D01*
G01*
X199750000Y-108500000D02*
X200750000Y-108500000D01*
X200750000Y-112000000D02*
X199750000Y-112000000D01*
X200750000Y-115500000D02*
X199750000Y-115500000D01*
X200750000Y-119000000D02*
X199750000Y-119000000D01*
X188500000Y-121000000D02*
X200750000Y-121000000D01*
X200750000Y-105250000D02*
X200750000Y-121000000D01*
X188500000Y-105250000D02*
X200750000Y-105250000D01*
X188500000Y-121000000D02*
X188500000Y-105250000D01*
X198500000Y-115500000D02*
G75*
G03X198500000Y-115500000I-750000J0D01*
G01*
X198500000Y-112000000D02*
G75*
G03X198500000Y-112000000I-750000J0D01*
G01*
X198500000Y-108500000D02*
G75*
G03X198500000Y-108500000I-750000J0D01*
G01*
D13*
X148610000Y-160310000D02*
X148610000Y-147490000D01*
X148610000Y-147490000D02*
X151390000Y-147490000D01*
X151390000Y-147490000D02*
X151390000Y-160310000D01*
X151390000Y-160310000D02*
X148610000Y-160310000D01*
X148610000Y-161580000D02*
X148610000Y-162970000D01*
X148610000Y-162970000D02*
X150000000Y-162970000D01*
X118610000Y-160350000D02*
X118610000Y-152610000D01*
X118610000Y-152610000D02*
X121390000Y-152610000D01*
X121390000Y-152610000D02*
X121390000Y-160350000D01*
X121390000Y-160350000D02*
X118610000Y-160350000D01*
X118610000Y-161620000D02*
X118610000Y-163010000D01*
X118610000Y-163010000D02*
X120000000Y-163010000D01*
X126110000Y-160230000D02*
X126110000Y-152490000D01*
X126110000Y-152490000D02*
X128890000Y-152490000D01*
X128890000Y-152490000D02*
X128890000Y-160230000D01*
X128890000Y-160230000D02*
X126110000Y-160230000D01*
X126110000Y-161500000D02*
X126110000Y-162890000D01*
X126110000Y-162890000D02*
X127500000Y-162890000D01*
X78610000Y-160310000D02*
X78610000Y-155110000D01*
X78610000Y-155110000D02*
X81390000Y-155110000D01*
X81390000Y-155110000D02*
X81390000Y-160310000D01*
X81390000Y-160310000D02*
X78610000Y-160310000D01*
X78610000Y-161580000D02*
X78610000Y-162970000D01*
X78610000Y-162970000D02*
X80000000Y-162970000D01*
X93610000Y-160310000D02*
X93610000Y-155110000D01*
X93610000Y-155110000D02*
X96390000Y-155110000D01*
X96390000Y-155110000D02*
X96390000Y-160310000D01*
X96390000Y-160310000D02*
X93610000Y-160310000D01*
X93610000Y-161580000D02*
X93610000Y-162970000D01*
X93610000Y-162970000D02*
X95000000Y-162970000D01*
X86110000Y-160310000D02*
X86110000Y-155110000D01*
X86110000Y-155110000D02*
X88890000Y-155110000D01*
X88890000Y-155110000D02*
X88890000Y-160310000D01*
X88890000Y-160310000D02*
X86110000Y-160310000D01*
X86110000Y-161580000D02*
X86110000Y-162970000D01*
X86110000Y-162970000D02*
X87500000Y-162970000D01*
X101110000Y-160310000D02*
X101110000Y-155110000D01*
X101110000Y-155110000D02*
X103890000Y-155110000D01*
X103890000Y-155110000D02*
X103890000Y-160310000D01*
X103890000Y-160310000D02*
X101110000Y-160310000D01*
X101110000Y-161580000D02*
X101110000Y-162970000D01*
X101110000Y-162970000D02*
X102500000Y-162970000D01*
X133610000Y-160230000D02*
X133610000Y-152490000D01*
X133610000Y-152490000D02*
X136390000Y-152490000D01*
X136390000Y-152490000D02*
X136390000Y-160230000D01*
X136390000Y-160230000D02*
X133610000Y-160230000D01*
X133610000Y-161500000D02*
X133610000Y-162890000D01*
X133610000Y-162890000D02*
X135000000Y-162890000D01*
X164500000Y-122680000D02*
X165500000Y-122680000D01*
X165500000Y-121320000D02*
X164500000Y-121320000D01*
X36320000Y-148500000D02*
X36320000Y-149500000D01*
X37680000Y-149500000D02*
X37680000Y-148500000D01*
X36320000Y-144000000D02*
X36320000Y-145000000D01*
X37680000Y-145000000D02*
X37680000Y-144000000D01*
X165500000Y-138320000D02*
X164500000Y-138320000D01*
X164500000Y-139680000D02*
X165500000Y-139680000D01*
X165500000Y-119320000D02*
X164500000Y-119320000D01*
X164500000Y-120680000D02*
X165500000Y-120680000D01*
X30000000Y-95680000D02*
X31000000Y-95680000D01*
X31000000Y-94320000D02*
X30000000Y-94320000D01*
X53000000Y-95680000D02*
X54000000Y-95680000D01*
X54000000Y-94320000D02*
X53000000Y-94320000D01*
X31000000Y-92320000D02*
X30000000Y-92320000D01*
X30000000Y-93680000D02*
X31000000Y-93680000D01*
X54000000Y-92320000D02*
X53000000Y-92320000D01*
X53000000Y-93680000D02*
X54000000Y-93680000D01*
X31000000Y-89320000D02*
X30000000Y-89320000D01*
X30000000Y-90680000D02*
X31000000Y-90680000D01*
X54000000Y-89320000D02*
X53000000Y-89320000D01*
X53000000Y-90680000D02*
X54000000Y-90680000D01*
X31000000Y-87320000D02*
X30000000Y-87320000D01*
X30000000Y-88680000D02*
X31000000Y-88680000D01*
X54000000Y-87320000D02*
X53000000Y-87320000D01*
X53000000Y-88680000D02*
X54000000Y-88680000D01*
X76000000Y-95680000D02*
X77000000Y-95680000D01*
X77000000Y-94320000D02*
X76000000Y-94320000D01*
X173500000Y-111180000D02*
X174500000Y-111180000D01*
X174500000Y-109820000D02*
X173500000Y-109820000D01*
X77000000Y-92320000D02*
X76000000Y-92320000D01*
X76000000Y-93680000D02*
X77000000Y-93680000D01*
X174500000Y-107820000D02*
X173500000Y-107820000D01*
X173500000Y-109180000D02*
X174500000Y-109180000D01*
X77000000Y-89320000D02*
X76000000Y-89320000D01*
X76000000Y-90680000D02*
X77000000Y-90680000D01*
X180500000Y-107820000D02*
X179500000Y-107820000D01*
X179500000Y-109180000D02*
X180500000Y-109180000D01*
X76900000Y-87320000D02*
X75900000Y-87320000D01*
X75900000Y-88680000D02*
X76900000Y-88680000D01*
X180500000Y-109820000D02*
X179500000Y-109820000D01*
X179500000Y-111180000D02*
X180500000Y-111180000D01*
X164500000Y-137680000D02*
X165500000Y-137680000D01*
X165500000Y-136320000D02*
X164500000Y-136320000D01*
X165500000Y-117320000D02*
X164500000Y-117320000D01*
X164500000Y-118680000D02*
X165500000Y-118680000D01*
X112500000Y-157820000D02*
X111500000Y-157820000D01*
X111500000Y-159180000D02*
X112500000Y-159180000D01*
X112500000Y-159820000D02*
X111500000Y-159820000D01*
X111500000Y-161180000D02*
X112500000Y-161180000D01*
D15*
X150480000Y-131000000D02*
X150480000Y-130500000D01*
X150480000Y-130500000D02*
X161980000Y-130500000D01*
X161980000Y-130500000D02*
X161980000Y-131000000D01*
X150480000Y-131000000D02*
X150480000Y-137000000D01*
X150480000Y-137000000D02*
X161980000Y-137000000D01*
X161980000Y-137000000D02*
X161980000Y-131000000D01*
D12*
X186400000Y-130300000D02*
X186400000Y-124700000D01*
X186400000Y-124700000D02*
X176600000Y-124700000D01*
X176600000Y-124700000D02*
X176600000Y-130300000D01*
X176600000Y-130300000D02*
X186400000Y-130300000D01*
X185800000Y-129300000D02*
G75*
G03X185800000Y-129300000I-400000J0D01*
G01*
X186641420Y-131400000D02*
G75*
G03X186641420Y-131400000I-141420J0D01*
G01*
X185623610Y-129300000D02*
G75*
G03X185623610Y-129300000I-223610J0D01*
G01*
X185600000Y-129200000D02*
G75*
G03X185600000Y-129200000I-200000J0D01*
G01*
X185541420Y-129400000D02*
G75*
G03X185541420Y-129400000I-141420J0D01*
G01*
D13*
X32583814Y-148040702D02*
X31883814Y-148040702D01*
X31883814Y-149240702D02*
X32583814Y-149240702D01*
X32583814Y-150540702D02*
X31883814Y-150540702D01*
X31883814Y-151740702D02*
X32583814Y-151740702D01*
D15*
X159940000Y-160935000D02*
X185690000Y-160935000D01*
X159940000Y-163685000D02*
X185690000Y-163685000D01*
X159940000Y-141185000D02*
X159940000Y-163685000D01*
X185690000Y-141185000D02*
X185690000Y-163685000D01*
X172690000Y-141185000D02*
X159940000Y-141185000D01*
X172690000Y-141185000D02*
X185690000Y-141185000D01*
X88300000Y-131690000D02*
X88300000Y-129150000D01*
X88300000Y-129150000D02*
X90840000Y-129150000D01*
X90840000Y-129150000D02*
X90840000Y-131690000D01*
X90840000Y-131690000D02*
X88300000Y-131690000D01*
X95920000Y-122800000D02*
X92110000Y-122800000D01*
X92110000Y-122800000D02*
X92110000Y-125340000D01*
X92110000Y-125340000D02*
X95920000Y-125340000D01*
X95920000Y-125340000D02*
X95920000Y-122800000D01*
X109890000Y-121530000D02*
X109890000Y-134230000D01*
X97190000Y-134230000D02*
X97190000Y-121530000D01*
X97190000Y-121530000D02*
X109890000Y-121530000D01*
X97190000Y-134230000D02*
X109890000Y-134230000D01*
X131480000Y-122800000D02*
X132750000Y-122800000D01*
X131480000Y-124070000D02*
X132750000Y-124070000D01*
X131480000Y-125340000D02*
X132750000Y-125340000D01*
X131480000Y-126610000D02*
X132750000Y-126610000D01*
X131480000Y-127880000D02*
X132750000Y-127880000D01*
X131480000Y-129150000D02*
X132750000Y-129150000D01*
X131480000Y-130420000D02*
X132750000Y-130420000D01*
X131480000Y-131690000D02*
X132750000Y-131690000D01*
X131480000Y-132960000D02*
X132750000Y-132960000D01*
X132750000Y-121530000D02*
X131480000Y-122800000D01*
X131480000Y-122800000D02*
X131480000Y-132960000D01*
X131480000Y-132960000D02*
X132750000Y-134230000D01*
X132750000Y-134230000D02*
X120050000Y-134230000D01*
X120050000Y-134230000D02*
X120050000Y-121530000D01*
X120050000Y-121530000D02*
X132750000Y-121530000D01*
X132750000Y-136770000D02*
X71790000Y-136770000D01*
X71790000Y-118990000D02*
X132750000Y-118990000D01*
X71790000Y-124070000D02*
X70520000Y-124070000D01*
X70520000Y-124070000D02*
X70520000Y-131690000D01*
X70520000Y-131690000D02*
X71790000Y-131690000D01*
X76870000Y-124070000D02*
X76870000Y-131690000D01*
X76870000Y-131690000D02*
X71790000Y-131690000D01*
X76870000Y-124070000D02*
X71790000Y-124070000D01*
X116240000Y-130420000D02*
X116240000Y-125340000D01*
X116240000Y-125340000D02*
X113700000Y-125340000D01*
X113700000Y-125340000D02*
X113700000Y-130420000D01*
X113700000Y-130420000D02*
X116240000Y-130420000D01*
X132750000Y-136770000D02*
X132750000Y-118990000D01*
X71790000Y-118990000D02*
X71790000Y-136770000D01*
X165960000Y-131786000D02*
X171040000Y-131786000D01*
X171040000Y-131786000D02*
X171040000Y-127214000D01*
X171040000Y-127214000D02*
X165960000Y-127214000D01*
X165960000Y-127214000D02*
X165960000Y-131786000D01*
X165960000Y-130262000D02*
X166468000Y-130262000D01*
X166468000Y-130262000D02*
X166468000Y-128992000D01*
X166468000Y-128992000D02*
X165960000Y-128992000D01*
M02*
