%TF.GenerationSoftware,KiCad,Pcbnew,4.0.6+dfsg1-1*%
%TF.CreationDate,2017-11-25T00:29:13-07:00*%
%TF.ProjectId,colordance_mini,636F6C6F7264616E63655F6D696E692E,rev?*%
%TF.FileFunction,Soldermask,Bot*%
%FSLAX46Y46*%
G04 Gerber Fmt 4.6, Leading zero omitted, Abs format (unit mm)*
G04 Created by KiCad (PCBNEW 4.0.6+dfsg1-1) date Sat Nov 25 00:29:13 2017*
%MOMM*%
%LPD*%
G01*
G04 APERTURE LIST*
%ADD10C,0.100000*%
%ADD11R,2.100000X2.100000*%
%ADD12O,2.100000X2.100000*%
%ADD13C,2.400000*%
%ADD14C,2.900000*%
%ADD15C,3.100000*%
%ADD16C,2.000000*%
%ADD17O,2.000000X2.000000*%
%ADD18R,3.400000X4.100000*%
%ADD19C,2.200000*%
%ADD20R,2.000000X2.000000*%
G04 APERTURE END LIST*
D10*
D11*
X162500000Y-107500000D03*
D12*
X162500000Y-104960000D03*
X165040000Y-107500000D03*
X165040000Y-104960000D03*
X167580000Y-107500000D03*
X167580000Y-104960000D03*
X170120000Y-107500000D03*
X170120000Y-104960000D03*
X172660000Y-107500000D03*
X172660000Y-104960000D03*
X175200000Y-107500000D03*
X175200000Y-104960000D03*
X177740000Y-107500000D03*
X177740000Y-104960000D03*
X180280000Y-107500000D03*
X180280000Y-104960000D03*
D13*
X149250000Y-113250000D03*
X90750000Y-116750000D03*
D14*
X143900000Y-110800000D03*
X96100000Y-110800000D03*
X145100000Y-119200000D03*
X94900000Y-119200000D03*
D13*
X90750000Y-113250000D03*
X149250000Y-95750000D03*
X90750000Y-99250000D03*
D14*
X143900000Y-93300000D03*
X96100000Y-93300000D03*
X145100000Y-101700000D03*
X94900000Y-101700000D03*
D13*
X90750000Y-95750000D03*
X93250000Y-25750000D03*
X96750000Y-84250000D03*
D14*
X90800000Y-31100000D03*
X90800000Y-78900000D03*
X99200000Y-29900000D03*
X99200000Y-80100000D03*
D13*
X93250000Y-84250000D03*
D15*
X62500000Y-22500000D03*
X62500000Y-117500000D03*
X185000000Y-22500000D03*
D16*
X85000000Y-117500000D03*
X85000000Y-112500000D03*
X157500000Y-27500000D03*
X157500000Y-22500000D03*
X80000000Y-90000000D03*
X80000000Y-95000000D03*
X175000000Y-22500000D03*
X170000000Y-22500000D03*
X157500000Y-52500000D03*
X157500000Y-47500000D03*
X157500000Y-75000000D03*
X157500000Y-70000000D03*
X182500000Y-52500000D03*
X182500000Y-47500000D03*
X182500000Y-75000000D03*
X182500000Y-70000000D03*
X80000000Y-112380000D03*
D17*
X80000000Y-120000000D03*
D16*
X152500000Y-40000000D03*
D17*
X152500000Y-32380000D03*
D16*
X75000000Y-120000000D03*
D17*
X75000000Y-112380000D03*
D16*
X157500000Y-32380000D03*
D17*
X157500000Y-40000000D03*
D16*
X85000000Y-100000000D03*
D17*
X85000000Y-107620000D03*
D16*
X187500000Y-32380000D03*
D17*
X187500000Y-40000000D03*
D16*
X80000000Y-99880000D03*
D17*
X80000000Y-107500000D03*
D16*
X182500000Y-32380000D03*
D17*
X182500000Y-40000000D03*
D16*
X157500000Y-65000000D03*
D17*
X157500000Y-57380000D03*
D16*
X152500000Y-87500000D03*
D17*
X152500000Y-79880000D03*
D16*
X152500000Y-57500000D03*
D17*
X152500000Y-65120000D03*
D16*
X157500000Y-80000000D03*
D17*
X157500000Y-87620000D03*
D16*
X187500000Y-57500000D03*
D17*
X187500000Y-65120000D03*
D16*
X187500000Y-80000000D03*
D17*
X187500000Y-87620000D03*
D16*
X182500000Y-57500000D03*
D17*
X182500000Y-65120000D03*
D16*
X182500000Y-80000000D03*
D17*
X182500000Y-87620000D03*
D13*
X115750000Y-25750000D03*
X119250000Y-84250000D03*
D14*
X113300000Y-31100000D03*
X113300000Y-78900000D03*
X121700000Y-29900000D03*
X121700000Y-80100000D03*
D13*
X115750000Y-84250000D03*
X73250000Y-25750000D03*
X76750000Y-84250000D03*
D14*
X70800000Y-31100000D03*
X70800000Y-78900000D03*
X79200000Y-29900000D03*
X79200000Y-80100000D03*
D13*
X73250000Y-84250000D03*
X135750000Y-25750000D03*
X139250000Y-84250000D03*
D14*
X133300000Y-31100000D03*
X133300000Y-78900000D03*
X141700000Y-29900000D03*
X141700000Y-80100000D03*
D13*
X135750000Y-84250000D03*
D18*
X60900000Y-100000000D03*
X74100000Y-100000000D03*
D19*
X67500000Y-107500000D03*
X65000000Y-107500000D03*
X70000000Y-107500000D03*
D18*
X163400000Y-32500000D03*
X176600000Y-32500000D03*
D19*
X170000000Y-40000000D03*
X167500000Y-40000000D03*
X172500000Y-40000000D03*
D18*
X163400000Y-57500000D03*
X176600000Y-57500000D03*
D19*
X170000000Y-65000000D03*
X167500000Y-65000000D03*
X172500000Y-65000000D03*
D18*
X163400000Y-82500000D03*
X176600000Y-82500000D03*
D19*
X170000000Y-90000000D03*
X167500000Y-90000000D03*
X172500000Y-90000000D03*
D16*
X187500000Y-92500000D03*
X187500000Y-97500000D03*
D20*
X155500000Y-95000000D03*
D16*
X157500000Y-95000000D03*
D15*
X185000000Y-117500000D03*
D11*
X148000000Y-21000000D03*
D12*
X150540000Y-21000000D03*
M02*
