G04 #@! TF.FileFunction,Other,User*
%FSLAX46Y46*%
G04 Gerber Fmt 4.6, Leading zero omitted, Abs format (unit mm)*
G04 Created by KiCad (PCBNEW 4.0.6+dfsg1-1) date Fri Apr 13 21:26:29 2018*
%MOMM*%
%LPD*%
G01*
G04 APERTURE LIST*
%ADD10C,0.100000*%
%ADD11C,0.050000*%
%ADD12C,0.150000*%
G04 APERTURE END LIST*
D10*
D11*
X28700000Y-97650000D02*
X32300000Y-97650000D01*
X28700000Y-97650000D02*
X28700000Y-96350000D01*
X32300000Y-96350000D02*
X32300000Y-97650000D01*
X32300000Y-96350000D02*
X28700000Y-96350000D01*
X51700000Y-97650000D02*
X55300000Y-97650000D01*
X51700000Y-97650000D02*
X51700000Y-96350000D01*
X55300000Y-96350000D02*
X55300000Y-97650000D01*
X55300000Y-96350000D02*
X51700000Y-96350000D01*
X28700000Y-86650000D02*
X32300000Y-86650000D01*
X28700000Y-86650000D02*
X28700000Y-85350000D01*
X32300000Y-85350000D02*
X32300000Y-86650000D01*
X32300000Y-85350000D02*
X28700000Y-85350000D01*
X51700000Y-86650000D02*
X55300000Y-86650000D01*
X51700000Y-86650000D02*
X51700000Y-85350000D01*
X55300000Y-85350000D02*
X55300000Y-86650000D01*
X55300000Y-85350000D02*
X51700000Y-85350000D01*
X74700000Y-97650000D02*
X78300000Y-97650000D01*
X74700000Y-97650000D02*
X74700000Y-96350000D01*
X78300000Y-96350000D02*
X78300000Y-97650000D01*
X78300000Y-96350000D02*
X74700000Y-96350000D01*
X172200000Y-113150000D02*
X175800000Y-113150000D01*
X172200000Y-113150000D02*
X172200000Y-111850000D01*
X175800000Y-111850000D02*
X175800000Y-113150000D01*
X175800000Y-111850000D02*
X172200000Y-111850000D01*
X158284588Y-138627576D02*
X154684588Y-138627576D01*
X158284588Y-138627576D02*
X158284588Y-139927576D01*
X154684588Y-139927576D02*
X154684588Y-138627576D01*
X154684588Y-139927576D02*
X158284588Y-139927576D01*
X158284588Y-140627576D02*
X154684588Y-140627576D01*
X158284588Y-140627576D02*
X158284588Y-141927576D01*
X154684588Y-141927576D02*
X154684588Y-140627576D01*
X154684588Y-141927576D02*
X158284588Y-141927576D01*
X74700000Y-86650000D02*
X78300000Y-86650000D01*
X74700000Y-86650000D02*
X74700000Y-85350000D01*
X78300000Y-85350000D02*
X78300000Y-86650000D01*
X78300000Y-85350000D02*
X74700000Y-85350000D01*
X178200000Y-113150000D02*
X181800000Y-113150000D01*
X178200000Y-113150000D02*
X178200000Y-111850000D01*
X181800000Y-111850000D02*
X181800000Y-113150000D01*
X181800000Y-111850000D02*
X178200000Y-111850000D01*
X171800000Y-120350000D02*
X168200000Y-120350000D01*
X171800000Y-120350000D02*
X171800000Y-121650000D01*
X168200000Y-121650000D02*
X168200000Y-120350000D01*
X168200000Y-121650000D02*
X171800000Y-121650000D01*
X171800000Y-118350000D02*
X168200000Y-118350000D01*
X171800000Y-118350000D02*
X171800000Y-119650000D01*
X168200000Y-119650000D02*
X168200000Y-118350000D01*
X168200000Y-119650000D02*
X171800000Y-119650000D01*
X42400000Y-146100000D02*
X42400000Y-135300000D01*
X42400000Y-135300000D02*
X45600000Y-135300000D01*
X45600000Y-135300000D02*
X45600000Y-146100000D01*
X45600000Y-146100000D02*
X42400000Y-146100000D01*
X140900000Y-163100000D02*
X140900000Y-154900000D01*
X140900000Y-154900000D02*
X144100000Y-154900000D01*
X144100000Y-154900000D02*
X144100000Y-163100000D01*
X144100000Y-163100000D02*
X140900000Y-163100000D01*
X148400000Y-163180000D02*
X148400000Y-147280000D01*
X148400000Y-147280000D02*
X151600000Y-147280000D01*
X151600000Y-147280000D02*
X151600000Y-163180000D01*
X151600000Y-163180000D02*
X148400000Y-163180000D01*
X118400000Y-163220000D02*
X118400000Y-152420000D01*
X118400000Y-152420000D02*
X121600000Y-152420000D01*
X121600000Y-152420000D02*
X121600000Y-163220000D01*
X121600000Y-163220000D02*
X118400000Y-163220000D01*
X125900000Y-163100000D02*
X125900000Y-152300000D01*
X125900000Y-152300000D02*
X129100000Y-152300000D01*
X129100000Y-152300000D02*
X129100000Y-163100000D01*
X129100000Y-163100000D02*
X125900000Y-163100000D01*
X78400000Y-163180000D02*
X78400000Y-154980000D01*
X78400000Y-154980000D02*
X81600000Y-154980000D01*
X81600000Y-154980000D02*
X81600000Y-163180000D01*
X81600000Y-163180000D02*
X78400000Y-163180000D01*
X93400000Y-163180000D02*
X93400000Y-154980000D01*
X93400000Y-154980000D02*
X96600000Y-154980000D01*
X96600000Y-154980000D02*
X96600000Y-163180000D01*
X96600000Y-163180000D02*
X93400000Y-163180000D01*
X85900000Y-163180000D02*
X85900000Y-154980000D01*
X85900000Y-154980000D02*
X89100000Y-154980000D01*
X89100000Y-154980000D02*
X89100000Y-163180000D01*
X89100000Y-163180000D02*
X85900000Y-163180000D01*
X100900000Y-163180000D02*
X100900000Y-154980000D01*
X100900000Y-154980000D02*
X104100000Y-154980000D01*
X104100000Y-154980000D02*
X104100000Y-163180000D01*
X104100000Y-163180000D02*
X100900000Y-163180000D01*
X133400000Y-163100000D02*
X133400000Y-152300000D01*
X133400000Y-152300000D02*
X136600000Y-152300000D01*
X136600000Y-152300000D02*
X136600000Y-163100000D01*
X136600000Y-163100000D02*
X133400000Y-163100000D01*
X166960000Y-121300000D02*
X163050000Y-121300000D01*
X166960000Y-121300000D02*
X166960000Y-122700000D01*
X163050000Y-122700000D02*
X163050000Y-121300000D01*
X163050000Y-122700000D02*
X166960000Y-122700000D01*
X37700000Y-150960000D02*
X37700000Y-147050000D01*
X37700000Y-150960000D02*
X36300000Y-150960000D01*
X36300000Y-147050000D02*
X37700000Y-147050000D01*
X36300000Y-147050000D02*
X36300000Y-150960000D01*
X37700000Y-146460000D02*
X37700000Y-142550000D01*
X37700000Y-146460000D02*
X36300000Y-146460000D01*
X36300000Y-142550000D02*
X37700000Y-142550000D01*
X36300000Y-142550000D02*
X36300000Y-146460000D01*
X163040000Y-139700000D02*
X166950000Y-139700000D01*
X163040000Y-139700000D02*
X163040000Y-138300000D01*
X166950000Y-138300000D02*
X166950000Y-139700000D01*
X166950000Y-138300000D02*
X163040000Y-138300000D01*
X163040000Y-120700000D02*
X166950000Y-120700000D01*
X163040000Y-120700000D02*
X163040000Y-119300000D01*
X166950000Y-119300000D02*
X166950000Y-120700000D01*
X166950000Y-119300000D02*
X163040000Y-119300000D01*
X32460000Y-94300000D02*
X28550000Y-94300000D01*
X32460000Y-94300000D02*
X32460000Y-95700000D01*
X28550000Y-95700000D02*
X28550000Y-94300000D01*
X28550000Y-95700000D02*
X32460000Y-95700000D01*
X55460000Y-94300000D02*
X51550000Y-94300000D01*
X55460000Y-94300000D02*
X55460000Y-95700000D01*
X51550000Y-95700000D02*
X51550000Y-94300000D01*
X51550000Y-95700000D02*
X55460000Y-95700000D01*
X28540000Y-93700000D02*
X32450000Y-93700000D01*
X28540000Y-93700000D02*
X28540000Y-92300000D01*
X32450000Y-92300000D02*
X32450000Y-93700000D01*
X32450000Y-92300000D02*
X28540000Y-92300000D01*
X51540000Y-93700000D02*
X55450000Y-93700000D01*
X51540000Y-93700000D02*
X51540000Y-92300000D01*
X55450000Y-92300000D02*
X55450000Y-93700000D01*
X55450000Y-92300000D02*
X51540000Y-92300000D01*
X28540000Y-90700000D02*
X32450000Y-90700000D01*
X28540000Y-90700000D02*
X28540000Y-89300000D01*
X32450000Y-89300000D02*
X32450000Y-90700000D01*
X32450000Y-89300000D02*
X28540000Y-89300000D01*
X51540000Y-90700000D02*
X55450000Y-90700000D01*
X51540000Y-90700000D02*
X51540000Y-89300000D01*
X55450000Y-89300000D02*
X55450000Y-90700000D01*
X55450000Y-89300000D02*
X51540000Y-89300000D01*
X28540000Y-88700000D02*
X32450000Y-88700000D01*
X28540000Y-88700000D02*
X28540000Y-87300000D01*
X32450000Y-87300000D02*
X32450000Y-88700000D01*
X32450000Y-87300000D02*
X28540000Y-87300000D01*
X51540000Y-88700000D02*
X55450000Y-88700000D01*
X51540000Y-88700000D02*
X51540000Y-87300000D01*
X55450000Y-87300000D02*
X55450000Y-88700000D01*
X55450000Y-87300000D02*
X51540000Y-87300000D01*
X78460000Y-94300000D02*
X74550000Y-94300000D01*
X78460000Y-94300000D02*
X78460000Y-95700000D01*
X74550000Y-95700000D02*
X74550000Y-94300000D01*
X74550000Y-95700000D02*
X78460000Y-95700000D01*
X175960000Y-109800000D02*
X172050000Y-109800000D01*
X175960000Y-109800000D02*
X175960000Y-111200000D01*
X172050000Y-111200000D02*
X172050000Y-109800000D01*
X172050000Y-111200000D02*
X175960000Y-111200000D01*
X74540000Y-93700000D02*
X78450000Y-93700000D01*
X74540000Y-93700000D02*
X74540000Y-92300000D01*
X78450000Y-92300000D02*
X78450000Y-93700000D01*
X78450000Y-92300000D02*
X74540000Y-92300000D01*
X172040000Y-109200000D02*
X175950000Y-109200000D01*
X172040000Y-109200000D02*
X172040000Y-107800000D01*
X175950000Y-107800000D02*
X175950000Y-109200000D01*
X175950000Y-107800000D02*
X172040000Y-107800000D01*
X74540000Y-90700000D02*
X78450000Y-90700000D01*
X74540000Y-90700000D02*
X74540000Y-89300000D01*
X78450000Y-89300000D02*
X78450000Y-90700000D01*
X78450000Y-89300000D02*
X74540000Y-89300000D01*
X178040000Y-109200000D02*
X181950000Y-109200000D01*
X178040000Y-109200000D02*
X178040000Y-107800000D01*
X181950000Y-107800000D02*
X181950000Y-109200000D01*
X181950000Y-107800000D02*
X178040000Y-107800000D01*
X74440000Y-88700000D02*
X78350000Y-88700000D01*
X74440000Y-88700000D02*
X74440000Y-87300000D01*
X78350000Y-87300000D02*
X78350000Y-88700000D01*
X78350000Y-87300000D02*
X74440000Y-87300000D01*
X178040000Y-111200000D02*
X181950000Y-111200000D01*
X178040000Y-111200000D02*
X178040000Y-109800000D01*
X181950000Y-109800000D02*
X181950000Y-111200000D01*
X181950000Y-109800000D02*
X178040000Y-109800000D01*
X166960000Y-136300000D02*
X163050000Y-136300000D01*
X166960000Y-136300000D02*
X166960000Y-137700000D01*
X163050000Y-137700000D02*
X163050000Y-136300000D01*
X163050000Y-137700000D02*
X166960000Y-137700000D01*
X163040000Y-118700000D02*
X166950000Y-118700000D01*
X163040000Y-118700000D02*
X163040000Y-117300000D01*
X166950000Y-117300000D02*
X166950000Y-118700000D01*
X166950000Y-117300000D02*
X163040000Y-117300000D01*
X110040000Y-159200000D02*
X113950000Y-159200000D01*
X110040000Y-159200000D02*
X110040000Y-157800000D01*
X113950000Y-157800000D02*
X113950000Y-159200000D01*
X113950000Y-157800000D02*
X110040000Y-157800000D01*
X110040000Y-161200000D02*
X113950000Y-161200000D01*
X110040000Y-161200000D02*
X110040000Y-159800000D01*
X113950000Y-159800000D02*
X113950000Y-161200000D01*
X113950000Y-159800000D02*
X110040000Y-159800000D01*
X34033814Y-147990702D02*
X30433814Y-147990702D01*
X34033814Y-147990702D02*
X34033814Y-149290702D01*
X30433814Y-149290702D02*
X30433814Y-147990702D01*
X30433814Y-149290702D02*
X34033814Y-149290702D01*
X34033814Y-150490702D02*
X30433814Y-150490702D01*
X34033814Y-150490702D02*
X34033814Y-151790702D01*
X30433814Y-151790702D02*
X30433814Y-150490702D01*
X30433814Y-151790702D02*
X34033814Y-151790702D01*
D12*
X199500000Y-45000000D02*
G75*
G03X199500000Y-45000000I-4500000J0D01*
G01*
X31500000Y-158000000D02*
G75*
G03X31500000Y-158000000I-4500000J0D01*
G01*
X31500000Y-45000000D02*
G75*
G03X31500000Y-45000000I-4500000J0D01*
G01*
X199500000Y-158000000D02*
G75*
G03X199500000Y-158000000I-4500000J0D01*
G01*
M02*
