<?xml version="1.0" standalone="no"?>
 <!DOCTYPE svg PUBLIC "-//W3C//DTD SVG 1.1//EN" 
 "http://www.w3.org/Graphics/SVG/1.1/DTD/svg11.dtd"> 
<svg xmlns="http://www.w3.org/2000/svg" version="1.1" 
    width="21.4046cm" height="14.412cm" viewBox="0 0 84270 56740 ">
<title>SVG Picture created as colordance_mini-brd.svg date 2018/04/13 21:20:21 </title>
  <desc>Picture generated by PCBNEW </desc>
<g style="fill:#000000; fill-opacity:1;stroke:#000000; stroke-opacity:1;
stroke-linecap:round; stroke-linejoin:round; "
 transform="translate(0 0) scale(1 1)">
</g>
<g style="fill:#000000; fill-opacity:0.0; 
stroke:#000000; stroke-width:-0.000393701; stroke-opacity:1; 
stroke-linecap:round; stroke-linejoin:round;">
</g>
<g style="fill:#840000; fill-opacity:0.0; 
stroke:#840000; stroke-width:-0.000393701; stroke-opacity:1; 
stroke-linecap:round; stroke-linejoin:round;">
</g>
<g style="fill:#840000; fill-opacity:0.0; 
stroke:#840000; stroke-width:118.11; stroke-opacity:1; 
stroke-linecap:round; stroke-linejoin:round;">
<path d="M67196 32007
L67477 32007
" />
<path d="M67139 32176
L67336 31586
L67533 32176
" />
<path d="M67730 32176
L67730 31586
L67955 31586
L68011 31614
L68039 31642
L68067 31698
L68067 31782
L68039 31839
L68011 31867
L67955 31895
L67730 31895
" />
<path d="M68292 32007
L68573 32007
" />
<path d="M68236 32176
L68433 31586
L68630 32176
" />
<path d="M69136 32176
L68798 32176
" />
<path d="M68967 32176
L68967 31586
L68911 31670
L68855 31726
L68798 31754
" />
<path d="M69502 31586
L69558 31586
L69614 31614
L69642 31642
L69670 31698
L69698 31811
L69698 31951
L69670 32064
L69642 32120
L69614 32148
L69558 32176
L69502 32176
L69445 32148
L69417 32120
L69389 32064
L69361 31951
L69361 31811
L69389 31698
L69417 31642
L69445 31614
L69502 31586
" />
<path d="M69923 31642
L69951 31614
L70008 31586
L70148 31586
L70205 31614
L70233 31642
L70261 31698
L70261 31754
L70233 31839
L69895 32176
L70261 32176
" />
<path d="M14144 34538
L14032 34538
L13976 34566
L13948 34595
L13891 34679
L13863 34791
L13863 35016
L13891 35073
L13919 35101
L13976 35129
L14088 35129
L14144 35101
L14172 35073
L14201 35016
L14201 34876
L14172 34820
L14144 34791
L14088 34763
L13976 34763
L13919 34791
L13891 34820
L13863 34876
" />
<path d="M14454 35129
L14454 34538
L14791 35129
L14791 34538
" />
<path d="M15382 35129
L15044 35129
" />
<path d="M15213 35129
L15213 34538
L15157 34623
L15100 34679
L15044 34707
" />
<path d="M15579 34538
L15944 34538
L15747 34763
L15832 34763
L15888 34791
L15916 34820
L15944 34876
L15944 35016
L15916 35073
L15888 35101
L15832 35129
L15663 35129
L15607 35101
L15579 35073
" />
<path d="M16141 34538
L16535 34538
L16282 35129
" />
</g>
<g style="fill:#840000; fill-opacity:0.0; 
stroke:#840000; stroke-width:39.3701; stroke-opacity:1; 
stroke-linecap:round; stroke-linejoin:round;">
<path d="M74949 22696
L74949 23011
" />
<path d="M74319 22696
L74949 22696
" />
<path d="M74319 23011
L74319 22696
" />
<path d="M74949 23011
L74319 23011
" />
<path d="M65894 22696
L65894 23011
" />
<path d="M65264 22696
L65894 22696
" />
<path d="M65264 23011
L65264 22696
" />
<path d="M65894 23011
L65264 23011
" />
<path d="M74949 18366
L74949 18681
" />
<path d="M74319 18366
L74949 18366
" />
<path d="M74319 18681
L74319 18366
" />
<path d="M74949 18681
L74319 18681
" />
<path d="M65894 18366
L65894 18681
" />
<path d="M65264 18366
L65894 18366
" />
<path d="M65264 18681
L65264 18366
" />
<path d="M65894 18681
L65264 18681
" />
<path d="M56838 22696
L56838 23011
" />
<path d="M56208 22696
L56838 22696
" />
<path d="M56208 23011
L56208 22696
" />
<path d="M56838 23011
L56208 23011
" />
<path d="M18453 28799
L18453 29114
" />
<path d="M17823 28799
L18453 28799
" />
<path d="M17823 29114
L17823 28799
" />
<path d="M18453 29114
L17823 29114
" />
<path d="M24718 39656
L24718 39341
" />
<path d="M25348 39656
L24718 39656
" />
<path d="M25348 39341
L25348 39656
" />
<path d="M24718 39341
L25348 39341
" />
<path d="M24718 40443
L24718 40128
" />
<path d="M25348 40443
L24718 40443
" />
<path d="M25348 40128
L25348 40443
" />
<path d="M24718 40128
L25348 40128
" />
<path d="M56838 18366
L56838 18681
" />
<path d="M56208 18366
L56838 18366
" />
<path d="M56208 18681
L56208 18366
" />
<path d="M56838 18681
L56208 18681
" />
<path d="M16090 28799
L16090 29114
" />
<path d="M15460 28799
L16090 28799
" />
<path d="M15460 29114
L15460 28799
" />
<path d="M16090 29114
L15460 29114
" />
<path d="M19397 32460
L19397 32145
" />
<path d="M20027 32460
L19397 32460
" />
<path d="M20027 32145
L20027 32460
" />
<path d="M19397 32145
L20027 32145
" />
<path d="M19397 31673
L19397 31358
" />
<path d="M20027 31673
L19397 31673
" />
<path d="M20027 31358
L20027 31673
" />
<path d="M19397 31358
L20027 31358
" />
<path d="M69819 42055
L69819 38055
" />
<path d="M69819 38055
L68819 38055
" />
<path d="M68819 38055
L68819 42055
" />
<path d="M68819 42055
L69819 42055
" />
<path d="M31039 48748
L31039 45748
" />
<path d="M31039 45748
L30039 45748
" />
<path d="M30039 45748
L30039 48748
" />
<path d="M30039 48748
L31039 48748
" />
<path d="M28086 48779
L28086 42779
" />
<path d="M28086 42779
L27086 42779
" />
<path d="M27086 42779
L27086 48779
" />
<path d="M27086 48779
L28086 48779
" />
<path d="M39897 48795
L39897 44795
" />
<path d="M39897 44795
L38897 44795
" />
<path d="M38897 44795
L38897 48795
" />
<path d="M38897 48795
L39897 48795
" />
<path d="M36945 48748
L36945 44748
" />
<path d="M36945 44748
L35945 44748
" />
<path d="M35945 44748
L35945 48748
" />
<path d="M35945 48748
L36945 48748
" />
<path d="M55645 48779
L55645 45779
" />
<path d="M55645 45779
L54645 45779
" />
<path d="M54645 45779
L54645 48779
" />
<path d="M54645 48779
L55645 48779
" />
<path d="M49740 48779
L49740 45779
" />
<path d="M49740 45779
L48740 45779
" />
<path d="M48740 45779
L48740 48779
" />
<path d="M48740 48779
L49740 48779
" />
<path d="M52693 48779
L52693 45779
" />
<path d="M52693 45779
L51693 45779
" />
<path d="M51693 45779
L51693 48779
" />
<path d="M51693 48779
L52693 48779
" />
<path d="M46787 48779
L46787 45779
" />
<path d="M46787 45779
L45787 45779
" />
<path d="M45787 45779
L45787 48779
" />
<path d="M45787 48779
L46787 48779
" />
<path d="M33992 48748
L33992 44748
" />
<path d="M33992 44748
L32992 44748
" />
<path d="M32992 44748
L32992 48748
" />
<path d="M32992 48748
L33992 48748
" />
<path d="M21366 32854
L21366 32539
" />
<path d="M21996 32854
L21366 32854
" />
<path d="M21996 32539
L21996 32854
" />
<path d="M21366 32539
L21996 32539
" />
<path d="M72232 43641
L71917 43641
" />
<path d="M72232 43011
L72232 43641
" />
<path d="M71917 43011
L72232 43011
" />
<path d="M71917 43641
L71917 43011
" />
<path d="M72232 41870
L71917 41870
" />
<path d="M72232 41240
L72232 41870
" />
<path d="M71917 41240
L72232 41240
" />
<path d="M71917 41870
L71917 41240
" />
<path d="M21996 39232
L21996 39547
" />
<path d="M21366 39232
L21996 39232
" />
<path d="M21366 39547
L21366 39232
" />
<path d="M21996 39547
L21366 39547
" />
<path d="M21996 31751
L21996 32066
" />
<path d="M21366 31751
L21996 31751
" />
<path d="M21366 32066
L21366 31751
" />
<path d="M21996 32066
L21366 32066
" />
<path d="M74319 22224
L74319 21909
" />
<path d="M74949 22224
L74319 22224
" />
<path d="M74949 21909
L74949 22224
" />
<path d="M74319 21909
L74949 21909
" />
<path d="M65264 22224
L65264 21909
" />
<path d="M65894 22224
L65264 22224
" />
<path d="M65894 21909
L65894 22224
" />
<path d="M65264 21909
L65894 21909
" />
<path d="M74949 21122
L74949 21437
" />
<path d="M74319 21122
L74949 21122
" />
<path d="M74319 21437
L74319 21122
" />
<path d="M74949 21437
L74319 21437
" />
<path d="M65894 21122
L65894 21437
" />
<path d="M65264 21122
L65894 21122
" />
<path d="M65264 21437
L65264 21122
" />
<path d="M65894 21437
L65264 21437
" />
<path d="M74949 19940
L74949 20255
" />
<path d="M74319 19940
L74949 19940
" />
<path d="M74319 20255
L74319 19940
" />
<path d="M74949 20255
L74319 20255
" />
<path d="M65894 19940
L65894 20255
" />
<path d="M65264 19940
L65894 19940
" />
<path d="M65264 20255
L65264 19940
" />
<path d="M65894 20255
L65264 20255
" />
<path d="M74949 19153
L74949 19468
" />
<path d="M74319 19153
L74949 19153
" />
<path d="M74319 19468
L74319 19153
" />
<path d="M74949 19468
L74319 19468
" />
<path d="M65894 19153
L65894 19468
" />
<path d="M65264 19153
L65894 19153
" />
<path d="M65264 19468
L65264 19153
" />
<path d="M65894 19468
L65264 19468
" />
<path d="M56208 22224
L56208 21909
" />
<path d="M56838 22224
L56208 22224
" />
<path d="M56838 21909
L56838 22224
" />
<path d="M56208 21909
L56838 21909
" />
<path d="M17823 28326
L17823 28011
" />
<path d="M18453 28326
L17823 28326
" />
<path d="M18453 28011
L18453 28326
" />
<path d="M17823 28011
L18453 28011
" />
<path d="M56838 21122
L56838 21437
" />
<path d="M56208 21122
L56838 21122
" />
<path d="M56208 21437
L56208 21122
" />
<path d="M56838 21437
L56208 21437
" />
<path d="M18453 27224
L18453 27539
" />
<path d="M17823 27224
L18453 27224
" />
<path d="M17823 27539
L17823 27224
" />
<path d="M18453 27539
L17823 27539
" />
<path d="M56838 19940
L56838 20255
" />
<path d="M56208 19940
L56838 19940
" />
<path d="M56208 20255
L56208 19940
" />
<path d="M56838 20255
L56208 20255
" />
<path d="M16090 27224
L16090 27539
" />
<path d="M15460 27224
L16090 27224
" />
<path d="M15460 27539
L15460 27224
" />
<path d="M16090 27539
L15460 27539
" />
<path d="M56878 19153
L56878 19468
" />
<path d="M56248 19153
L56878 19153
" />
<path d="M56248 19468
L56248 19153
" />
<path d="M56878 19468
L56248 19468
" />
<path d="M16090 28011
L16090 28326
" />
<path d="M15460 28011
L16090 28011
" />
<path d="M15460 28326
L15460 28011
" />
<path d="M16090 28326
L15460 28326
" />
<path d="M21366 38759
L21366 38444
" />
<path d="M21996 38759
L21366 38759
" />
<path d="M21996 38444
L21996 38759
" />
<path d="M21366 38444
L21996 38444
" />
<path d="M21996 30964
L21996 31279
" />
<path d="M21366 30964
L21996 30964
" />
<path d="M21366 31279
L21366 30964
" />
<path d="M21996 31279
L21366 31279
" />
<path d="M42862 46909
L42862 47224
" />
<path d="M42232 46909
L42862 46909
" />
<path d="M42232 47224
L42232 46909
" />
<path d="M42862 47224
L42232 47224
" />
<path d="M42862 47696
L42862 48011
" />
<path d="M42232 47696
L42862 47696
" />
<path d="M42232 48011
L42232 47696
" />
<path d="M42862 48011
L42232 48011
" />
<path d="M73636 43342
L73636 43027
" />
<path d="M74266 43342
L73636 43342
" />
<path d="M74266 43027
L74266 43342
" />
<path d="M73636 43027
L74266 43027
" />
<path d="M73636 44327
L73636 44012
" />
<path d="M74266 44327
L73636 44327
" />
<path d="M74266 44012
L74266 44327
" />
<path d="M73636 44012
L74266 44012
" />
</g>
<g style="fill:#840000; fill-opacity:0.0; 
stroke:#840000; stroke-width:59.0551; stroke-opacity:1; 
stroke-linecap:round; stroke-linejoin:round;">
<path d="M75487 22994
L75505 23013
L75487 23032
L75468 23013
L75487 22994
L75487 23032
" />
<path d="M75749 22638
L75787 22638
L75824 22657
L75843 22676
L75862 22713
L75880 22788
L75880 22882
L75862 22957
L75843 22994
L75824 23013
L75787 23032
L75749 23032
L75712 23013
L75693 22994
L75674 22957
L75655 22882
L75655 22788
L75674 22713
L75693 22676
L75712 22657
L75749 22638
" />
<path d="M76255 23032
L76030 23032
" />
<path d="M76143 23032
L76143 22638
L76105 22694
L76068 22732
L76030 22751
" />
<path d="M76593 22769
L76593 23032
" />
<path d="M76424 22769
L76424 22976
L76443 23013
L76480 23032
L76537 23032
L76574 23013
L76593 22994
" />
<path d="M76912 22826
L76780 22826
" />
<path d="M76780 23032
L76780 22638
L76968 22638
" />
<path d="M73190 22994
L73171 23013
L73115 23032
L73078 23032
L73021 23013
L72984 22976
L72965 22938
L72946 22863
L72946 22807
L72965 22732
L72984 22694
L73021 22657
L73078 22638
L73115 22638
L73171 22657
L73190 22676
" />
<path d="M73565 23032
L73340 23032
" />
<path d="M73453 23032
L73453 22638
L73415 22694
L73378 22732
L73340 22751
" />
<path d="M66628 22994
L66647 23013
L66628 23032
L66610 23013
L66628 22994
L66628 23032
" />
<path d="M66891 22638
L66928 22638
L66966 22657
L66985 22676
L67003 22713
L67022 22788
L67022 22882
L67003 22957
L66985 22994
L66966 23013
L66928 23032
L66891 23032
L66853 23013
L66835 22994
L66816 22957
L66797 22882
L66797 22788
L66816 22713
L66835 22676
L66853 22657
L66891 22638
" />
<path d="M67397 23032
L67172 23032
" />
<path d="M67285 23032
L67285 22638
L67247 22694
L67210 22732
L67172 22751
" />
<path d="M67735 22769
L67735 23032
" />
<path d="M67566 22769
L67566 22976
L67585 23013
L67622 23032
L67678 23032
L67716 23013
L67735 22994
" />
<path d="M68053 22826
L67922 22826
" />
<path d="M67922 23032
L67922 22638
L68109 22638
" />
<path d="M64135 22994
L64116 23013
L64060 23032
L64023 23032
L63966 23013
L63929 22976
L63910 22938
L63891 22863
L63891 22807
L63910 22732
L63929 22694
L63966 22657
L64023 22638
L64060 22638
L64116 22657
L64135 22676
" />
<path d="M64285 22676
L64304 22657
L64341 22638
L64435 22638
L64472 22657
L64491 22676
L64510 22713
L64510 22751
L64491 22807
L64266 23032
L64510 23032
" />
<path d="M75487 18664
L75505 18682
L75487 18701
L75468 18682
L75487 18664
L75487 18701
" />
<path d="M75749 18308
L75787 18308
L75824 18326
L75843 18345
L75862 18383
L75880 18458
L75880 18551
L75862 18626
L75843 18664
L75824 18682
L75787 18701
L75749 18701
L75712 18682
L75693 18664
L75674 18626
L75655 18551
L75655 18458
L75674 18383
L75693 18345
L75712 18326
L75749 18308
" />
<path d="M76255 18701
L76030 18701
" />
<path d="M76143 18701
L76143 18308
L76105 18364
L76068 18401
L76030 18420
" />
<path d="M76593 18439
L76593 18701
" />
<path d="M76424 18439
L76424 18645
L76443 18682
L76480 18701
L76537 18701
L76574 18682
L76593 18664
" />
<path d="M76912 18495
L76780 18495
" />
<path d="M76780 18701
L76780 18308
L76968 18308
" />
<path d="M73190 18664
L73171 18682
L73115 18701
L73078 18701
L73021 18682
L72984 18645
L72965 18607
L72946 18532
L72946 18476
L72965 18401
L72984 18364
L73021 18326
L73078 18308
L73115 18308
L73171 18326
L73190 18345
" />
<path d="M73321 18308
L73565 18308
L73434 18458
L73490 18458
L73528 18476
L73546 18495
L73565 18532
L73565 18626
L73546 18664
L73528 18682
L73490 18701
L73378 18701
L73340 18682
L73321 18664
" />
<path d="M66628 18664
L66647 18682
L66628 18701
L66610 18682
L66628 18664
L66628 18701
" />
<path d="M66891 18308
L66928 18308
L66966 18326
L66985 18345
L67003 18383
L67022 18458
L67022 18551
L67003 18626
L66985 18664
L66966 18682
L66928 18701
L66891 18701
L66853 18682
L66835 18664
L66816 18626
L66797 18551
L66797 18458
L66816 18383
L66835 18345
L66853 18326
L66891 18308
" />
<path d="M67397 18701
L67172 18701
" />
<path d="M67285 18701
L67285 18308
L67247 18364
L67210 18401
L67172 18420
" />
<path d="M67735 18439
L67735 18701
" />
<path d="M67566 18439
L67566 18645
L67585 18682
L67622 18701
L67678 18701
L67716 18682
L67735 18664
" />
<path d="M68053 18495
L67922 18495
" />
<path d="M67922 18701
L67922 18308
L68109 18308
" />
<path d="M64135 18664
L64116 18682
L64060 18701
L64023 18701
L63966 18682
L63929 18645
L63910 18607
L63891 18532
L63891 18476
L63910 18401
L63929 18364
L63966 18326
L64023 18308
L64060 18308
L64116 18326
L64135 18345
" />
<path d="M64472 18439
L64472 18701
" />
<path d="M64379 18289
L64285 18570
L64529 18570
" />
<path d="M57573 22994
L57592 23013
L57573 23032
L57555 23013
L57573 22994
L57573 23032
" />
<path d="M57836 22638
L57873 22638
L57911 22657
L57930 22676
L57948 22713
L57967 22788
L57967 22882
L57948 22957
L57930 22994
L57911 23013
L57873 23032
L57836 23032
L57798 23013
L57780 22994
L57761 22957
L57742 22882
L57742 22788
L57761 22713
L57780 22676
L57798 22657
L57836 22638
" />
<path d="M58342 23032
L58117 23032
" />
<path d="M58229 23032
L58229 22638
L58192 22694
L58154 22732
L58117 22751
" />
<path d="M58679 22769
L58679 23032
" />
<path d="M58511 22769
L58511 22976
L58529 23013
L58567 23032
L58623 23032
L58661 23013
L58679 22994
" />
<path d="M58998 22826
L58867 22826
" />
<path d="M58867 23032
L58867 22638
L59054 22638
" />
<path d="M54686 22994
L54667 23013
L54611 23032
L54574 23032
L54517 23013
L54480 22976
L54461 22938
L54442 22863
L54442 22807
L54461 22732
L54480 22694
L54517 22657
L54574 22638
L54611 22638
L54667 22657
L54686 22676
" />
<path d="M55042 22638
L54855 22638
L54836 22826
L54855 22807
L54892 22788
L54986 22788
L55024 22807
L55042 22826
L55061 22863
L55061 22957
L55042 22994
L55024 23013
L54986 23032
L54892 23032
L54855 23013
L54836 22994
" />
<path d="M17416 29687
L17435 29706
L17416 29725
L17397 29706
L17416 29687
L17416 29725
" />
<path d="M17678 29331
L17716 29331
L17753 29350
L17772 29369
L17791 29406
L17810 29481
L17810 29575
L17791 29650
L17772 29687
L17753 29706
L17716 29725
L17678 29725
L17641 29706
L17622 29687
L17603 29650
L17585 29575
L17585 29481
L17603 29406
L17622 29369
L17641 29350
L17678 29331
" />
<path d="M18184 29725
L17960 29725
" />
<path d="M18072 29725
L18072 29331
L18034 29387
L17997 29425
L17960 29444
" />
<path d="M18522 29462
L18522 29725
" />
<path d="M18353 29462
L18353 29669
L18372 29706
L18409 29725
L18466 29725
L18503 29706
L18522 29687
" />
<path d="M18841 29519
L18709 29519
" />
<path d="M18709 29725
L18709 29331
L18897 29331
" />
<path d="M18072 30278
L18053 30297
L17997 30315
L17960 30315
L17903 30297
L17866 30259
L17847 30222
L17828 30147
L17828 30090
L17847 30015
L17866 29978
L17903 29940
L17960 29922
L17997 29922
L18053 29940
L18072 29959
" />
<path d="M18409 29922
L18334 29922
L18297 29940
L18278 29959
L18241 30015
L18222 30090
L18222 30240
L18241 30278
L18259 30297
L18297 30315
L18372 30315
L18409 30297
L18428 30278
L18447 30240
L18447 30147
L18428 30109
L18409 30090
L18372 30072
L18297 30072
L18259 30090
L18241 30109
L18222 30147
" />
<path d="M25880 39727
L25899 39745
L25880 39764
L25862 39745
L25880 39727
L25880 39764
" />
<path d="M26143 39371
L26180 39371
L26218 39389
L26237 39408
L26255 39446
L26274 39520
L26274 39614
L26255 39689
L26237 39727
L26218 39745
L26180 39764
L26143 39764
L26105 39745
L26087 39727
L26068 39689
L26049 39614
L26049 39520
L26068 39446
L26087 39408
L26105 39389
L26143 39371
" />
<path d="M26649 39764
L26424 39764
" />
<path d="M26537 39764
L26537 39371
L26499 39427
L26462 39464
L26424 39483
" />
<path d="M26987 39502
L26987 39764
" />
<path d="M26818 39502
L26818 39708
L26837 39745
L26874 39764
L26930 39764
L26968 39745
L26987 39727
" />
<path d="M27305 39558
L27174 39558
" />
<path d="M27174 39764
L27174 39371
L27361 39371
" />
<path d="M24968 39147
L24949 39166
L24893 39185
L24855 39185
L24799 39166
L24762 39128
L24743 39091
L24724 39016
L24724 38960
L24743 38885
L24762 38847
L24799 38810
L24855 38791
L24893 38791
L24949 38810
L24968 38828
" />
<path d="M25099 38791
L25362 38791
L25193 39185
" />
<path d="M26180 40552
L25955 40552
" />
<path d="M26068 40552
L26068 40158
L26030 40214
L25993 40252
L25955 40270
" />
<path d="M26424 40158
L26462 40158
L26499 40177
L26518 40195
L26537 40233
L26555 40308
L26555 40402
L26537 40477
L26518 40514
L26499 40533
L26462 40552
L26424 40552
L26387 40533
L26368 40514
L26349 40477
L26330 40402
L26330 40308
L26349 40233
L26368 40195
L26387 40177
L26424 40158
" />
<path d="M26893 40289
L26893 40552
" />
<path d="M26724 40289
L26724 40495
L26743 40533
L26780 40552
L26837 40552
L26874 40533
L26893 40514
" />
<path d="M27211 40345
L27080 40345
" />
<path d="M27080 40552
L27080 40158
L27268 40158
" />
<path d="M24962 41105
L24943 41123
L24887 41142
L24849 41142
L24793 41123
L24756 41086
L24737 41048
L24718 40973
L24718 40917
L24737 40842
L24756 40805
L24793 40767
L24849 40748
L24887 40748
L24943 40767
L24962 40786
" />
<path d="M25187 40917
L25149 40898
L25130 40880
L25112 40842
L25112 40823
L25130 40786
L25149 40767
L25187 40748
L25262 40748
L25299 40767
L25318 40786
L25337 40823
L25337 40842
L25318 40880
L25299 40898
L25262 40917
L25187 40917
L25149 40936
L25130 40955
L25112 40992
L25112 41067
L25130 41105
L25149 41123
L25187 41142
L25262 41142
L25299 41123
L25318 41105
L25337 41067
L25337 40992
L25318 40955
L25299 40936
L25262 40917
" />
<path d="M57573 18664
L57592 18682
L57573 18701
L57555 18682
L57573 18664
L57573 18701
" />
<path d="M57836 18308
L57873 18308
L57911 18326
L57930 18345
L57948 18383
L57967 18458
L57967 18551
L57948 18626
L57930 18664
L57911 18682
L57873 18701
L57836 18701
L57798 18682
L57780 18664
L57761 18626
L57742 18551
L57742 18458
L57761 18383
L57780 18345
L57798 18326
L57836 18308
" />
<path d="M58342 18701
L58117 18701
" />
<path d="M58229 18701
L58229 18308
L58192 18364
L58154 18401
L58117 18420
" />
<path d="M58679 18439
L58679 18701
" />
<path d="M58511 18439
L58511 18645
L58529 18682
L58567 18701
L58623 18701
L58661 18682
L58679 18664
" />
<path d="M58998 18495
L58867 18495
" />
<path d="M58867 18701
L58867 18308
L59054 18308
" />
<path d="M55080 18664
L55061 18682
L55005 18701
L54967 18701
L54911 18682
L54874 18645
L54855 18607
L54836 18532
L54836 18476
L54855 18401
L54874 18364
L54911 18326
L54967 18308
L55005 18308
L55061 18326
L55080 18345
" />
<path d="M55267 18701
L55342 18701
L55380 18682
L55399 18664
L55436 18607
L55455 18532
L55455 18383
L55436 18345
L55417 18326
L55380 18308
L55305 18308
L55267 18326
L55249 18345
L55230 18383
L55230 18476
L55249 18514
L55267 18532
L55305 18551
L55380 18551
L55417 18532
L55436 18514
L55455 18476
" />
<path d="M15054 29687
L15072 29706
L15054 29725
L15035 29706
L15054 29687
L15054 29725
" />
<path d="M15316 29331
L15354 29331
L15391 29350
L15410 29369
L15429 29406
L15447 29481
L15447 29575
L15429 29650
L15410 29687
L15391 29706
L15354 29725
L15316 29725
L15279 29706
L15260 29687
L15241 29650
L15222 29575
L15222 29481
L15241 29406
L15260 29369
L15279 29350
L15316 29331
" />
<path d="M15822 29725
L15597 29725
" />
<path d="M15710 29725
L15710 29331
L15672 29387
L15635 29425
L15597 29444
" />
<path d="M16160 29462
L16160 29725
" />
<path d="M15991 29462
L15991 29669
L16010 29706
L16047 29725
L16103 29725
L16141 29706
L16160 29687
" />
<path d="M16478 29519
L16347 29519
" />
<path d="M16347 29725
L16347 29331
L16535 29331
" />
<path d="M15522 30278
L15504 30297
L15447 30315
L15410 30315
L15354 30297
L15316 30259
L15297 30222
L15279 30147
L15279 30090
L15297 30015
L15316 29978
L15354 29940
L15410 29922
L15447 29922
L15504 29940
L15522 29959
" />
<path d="M15897 30315
L15672 30315
" />
<path d="M15785 30315
L15785 29922
L15747 29978
L15710 30015
L15672 30034
" />
<path d="M16141 29922
L16178 29922
L16216 29940
L16235 29959
L16253 29997
L16272 30072
L16272 30165
L16253 30240
L16235 30278
L16216 30297
L16178 30315
L16141 30315
L16103 30297
L16085 30278
L16066 30240
L16047 30165
L16047 30072
L16066 29997
L16085 29959
L16103 29940
L16141 29922
" />
<path d="M18991 33034
L19009 33053
L18991 33071
L18972 33053
L18991 33034
L18991 33071
" />
<path d="M19253 32678
L19291 32678
L19328 32696
L19347 32715
L19366 32753
L19384 32828
L19384 32921
L19366 32996
L19347 33034
L19328 33053
L19291 33071
L19253 33071
L19216 33053
L19197 33034
L19178 32996
L19159 32921
L19159 32828
L19178 32753
L19197 32715
L19216 32696
L19253 32678
" />
<path d="M19759 33071
L19534 33071
" />
<path d="M19647 33071
L19647 32678
L19609 32734
L19572 32771
L19534 32790
" />
<path d="M20097 32809
L20097 33071
" />
<path d="M19928 32809
L19928 33015
L19947 33053
L19984 33071
L20040 33071
L20078 33053
L20097 33034
" />
<path d="M20415 32865
L20284 32865
" />
<path d="M20284 33071
L20284 32678
L20472 32678
" />
<path d="M18081 32443
L18063 32462
L18006 32481
L17969 32481
L17913 32462
L17875 32425
L17856 32387
L17838 32312
L17838 32256
L17856 32181
L17875 32143
L17913 32106
L17969 32087
L18006 32087
L18063 32106
L18081 32125
" />
<path d="M18456 32481
L18231 32481
" />
<path d="M18344 32481
L18344 32087
L18306 32143
L18269 32181
L18231 32200
" />
<path d="M18831 32481
L18606 32481
" />
<path d="M18719 32481
L18719 32087
L18681 32143
L18644 32181
L18606 32200
" />
<path d="M19291 31103
L19066 31103
" />
<path d="M19178 31103
L19178 30709
L19141 30765
L19103 30803
L19066 30822
" />
<path d="M19534 30709
L19572 30709
L19609 30728
L19628 30747
L19647 30784
L19666 30859
L19666 30953
L19647 31028
L19628 31065
L19609 31084
L19572 31103
L19534 31103
L19497 31084
L19478 31065
L19459 31028
L19441 30953
L19441 30859
L19459 30784
L19478 30747
L19497 30728
L19534 30709
" />
<path d="M20003 30840
L20003 31103
" />
<path d="M19834 30840
L19834 31047
L19853 31084
L19891 31103
L19947 31103
L19984 31084
L20003 31065
" />
<path d="M20322 30897
L20190 30897
" />
<path d="M20190 31103
L20190 30709
L20378 30709
" />
<path d="M18081 31656
L18063 31675
L18006 31693
L17969 31693
L17913 31675
L17875 31637
L17856 31600
L17838 31525
L17838 31468
L17856 31393
L17875 31356
L17913 31318
L17969 31300
L18006 31300
L18063 31318
L18081 31337
" />
<path d="M18456 31693
L18231 31693
" />
<path d="M18344 31693
L18344 31300
L18306 31356
L18269 31393
L18231 31412
" />
<path d="M18606 31337
L18625 31318
L18663 31300
L18756 31300
L18794 31318
L18813 31337
L18831 31375
L18831 31412
L18813 31468
L18588 31693
L18831 31693
" />
<path d="M6973 9459
L6955 9440
L6936 9384
L6936 9346
L6955 9290
L6992 9252
L7030 9234
L7105 9215
L7161 9215
L7236 9234
L7273 9252
L7311 9290
L7330 9346
L7330 9384
L7311 9440
L7292 9459
" />
<path d="M7330 9702
L7330 9777
L7311 9815
L7273 9852
L7198 9871
L7067 9871
L6992 9852
L6955 9815
L6936 9777
L6936 9702
L6955 9665
L6992 9627
L7067 9609
L7198 9609
L7273 9627
L7311 9665
L7330 9702
" />
<path d="M6936 10040
L7330 10040
L6936 10265
L7330 10265
" />
<path d="M6936 10452
L7330 10452
L6936 10677
L7330 10677
" />
<path d="M6898 10771
L6898 11071
" />
<path d="M7330 11240
L7330 11277
L7311 11315
L7292 11333
L7255 11352
L7180 11371
L7086 11371
L7011 11352
L6973 11333
L6955 11315
L6936 11277
L6936 11240
L6955 11202
L6973 11183
L7011 11165
L7086 11146
L7180 11146
L7255 11165
L7292 11183
L7311 11202
L7330 11240
" />
<path d="M6936 11746
L6936 11521
" />
<path d="M6936 11633
L7330 11633
L7273 11596
L7236 11558
L7217 11521
" />
<path d="M7330 11877
L6936 12140
" />
<path d="M7330 12140
L6936 11877
" />
<path d="M7330 12365
L7330 12402
L7311 12440
L7292 12458
L7255 12477
L7180 12496
L7086 12496
L7011 12477
L6973 12458
L6955 12440
L6936 12402
L6936 12365
L6955 12327
L6973 12308
L7011 12290
L7086 12271
L7180 12271
L7255 12290
L7292 12308
L7311 12327
L7330 12365
" />
<path d="M7161 12721
L7180 12683
L7198 12664
L7236 12646
L7255 12646
L7292 12664
L7311 12683
L7330 12721
L7330 12796
L7311 12833
L7292 12852
L7255 12871
L7236 12871
L7198 12852
L7180 12833
L7161 12796
L7161 12721
L7142 12683
L7123 12664
L7086 12646
L7011 12646
L6973 12664
L6955 12683
L6936 12721
L6936 12796
L6955 12833
L6973 12852
L7011 12871
L7086 12871
L7123 12852
L7142 12833
L7161 12796
" />
<path d="M62223 56459
L62204 56478
L62148 56497
L62110 56497
L62054 56478
L62017 56440
L61998 56403
L61979 56328
L61979 56272
L61998 56197
L62017 56159
L62054 56122
L62110 56103
L62148 56103
L62204 56122
L62223 56140
" />
<path d="M62466 56103
L62541 56103
L62579 56122
L62616 56159
L62635 56234
L62635 56365
L62616 56440
L62579 56478
L62541 56497
L62466 56497
L62429 56478
L62391 56440
L62373 56365
L62373 56234
L62391 56159
L62429 56122
L62466 56103
" />
<path d="M62804 56497
L62804 56103
L63029 56497
L63029 56103
" />
<path d="M63216 56497
L63216 56103
L63441 56497
L63441 56103
" />
<path d="M63535 56534
L63835 56534
" />
<path d="M64004 56103
L64041 56103
L64079 56122
L64097 56140
L64116 56178
L64135 56253
L64135 56347
L64116 56422
L64097 56459
L64079 56478
L64041 56497
L64004 56497
L63966 56478
L63948 56459
L63929 56422
L63910 56347
L63910 56253
L63929 56178
L63948 56140
L63966 56122
L64004 56103
" />
<path d="M64510 56497
L64285 56497
" />
<path d="M64397 56497
L64397 56103
L64360 56159
L64322 56197
L64285 56215
" />
<path d="M64641 56103
L64904 56497
" />
<path d="M64904 56103
L64641 56497
" />
<path d="M65129 56103
L65166 56103
L65204 56122
L65222 56140
L65241 56178
L65260 56253
L65260 56347
L65241 56422
L65222 56459
L65204 56478
L65166 56497
L65129 56497
L65091 56478
L65072 56459
L65054 56422
L65035 56347
L65035 56253
L65054 56178
L65072 56140
L65091 56122
L65129 56103
" />
<path d="M65597 56234
L65597 56497
" />
<path d="M65504 56084
L65410 56365
L65654 56365
" />
<path d="M69900 56459
L69881 56478
L69825 56497
L69787 56497
L69731 56478
L69694 56440
L69675 56403
L69656 56328
L69656 56272
L69675 56197
L69694 56159
L69731 56122
L69787 56103
L69825 56103
L69881 56122
L69900 56140
" />
<path d="M70144 56103
L70219 56103
L70256 56122
L70294 56159
L70312 56234
L70312 56365
L70294 56440
L70256 56478
L70219 56497
L70144 56497
L70106 56478
L70069 56440
L70050 56365
L70050 56234
L70069 56159
L70106 56122
L70144 56103
" />
<path d="M70481 56497
L70481 56103
L70706 56497
L70706 56103
" />
<path d="M70894 56497
L70894 56103
L71118 56497
L71118 56103
" />
<path d="M71212 56534
L71512 56534
" />
<path d="M71681 56103
L71718 56103
L71756 56122
L71775 56140
L71793 56178
L71812 56253
L71812 56347
L71793 56422
L71775 56459
L71756 56478
L71718 56497
L71681 56497
L71643 56478
L71625 56459
L71606 56422
L71587 56347
L71587 56253
L71606 56178
L71625 56140
L71643 56122
L71681 56103
" />
<path d="M72187 56497
L71962 56497
" />
<path d="M72075 56497
L72075 56103
L72037 56159
L72000 56197
L71962 56215
" />
<path d="M72318 56103
L72581 56497
" />
<path d="M72581 56103
L72318 56497
" />
<path d="M72806 56103
L72843 56103
L72881 56122
L72900 56140
L72918 56178
L72937 56253
L72937 56347
L72918 56422
L72900 56459
L72881 56478
L72843 56497
L72806 56497
L72768 56478
L72750 56459
L72731 56422
L72712 56347
L72712 56253
L72731 56178
L72750 56140
L72768 56122
L72806 56103
" />
<path d="M73068 56103
L73312 56103
L73181 56253
L73237 56253
L73274 56272
L73293 56290
L73312 56328
L73312 56422
L73293 56459
L73274 56478
L73237 56497
L73124 56497
L73087 56478
L73068 56459
" />
<path d="M67735 37754
L67716 37773
L67660 37792
L67622 37792
L67566 37773
L67528 37736
L67510 37698
L67491 37623
L67491 37567
L67510 37492
L67528 37454
L67566 37417
L67622 37398
L67660 37398
L67716 37417
L67735 37436
" />
<path d="M67978 37398
L68053 37398
L68091 37417
L68128 37454
L68147 37529
L68147 37661
L68128 37736
L68091 37773
L68053 37792
L67978 37792
L67941 37773
L67903 37736
L67885 37661
L67885 37529
L67903 37454
L67941 37417
L67978 37398
" />
<path d="M68316 37792
L68316 37398
L68541 37792
L68541 37398
" />
<path d="M68728 37792
L68728 37398
L68953 37792
L68953 37398
" />
<path d="M69047 37829
L69347 37829
" />
<path d="M69516 37398
L69553 37398
L69591 37417
L69609 37436
L69628 37473
L69647 37548
L69647 37642
L69628 37717
L69609 37754
L69591 37773
L69553 37792
L69516 37792
L69478 37773
L69459 37754
L69441 37717
L69422 37642
L69422 37548
L69441 37473
L69459 37436
L69478 37417
L69516 37398
" />
<path d="M70022 37792
L69797 37792
" />
<path d="M69909 37792
L69909 37398
L69872 37454
L69834 37492
L69797 37511
" />
<path d="M70153 37398
L70415 37792
" />
<path d="M70415 37398
L70153 37792
" />
<path d="M70640 37398
L70678 37398
L70715 37417
L70734 37436
L70753 37473
L70772 37548
L70772 37642
L70753 37717
L70734 37754
L70715 37773
L70678 37792
L70640 37792
L70603 37773
L70584 37754
L70565 37717
L70547 37642
L70547 37548
L70565 37473
L70584 37436
L70603 37417
L70640 37398
" />
<path d="M71109 37529
L71109 37792
" />
<path d="M71015 37379
L70922 37661
L71165 37661
" />
<path d="M28955 45447
L28936 45466
L28880 45485
L28843 45485
L28786 45466
L28749 45428
L28730 45391
L28711 45316
L28711 45260
L28730 45185
L28749 45147
L28786 45110
L28843 45091
L28880 45091
L28936 45110
L28955 45128
" />
<path d="M29199 45091
L29274 45091
L29311 45110
L29349 45147
L29367 45222
L29367 45353
L29349 45428
L29311 45466
L29274 45485
L29199 45485
L29161 45466
L29124 45428
L29105 45353
L29105 45222
L29124 45147
L29161 45110
L29199 45091
" />
<path d="M29536 45485
L29536 45091
L29761 45485
L29761 45091
" />
<path d="M29949 45485
L29949 45091
L30174 45485
L30174 45091
" />
<path d="M30267 45522
L30567 45522
" />
<path d="M30736 45091
L30774 45091
L30811 45110
L30830 45128
L30849 45166
L30867 45241
L30867 45335
L30849 45410
L30830 45447
L30811 45466
L30774 45485
L30736 45485
L30699 45466
L30680 45447
L30661 45410
L30642 45335
L30642 45241
L30661 45166
L30680 45128
L30699 45110
L30736 45091
" />
<path d="M31242 45485
L31017 45485
" />
<path d="M31130 45485
L31130 45091
L31092 45147
L31055 45185
L31017 45203
" />
<path d="M31373 45091
L31636 45485
" />
<path d="M31636 45091
L31373 45485
" />
<path d="M31861 45091
L31898 45091
L31936 45110
L31955 45128
L31973 45166
L31992 45241
L31992 45335
L31973 45410
L31955 45447
L31936 45466
L31898 45485
L31861 45485
L31823 45466
L31805 45447
L31786 45410
L31767 45335
L31767 45241
L31786 45166
L31805 45128
L31823 45110
L31861 45091
" />
<path d="M32123 45091
L32367 45091
L32236 45241
L32292 45241
L32330 45260
L32348 45278
L32367 45316
L32367 45410
L32348 45447
L32330 45466
L32292 45485
L32180 45485
L32142 45466
L32123 45447
" />
<path d="M83745 31900
L83726 31881
L83708 31825
L83708 31787
L83726 31731
L83764 31693
L83801 31675
L83876 31656
L83933 31656
L84008 31675
L84045 31693
L84082 31731
L84101 31787
L84101 31825
L84082 31881
L84064 31900
" />
<path d="M84101 32143
L84101 32218
L84082 32256
L84045 32293
L83970 32312
L83839 32312
L83764 32293
L83726 32256
L83708 32218
L83708 32143
L83726 32106
L83764 32068
L83839 32050
L83970 32050
L84045 32068
L84082 32106
L84101 32143
" />
<path d="M83708 32481
L84101 32481
L83708 32706
L84101 32706
" />
<path d="M83708 32893
L84101 32893
L83708 33118
L84101 33118
" />
<path d="M83670 33212
L83670 33512
" />
<path d="M84101 33681
L84101 33718
L84082 33756
L84064 33774
L84026 33793
L83951 33812
L83858 33812
L83783 33793
L83745 33774
L83726 33756
L83708 33718
L83708 33681
L83726 33643
L83745 33624
L83783 33606
L83858 33587
L83951 33587
L84026 33606
L84064 33624
L84082 33643
L84101 33681
" />
<path d="M83708 34187
L83708 33962
" />
<path d="M83708 34074
L84101 34074
L84045 34037
L84008 33999
L83989 33962
" />
<path d="M84101 34318
L83708 34580
" />
<path d="M84101 34580
L83708 34318
" />
<path d="M84101 34805
L84101 34843
L84082 34880
L84064 34899
L84026 34918
L83951 34937
L83858 34937
L83783 34918
L83745 34899
L83726 34880
L83708 34843
L83708 34805
L83726 34768
L83745 34749
L83783 34730
L83858 34712
L83951 34712
L84026 34730
L84064 34749
L84082 34768
L84101 34805
" />
<path d="M83970 35274
L83708 35274
" />
<path d="M84120 35180
L83839 35087
L83839 35330
" />
<path d="M83745 24419
L83726 24401
L83708 24344
L83708 24307
L83726 24251
L83764 24213
L83801 24194
L83876 24176
L83933 24176
L84008 24194
L84045 24213
L84082 24251
L84101 24307
L84101 24344
L84082 24401
L84064 24419
" />
<path d="M84101 24663
L84101 24738
L84082 24775
L84045 24813
L83970 24832
L83839 24832
L83764 24813
L83726 24775
L83708 24738
L83708 24663
L83726 24625
L83764 24588
L83839 24569
L83970 24569
L84045 24588
L84082 24625
L84101 24663
" />
<path d="M83708 25000
L84101 25000
L83708 25225
L84101 25225
" />
<path d="M83708 25413
L84101 25413
L83708 25638
L84101 25638
" />
<path d="M83670 25732
L83670 26032
" />
<path d="M84101 26200
L84101 26238
L84082 26275
L84064 26294
L84026 26313
L83951 26332
L83858 26332
L83783 26313
L83745 26294
L83726 26275
L83708 26238
L83708 26200
L83726 26163
L83745 26144
L83783 26125
L83858 26107
L83951 26107
L84026 26125
L84064 26144
L84082 26163
L84101 26200
" />
<path d="M83708 26706
L83708 26482
" />
<path d="M83708 26594
L84101 26594
L84045 26556
L84008 26519
L83989 26482
" />
<path d="M84101 26838
L83708 27100
" />
<path d="M84101 27100
L83708 26838
" />
<path d="M84101 27325
L84101 27363
L84082 27400
L84064 27419
L84026 27438
L83951 27456
L83858 27456
L83783 27438
L83745 27419
L83726 27400
L83708 27363
L83708 27325
L83726 27288
L83745 27269
L83783 27250
L83858 27231
L83951 27231
L84026 27250
L84064 27269
L84082 27288
L84101 27325
" />
<path d="M83970 27794
L83708 27794
" />
<path d="M84120 27700
L83839 27606
L83839 27850
" />
<path d="M280 29931
L262 29912
L243 29856
L243 29819
L262 29762
L299 29725
L337 29706
L412 29687
L468 29687
L543 29706
L580 29725
L618 29762
L637 29819
L637 29856
L618 29912
L599 29931
" />
<path d="M637 30175
L637 30250
L618 30287
L580 30325
L505 30344
L374 30344
L299 30325
L262 30287
L243 30250
L243 30175
L262 30137
L299 30100
L374 30081
L505 30081
L580 30100
L618 30137
L637 30175
" />
<path d="M243 30512
L637 30512
L243 30737
L637 30737
" />
<path d="M243 30925
L637 30925
L243 31150
L637 31150
" />
<path d="M205 31243
L205 31543
" />
<path d="M637 31712
L637 31750
L618 31787
L599 31806
L562 31825
L487 31843
L393 31843
L318 31825
L280 31806
L262 31787
L243 31750
L243 31712
L262 31675
L280 31656
L318 31637
L393 31618
L487 31618
L562 31637
L599 31656
L618 31675
L637 31712
" />
<path d="M243 32218
L243 31993
" />
<path d="M243 32106
L637 32106
L580 32068
L543 32031
L524 31993
" />
<path d="M637 32350
L243 32612
" />
<path d="M637 32612
L243 32350
" />
<path d="M637 32837
L637 32874
L618 32912
L599 32931
L562 32949
L487 32968
L393 32968
L318 32949
L280 32931
L262 32912
L243 32874
L243 32837
L262 32799
L280 32781
L318 32762
L393 32743
L487 32743
L562 32762
L599 32781
L618 32799
L637 32837
" />
<path d="M505 33306
L243 33306
" />
<path d="M655 33212
L374 33118
L374 33362
" />
<path d="M26002 42479
L25984 42497
L25927 42516
L25890 42516
L25834 42497
L25796 42460
L25777 42422
L25759 42347
L25759 42291
L25777 42216
L25796 42179
L25834 42141
L25890 42122
L25927 42122
L25984 42141
L26002 42160
" />
<path d="M26246 42122
L26321 42122
L26358 42141
L26396 42179
L26415 42254
L26415 42385
L26396 42460
L26358 42497
L26321 42516
L26246 42516
L26208 42497
L26171 42460
L26152 42385
L26152 42254
L26171 42179
L26208 42141
L26246 42122
" />
<path d="M26583 42516
L26583 42122
L26808 42516
L26808 42122
" />
<path d="M26996 42516
L26996 42122
L27221 42516
L27221 42122
" />
<path d="M27315 42554
L27615 42554
" />
<path d="M27783 42122
L27821 42122
L27858 42141
L27877 42160
L27896 42197
L27915 42272
L27915 42366
L27896 42441
L27877 42479
L27858 42497
L27821 42516
L27783 42516
L27746 42497
L27727 42479
L27708 42441
L27690 42366
L27690 42272
L27708 42197
L27727 42160
L27746 42141
L27783 42122
" />
<path d="M28289 42516
L28064 42516
" />
<path d="M28177 42516
L28177 42122
L28139 42179
L28102 42216
L28064 42235
" />
<path d="M28421 42122
L28683 42516
" />
<path d="M28683 42122
L28421 42516
" />
<path d="M28908 42122
L28946 42122
L28983 42141
L29002 42160
L29021 42197
L29039 42272
L29039 42366
L29021 42441
L29002 42479
L28983 42497
L28946 42516
L28908 42516
L28871 42497
L28852 42479
L28833 42441
L28814 42366
L28814 42272
L28833 42197
L28852 42160
L28871 42141
L28908 42122
" />
<path d="M29377 42122
L29302 42122
L29264 42141
L29246 42160
L29208 42216
L29189 42291
L29189 42441
L29208 42479
L29227 42497
L29264 42516
L29339 42516
L29377 42497
L29396 42479
L29414 42441
L29414 42347
L29396 42310
L29377 42291
L29339 42272
L29264 42272
L29227 42291
L29208 42310
L29189 42347
" />
<path d="M37813 44494
L37795 44513
L37738 44532
L37701 44532
L37645 44513
L37607 44476
L37588 44438
L37570 44363
L37570 44307
L37588 44232
L37607 44194
L37645 44157
L37701 44138
L37738 44138
L37795 44157
L37813 44176
" />
<path d="M38057 44138
L38132 44138
L38169 44157
L38207 44194
L38226 44269
L38226 44401
L38207 44476
L38169 44513
L38132 44532
L38057 44532
L38020 44513
L37982 44476
L37963 44401
L37963 44269
L37982 44194
L38020 44157
L38057 44138
" />
<path d="M38394 44532
L38394 44138
L38619 44532
L38619 44138
" />
<path d="M38807 44532
L38807 44138
L39032 44532
L39032 44138
" />
<path d="M39126 44569
L39426 44569
" />
<path d="M39594 44138
L39632 44138
L39669 44157
L39688 44176
L39707 44213
L39726 44288
L39726 44382
L39707 44457
L39688 44494
L39669 44513
L39632 44532
L39594 44532
L39557 44513
L39538 44494
L39519 44457
L39501 44382
L39501 44288
L39519 44213
L39538 44176
L39557 44157
L39594 44138
" />
<path d="M40100 44532
L39876 44532
" />
<path d="M39988 44532
L39988 44138
L39951 44194
L39913 44232
L39876 44251
" />
<path d="M40232 44138
L40494 44532
" />
<path d="M40494 44138
L40232 44532
" />
<path d="M40719 44138
L40757 44138
L40794 44157
L40813 44176
L40832 44213
L40850 44288
L40850 44382
L40832 44457
L40813 44494
L40794 44513
L40757 44532
L40719 44532
L40682 44513
L40663 44494
L40644 44457
L40625 44382
L40625 44288
L40644 44213
L40663 44176
L40682 44157
L40719 44138
" />
<path d="M41188 44269
L41188 44532
" />
<path d="M41094 44119
L41000 44401
L41244 44401
" />
<path d="M34861 44447
L34842 44466
L34786 44485
L34748 44485
L34692 44466
L34654 44428
L34636 44391
L34617 44316
L34617 44260
L34636 44185
L34654 44147
L34692 44110
L34748 44091
L34786 44091
L34842 44110
L34861 44128
" />
<path d="M35104 44091
L35179 44091
L35217 44110
L35254 44147
L35273 44222
L35273 44353
L35254 44428
L35217 44466
L35179 44485
L35104 44485
L35067 44466
L35029 44428
L35011 44353
L35011 44222
L35029 44147
L35067 44110
L35104 44091
" />
<path d="M35442 44485
L35442 44091
L35667 44485
L35667 44091
" />
<path d="M35854 44485
L35854 44091
L36079 44485
L36079 44091
" />
<path d="M36173 44522
L36473 44522
" />
<path d="M36642 44091
L36679 44091
L36717 44110
L36735 44128
L36754 44166
L36773 44241
L36773 44335
L36754 44410
L36735 44447
L36717 44466
L36679 44485
L36642 44485
L36604 44466
L36585 44447
L36567 44410
L36548 44335
L36548 44241
L36567 44166
L36585 44128
L36604 44110
L36642 44091
" />
<path d="M37148 44485
L36923 44485
" />
<path d="M37035 44485
L37035 44091
L36998 44147
L36960 44185
L36923 44203
" />
<path d="M37279 44091
L37541 44485
" />
<path d="M37541 44091
L37279 44485
" />
<path d="M37766 44091
L37804 44091
L37841 44110
L37860 44128
L37879 44166
L37898 44241
L37898 44335
L37879 44410
L37860 44447
L37841 44466
L37804 44485
L37766 44485
L37729 44466
L37710 44447
L37691 44410
L37673 44335
L37673 44241
L37691 44166
L37710 44128
L37729 44110
L37766 44091
" />
<path d="M38235 44222
L38235 44485
" />
<path d="M38141 44072
L38048 44353
L38291 44353
" />
<path d="M53561 45479
L53543 45497
L53486 45516
L53449 45516
L53393 45497
L53355 45460
L53336 45422
L53318 45347
L53318 45291
L53336 45216
L53355 45179
L53393 45141
L53449 45122
L53486 45122
L53543 45141
L53561 45160
" />
<path d="M53805 45122
L53880 45122
L53918 45141
L53955 45179
L53974 45254
L53974 45385
L53955 45460
L53918 45497
L53880 45516
L53805 45516
L53768 45497
L53730 45460
L53711 45385
L53711 45254
L53730 45179
L53768 45141
L53805 45122
" />
<path d="M54142 45516
L54142 45122
L54367 45516
L54367 45122
" />
<path d="M54555 45516
L54555 45122
L54780 45516
L54780 45122
" />
<path d="M54874 45554
L55174 45554
" />
<path d="M55342 45122
L55380 45122
L55417 45141
L55436 45160
L55455 45197
L55474 45272
L55474 45366
L55455 45441
L55436 45479
L55417 45497
L55380 45516
L55342 45516
L55305 45497
L55286 45479
L55267 45441
L55249 45366
L55249 45272
L55267 45197
L55286 45160
L55305 45141
L55342 45122
" />
<path d="M55849 45516
L55624 45516
" />
<path d="M55736 45516
L55736 45122
L55699 45179
L55661 45216
L55624 45235
" />
<path d="M55980 45122
L56242 45516
" />
<path d="M56242 45122
L55980 45516
" />
<path d="M56467 45122
L56505 45122
L56542 45141
L56561 45160
L56580 45197
L56598 45272
L56598 45366
L56580 45441
L56561 45479
L56542 45497
L56505 45516
L56467 45516
L56430 45497
L56411 45479
L56392 45441
L56373 45366
L56373 45272
L56392 45197
L56411 45160
L56430 45141
L56467 45122
" />
<path d="M56730 45122
L56973 45122
L56842 45272
L56898 45272
L56936 45291
L56955 45310
L56973 45347
L56973 45441
L56955 45479
L56936 45497
L56898 45516
L56786 45516
L56748 45497
L56730 45479
" />
<path d="M47656 45479
L47637 45497
L47581 45516
L47543 45516
L47487 45497
L47450 45460
L47431 45422
L47412 45347
L47412 45291
L47431 45216
L47450 45179
L47487 45141
L47543 45122
L47581 45122
L47637 45141
L47656 45160
" />
<path d="M47900 45122
L47975 45122
L48012 45141
L48049 45179
L48068 45254
L48068 45385
L48049 45460
L48012 45497
L47975 45516
L47900 45516
L47862 45497
L47825 45460
L47806 45385
L47806 45254
L47825 45179
L47862 45141
L47900 45122
" />
<path d="M48237 45516
L48237 45122
L48462 45516
L48462 45122
" />
<path d="M48649 45516
L48649 45122
L48874 45516
L48874 45122
" />
<path d="M48968 45554
L49268 45554
" />
<path d="M49437 45122
L49474 45122
L49512 45141
L49531 45160
L49549 45197
L49568 45272
L49568 45366
L49549 45441
L49531 45479
L49512 45497
L49474 45516
L49437 45516
L49399 45497
L49381 45479
L49362 45441
L49343 45366
L49343 45272
L49362 45197
L49381 45160
L49399 45141
L49437 45122
" />
<path d="M49943 45516
L49718 45516
" />
<path d="M49831 45516
L49831 45122
L49793 45179
L49756 45216
L49718 45235
" />
<path d="M50074 45122
L50337 45516
" />
<path d="M50337 45122
L50074 45516
" />
<path d="M50562 45122
L50599 45122
L50637 45141
L50655 45160
L50674 45197
L50693 45272
L50693 45366
L50674 45441
L50655 45479
L50637 45497
L50599 45516
L50562 45516
L50524 45497
L50505 45479
L50487 45441
L50468 45366
L50468 45272
L50487 45197
L50505 45160
L50524 45141
L50562 45122
" />
<path d="M50824 45122
L51068 45122
L50937 45272
L50993 45272
L51030 45291
L51049 45310
L51068 45347
L51068 45441
L51049 45479
L51030 45497
L50993 45516
L50880 45516
L50843 45497
L50824 45479
" />
<path d="M50609 45479
L50590 45497
L50534 45516
L50496 45516
L50440 45497
L50402 45460
L50384 45422
L50365 45347
L50365 45291
L50384 45216
L50402 45179
L50440 45141
L50496 45122
L50534 45122
L50590 45141
L50609 45160
" />
<path d="M50852 45122
L50927 45122
L50965 45141
L51002 45179
L51021 45254
L51021 45385
L51002 45460
L50965 45497
L50927 45516
L50852 45516
L50815 45497
L50777 45460
L50759 45385
L50759 45254
L50777 45179
L50815 45141
L50852 45122
" />
<path d="M51190 45516
L51190 45122
L51415 45516
L51415 45122
" />
<path d="M51602 45516
L51602 45122
L51827 45516
L51827 45122
" />
<path d="M51921 45554
L52221 45554
" />
<path d="M52390 45122
L52427 45122
L52465 45141
L52483 45160
L52502 45197
L52521 45272
L52521 45366
L52502 45441
L52483 45479
L52465 45497
L52427 45516
L52390 45516
L52352 45497
L52333 45479
L52315 45441
L52296 45366
L52296 45272
L52315 45197
L52333 45160
L52352 45141
L52390 45122
" />
<path d="M52896 45516
L52671 45516
" />
<path d="M52783 45516
L52783 45122
L52746 45179
L52708 45216
L52671 45235
" />
<path d="M53027 45122
L53289 45516
" />
<path d="M53289 45122
L53027 45516
" />
<path d="M53514 45122
L53552 45122
L53589 45141
L53608 45160
L53627 45197
L53646 45272
L53646 45366
L53627 45441
L53608 45479
L53589 45497
L53552 45516
L53514 45516
L53477 45497
L53458 45479
L53439 45441
L53421 45366
L53421 45272
L53439 45197
L53458 45160
L53477 45141
L53514 45122
" />
<path d="M53777 45122
L54021 45122
L53889 45272
L53946 45272
L53983 45291
L54002 45310
L54021 45347
L54021 45441
L54002 45479
L53983 45497
L53946 45516
L53833 45516
L53796 45497
L53777 45479
" />
<path d="M44703 45479
L44684 45497
L44628 45516
L44591 45516
L44534 45497
L44497 45460
L44478 45422
L44459 45347
L44459 45291
L44478 45216
L44497 45179
L44534 45141
L44591 45122
L44628 45122
L44684 45141
L44703 45160
" />
<path d="M44947 45122
L45022 45122
L45059 45141
L45097 45179
L45115 45254
L45115 45385
L45097 45460
L45059 45497
L45022 45516
L44947 45516
L44909 45497
L44872 45460
L44853 45385
L44853 45254
L44872 45179
L44909 45141
L44947 45122
" />
<path d="M45284 45516
L45284 45122
L45509 45516
L45509 45122
" />
<path d="M45697 45516
L45697 45122
L45922 45516
L45922 45122
" />
<path d="M46015 45554
L46315 45554
" />
<path d="M46484 45122
L46522 45122
L46559 45141
L46578 45160
L46597 45197
L46615 45272
L46615 45366
L46597 45441
L46578 45479
L46559 45497
L46522 45516
L46484 45516
L46447 45497
L46428 45479
L46409 45441
L46390 45366
L46390 45272
L46409 45197
L46428 45160
L46447 45141
L46484 45122
" />
<path d="M46990 45516
L46765 45516
" />
<path d="M46878 45516
L46878 45122
L46840 45179
L46803 45216
L46765 45235
" />
<path d="M47121 45122
L47384 45516
" />
<path d="M47384 45122
L47121 45516
" />
<path d="M47609 45122
L47646 45122
L47684 45141
L47703 45160
L47721 45197
L47740 45272
L47740 45366
L47721 45441
L47703 45479
L47684 45497
L47646 45516
L47609 45516
L47571 45497
L47553 45479
L47534 45441
L47515 45366
L47515 45272
L47534 45197
L47553 45160
L47571 45141
L47609 45122
" />
<path d="M47871 45122
L48115 45122
L47984 45272
L48040 45272
L48078 45291
L48096 45310
L48115 45347
L48115 45441
L48096 45479
L48078 45497
L48040 45516
L47928 45516
L47890 45497
L47871 45479
" />
<path d="M31908 44447
L31889 44466
L31833 44485
L31795 44485
L31739 44466
L31702 44428
L31683 44391
L31664 44316
L31664 44260
L31683 44185
L31702 44147
L31739 44110
L31795 44091
L31833 44091
L31889 44110
L31908 44128
" />
<path d="M32151 44091
L32226 44091
L32264 44110
L32301 44147
L32320 44222
L32320 44353
L32301 44428
L32264 44466
L32226 44485
L32151 44485
L32114 44466
L32076 44428
L32058 44353
L32058 44222
L32076 44147
L32114 44110
L32151 44091
" />
<path d="M32489 44485
L32489 44091
L32714 44485
L32714 44091
" />
<path d="M32901 44485
L32901 44091
L33126 44485
L33126 44091
" />
<path d="M33220 44522
L33520 44522
" />
<path d="M33689 44091
L33726 44091
L33764 44110
L33783 44128
L33801 44166
L33820 44241
L33820 44335
L33801 44410
L33783 44447
L33764 44466
L33726 44485
L33689 44485
L33651 44466
L33633 44447
L33614 44410
L33595 44335
L33595 44241
L33614 44166
L33633 44128
L33651 44110
L33689 44091
" />
<path d="M34195 44485
L33970 44485
" />
<path d="M34082 44485
L34082 44091
L34045 44147
L34008 44185
L33970 44203
" />
<path d="M34326 44091
L34589 44485
" />
<path d="M34589 44091
L34326 44485
" />
<path d="M34814 44091
L34851 44091
L34889 44110
L34907 44128
L34926 44166
L34945 44241
L34945 44335
L34926 44410
L34907 44447
L34889 44466
L34851 44485
L34814 44485
L34776 44466
L34757 44447
L34739 44410
L34720 44335
L34720 44241
L34739 44166
L34757 44128
L34776 44110
L34814 44091
" />
<path d="M35282 44222
L35282 44485
" />
<path d="M35189 44072
L35095 44353
L35339 44353
" />
<path d="M21418 33485
L21193 33485
" />
<path d="M21306 33485
L21306 33091
L21268 33147
L21231 33185
L21193 33203
" />
<path d="M21568 33128
L21587 33110
L21625 33091
L21718 33091
L21756 33110
L21775 33128
L21793 33166
L21793 33203
L21775 33260
L21550 33485
L21793 33485
" />
<path d="M22037 33091
L22075 33091
L22112 33110
L22131 33128
L22150 33166
L22168 33241
L22168 33335
L22150 33410
L22131 33447
L22112 33466
L22075 33485
L22037 33485
L22000 33466
L21981 33447
L21962 33410
L21943 33335
L21943 33241
L21962 33166
L21981 33128
L22000 33110
L22037 33091
" />
<path d="M24371 32087
L24240 31900
" />
<path d="M24146 32087
L24146 31693
L24296 31693
L24334 31712
L24352 31731
L24371 31768
L24371 31825
L24352 31862
L24334 31881
L24296 31900
L24146 31900
" />
<path d="M24746 32087
L24521 32087
" />
<path d="M24634 32087
L24634 31693
L24596 31750
L24559 31787
L24521 31806
" />
<path d="M72900 42848
L72900 43092
L72750 42961
L72750 43017
L72732 43054
L72713 43073
L72675 43092
L72582 43092
L72544 43073
L72525 43054
L72507 43017
L72507 42904
L72525 42867
L72544 42848
" />
<path d="M72507 43261
L72900 43261
" />
<path d="M72657 43298
L72507 43411
" />
<path d="M72769 43411
L72619 43261
" />
<path d="M72900 43542
L72900 43786
L72750 43654
L72750 43711
L72732 43748
L72713 43767
L72675 43786
L72582 43786
L72544 43767
L72525 43748
L72507 43711
L72507 43598
L72525 43561
L72544 43542
" />
<path d="M71326 43261
L71513 43129
" />
<path d="M71326 43036
L71719 43036
L71719 43186
L71701 43223
L71682 43242
L71644 43261
L71588 43261
L71551 43242
L71532 43223
L71513 43186
L71513 43036
" />
<path d="M71682 43411
L71701 43429
L71719 43467
L71719 43561
L71701 43598
L71682 43617
L71644 43636
L71607 43636
L71551 43617
L71326 43392
L71326 43636
" />
<path d="M72507 41508
L72507 41283
" />
<path d="M72507 41395
L72900 41395
L72844 41358
L72807 41320
L72788 41283
" />
<path d="M72507 41676
L72900 41676
" />
<path d="M72657 41714
L72507 41826
" />
<path d="M72769 41826
L72619 41676
" />
<path d="M71326 41489
L71513 41358
" />
<path d="M71326 41264
L71719 41264
L71719 41414
L71701 41452
L71682 41470
L71644 41489
L71588 41489
L71551 41470
L71532 41452
L71513 41414
L71513 41264
" />
<path d="M71719 41620
L71719 41864
L71569 41733
L71569 41789
L71551 41826
L71532 41845
L71494 41864
L71401 41864
L71363 41845
L71344 41826
L71326 41789
L71326 41676
L71344 41639
L71363 41620
" />
<path d="M20022 38386
L19834 38386
L19816 38574
L19834 38555
L19872 38536
L19966 38536
L20003 38555
L20022 38574
L20040 38611
L20040 38705
L20022 38742
L20003 38761
L19966 38780
L19872 38780
L19834 38761
L19816 38742
" />
<path d="M20378 38386
L20303 38386
L20265 38405
L20247 38424
L20209 38480
L20190 38555
L20190 38705
L20209 38742
L20228 38761
L20265 38780
L20340 38780
L20378 38761
L20397 38742
L20415 38705
L20415 38611
L20397 38574
L20378 38555
L20340 38536
L20265 38536
L20228 38555
L20209 38574
L20190 38611
" />
<path d="M20565 38424
L20584 38405
L20622 38386
L20715 38386
L20753 38405
L20772 38424
L20790 38461
L20790 38499
L20772 38555
L20547 38780
L20790 38780
" />
<path d="M21615 40138
L21484 39951
" />
<path d="M21390 40138
L21390 39745
L21540 39745
L21578 39763
L21597 39782
L21615 39820
L21615 39876
L21597 39913
L21578 39932
L21540 39951
L21390 39951
" />
<path d="M21953 39876
L21953 40138
" />
<path d="M21859 39726
L21765 40007
L22009 40007
" />
<path d="M22778 31693
L22590 31693
L22571 31881
L22590 31862
L22628 31843
L22721 31843
L22759 31862
L22778 31881
L22796 31918
L22796 32012
L22778 32050
L22759 32068
L22721 32087
L22628 32087
L22590 32068
L22571 32050
" />
<path d="M23134 31693
L23059 31693
L23021 31712
L23003 31731
L22965 31787
L22946 31862
L22946 32012
L22965 32050
L22984 32068
L23021 32087
L23096 32087
L23134 32068
L23153 32050
L23171 32012
L23171 31918
L23153 31881
L23134 31862
L23096 31843
L23021 31843
L22984 31862
L22965 31881
L22946 31918
" />
<path d="M23321 31731
L23340 31712
L23378 31693
L23471 31693
L23509 31712
L23528 31731
L23546 31768
L23546 31806
L23528 31862
L23303 32087
L23546 32087
" />
<path d="M22796 32874
L22665 32687
" />
<path d="M22571 32874
L22571 32481
L22721 32481
L22759 32500
L22778 32518
L22796 32556
L22796 32612
L22778 32649
L22759 32668
L22721 32687
L22571 32687
" />
<path d="M23153 32481
L22965 32481
L22946 32668
L22965 32649
L23003 32631
L23096 32631
L23134 32649
L23153 32668
L23171 32706
L23171 32799
L23153 32837
L23134 32856
L23096 32874
L23003 32874
L22965 32856
L22946 32837
" />
<path d="M75777 22245
L75552 22245
" />
<path d="M75665 22245
L75665 21851
L75627 21907
L75590 21945
L75552 21963
" />
<path d="M76021 21851
L76058 21851
L76096 21870
L76115 21888
L76133 21926
L76152 22001
L76152 22095
L76133 22170
L76115 22207
L76096 22226
L76058 22245
L76021 22245
L75984 22226
L75965 22207
L75946 22170
L75927 22095
L75927 22001
L75946 21926
L75965 21888
L75984 21870
L76021 21851
" />
<path d="M76321 22245
L76321 21851
" />
<path d="M76358 22095
L76471 22245
" />
<path d="M76471 21982
L76321 22132
" />
<path d="M73190 22245
L73059 22057
" />
<path d="M72965 22245
L72965 21851
L73115 21851
L73153 21870
L73171 21888
L73190 21926
L73190 21982
L73171 22020
L73153 22038
L73115 22057
L72965 22057
" />
<path d="M73528 21851
L73453 21851
L73415 21870
L73396 21888
L73359 21945
L73340 22020
L73340 22170
L73359 22207
L73378 22226
L73415 22245
L73490 22245
L73528 22226
L73546 22207
L73565 22170
L73565 22076
L73546 22038
L73528 22020
L73490 22001
L73415 22001
L73378 22020
L73359 22038
L73340 22076
" />
<path d="M66919 22245
L66694 22245
" />
<path d="M66807 22245
L66807 21851
L66769 21907
L66732 21945
L66694 21963
" />
<path d="M67163 21851
L67200 21851
L67238 21870
L67256 21888
L67275 21926
L67294 22001
L67294 22095
L67275 22170
L67256 22207
L67238 22226
L67200 22245
L67163 22245
L67125 22226
L67106 22207
L67088 22170
L67069 22095
L67069 22001
L67088 21926
L67106 21888
L67125 21870
L67163 21851
" />
<path d="M67463 22245
L67463 21851
" />
<path d="M67500 22095
L67613 22245
" />
<path d="M67613 21982
L67463 22132
" />
<path d="M64135 22245
L64004 22057
" />
<path d="M63910 22245
L63910 21851
L64060 21851
L64097 21870
L64116 21888
L64135 21926
L64135 21982
L64116 22020
L64097 22038
L64060 22057
L63910 22057
" />
<path d="M64266 21851
L64529 21851
L64360 22245
" />
<path d="M75777 21457
L75552 21457
" />
<path d="M75665 21457
L75665 21063
L75627 21120
L75590 21157
L75552 21176
" />
<path d="M76021 21063
L76058 21063
L76096 21082
L76115 21101
L76133 21138
L76152 21213
L76152 21307
L76133 21382
L76115 21420
L76096 21438
L76058 21457
L76021 21457
L75984 21438
L75965 21420
L75946 21382
L75927 21307
L75927 21213
L75946 21138
L75965 21101
L75984 21082
L76021 21063
" />
<path d="M76321 21457
L76321 21063
" />
<path d="M76358 21307
L76471 21457
" />
<path d="M76471 21195
L76321 21345
" />
<path d="M73190 21457
L73059 21270
" />
<path d="M72965 21457
L72965 21063
L73115 21063
L73153 21082
L73171 21101
L73190 21138
L73190 21195
L73171 21232
L73153 21251
L73115 21270
L72965 21270
" />
<path d="M73415 21232
L73378 21213
L73359 21195
L73340 21157
L73340 21138
L73359 21101
L73378 21082
L73415 21063
L73490 21063
L73528 21082
L73546 21101
L73565 21138
L73565 21157
L73546 21195
L73528 21213
L73490 21232
L73415 21232
L73378 21251
L73359 21270
L73340 21307
L73340 21382
L73359 21420
L73378 21438
L73415 21457
L73490 21457
L73528 21438
L73546 21420
L73565 21382
L73565 21307
L73546 21270
L73528 21251
L73490 21232
" />
<path d="M66919 21457
L66694 21457
" />
<path d="M66807 21457
L66807 21063
L66769 21120
L66732 21157
L66694 21176
" />
<path d="M67163 21063
L67200 21063
L67238 21082
L67256 21101
L67275 21138
L67294 21213
L67294 21307
L67275 21382
L67256 21420
L67238 21438
L67200 21457
L67163 21457
L67125 21438
L67106 21420
L67088 21382
L67069 21307
L67069 21213
L67088 21138
L67106 21101
L67125 21082
L67163 21063
" />
<path d="M67463 21457
L67463 21063
" />
<path d="M67500 21307
L67613 21457
" />
<path d="M67613 21195
L67463 21345
" />
<path d="M64135 21457
L64004 21270
" />
<path d="M63910 21457
L63910 21063
L64060 21063
L64097 21082
L64116 21101
L64135 21138
L64135 21195
L64116 21232
L64097 21251
L64060 21270
L63910 21270
" />
<path d="M64322 21457
L64397 21457
L64435 21438
L64454 21420
L64491 21363
L64510 21288
L64510 21138
L64491 21101
L64472 21082
L64435 21063
L64360 21063
L64322 21082
L64304 21101
L64285 21138
L64285 21232
L64304 21270
L64322 21288
L64360 21307
L64435 21307
L64472 21288
L64491 21270
L64510 21232
" />
<path d="M75777 20276
L75552 20276
" />
<path d="M75665 20276
L75665 19882
L75627 19939
L75590 19976
L75552 19995
" />
<path d="M76021 19882
L76058 19882
L76096 19901
L76115 19920
L76133 19957
L76152 20032
L76152 20126
L76133 20201
L76115 20239
L76096 20257
L76058 20276
L76021 20276
L75984 20257
L75965 20239
L75946 20201
L75927 20126
L75927 20032
L75946 19957
L75965 19920
L75984 19901
L76021 19882
" />
<path d="M76321 20276
L76321 19882
" />
<path d="M76358 20126
L76471 20276
" />
<path d="M76471 20014
L76321 20164
" />
<path d="M72806 20276
L72675 20089
" />
<path d="M72581 20276
L72581 19882
L72731 19882
L72768 19901
L72787 19920
L72806 19957
L72806 20014
L72787 20051
L72768 20070
L72731 20089
L72581 20089
" />
<path d="M73181 20276
L72956 20276
" />
<path d="M73068 20276
L73068 19882
L73031 19939
L72993 19976
L72956 19995
" />
<path d="M73424 19882
L73462 19882
L73499 19901
L73518 19920
L73537 19957
L73556 20032
L73556 20126
L73537 20201
L73518 20239
L73499 20257
L73462 20276
L73424 20276
L73387 20257
L73368 20239
L73349 20201
L73331 20126
L73331 20032
L73349 19957
L73368 19920
L73387 19901
L73424 19882
" />
<path d="M66919 20276
L66694 20276
" />
<path d="M66807 20276
L66807 19882
L66769 19939
L66732 19976
L66694 19995
" />
<path d="M67163 19882
L67200 19882
L67238 19901
L67256 19920
L67275 19957
L67294 20032
L67294 20126
L67275 20201
L67256 20239
L67238 20257
L67200 20276
L67163 20276
L67125 20257
L67106 20239
L67088 20201
L67069 20126
L67069 20032
L67088 19957
L67106 19920
L67125 19901
L67163 19882
" />
<path d="M67463 20276
L67463 19882
" />
<path d="M67500 20126
L67613 20276
" />
<path d="M67613 20014
L67463 20164
" />
<path d="M63948 20276
L63816 20089
" />
<path d="M63723 20276
L63723 19882
L63873 19882
L63910 19901
L63929 19920
L63948 19957
L63948 20014
L63929 20051
L63910 20070
L63873 20089
L63723 20089
" />
<path d="M64322 20276
L64097 20276
" />
<path d="M64210 20276
L64210 19882
L64172 19939
L64135 19976
L64097 19995
" />
<path d="M64697 20276
L64472 20276
" />
<path d="M64585 20276
L64585 19882
L64547 19939
L64510 19976
L64472 19995
" />
<path d="M75777 19489
L75552 19489
" />
<path d="M75665 19489
L75665 19095
L75627 19151
L75590 19189
L75552 19207
" />
<path d="M76021 19095
L76058 19095
L76096 19114
L76115 19132
L76133 19170
L76152 19245
L76152 19339
L76133 19414
L76115 19451
L76096 19470
L76058 19489
L76021 19489
L75984 19470
L75965 19451
L75946 19414
L75927 19339
L75927 19245
L75946 19170
L75965 19132
L75984 19114
L76021 19095
" />
<path d="M76321 19489
L76321 19095
" />
<path d="M76358 19339
L76471 19489
" />
<path d="M76471 19226
L76321 19376
" />
<path d="M72806 19489
L72675 19301
" />
<path d="M72581 19489
L72581 19095
L72731 19095
L72768 19114
L72787 19132
L72806 19170
L72806 19226
L72787 19264
L72768 19282
L72731 19301
L72581 19301
" />
<path d="M73181 19489
L72956 19489
" />
<path d="M73068 19489
L73068 19095
L73031 19151
L72993 19189
L72956 19207
" />
<path d="M73331 19132
L73349 19114
L73387 19095
L73481 19095
L73518 19114
L73537 19132
L73556 19170
L73556 19207
L73537 19264
L73312 19489
L73556 19489
" />
<path d="M66919 19489
L66694 19489
" />
<path d="M66807 19489
L66807 19095
L66769 19151
L66732 19189
L66694 19207
" />
<path d="M67163 19095
L67200 19095
L67238 19114
L67256 19132
L67275 19170
L67294 19245
L67294 19339
L67275 19414
L67256 19451
L67238 19470
L67200 19489
L67163 19489
L67125 19470
L67106 19451
L67088 19414
L67069 19339
L67069 19245
L67088 19170
L67106 19132
L67125 19114
L67163 19095
" />
<path d="M67463 19489
L67463 19095
" />
<path d="M67500 19339
L67613 19489
" />
<path d="M67613 19226
L67463 19376
" />
<path d="M63751 19489
L63619 19301
" />
<path d="M63526 19489
L63526 19095
L63676 19095
L63713 19114
L63732 19132
L63751 19170
L63751 19226
L63732 19264
L63713 19282
L63676 19301
L63526 19301
" />
<path d="M64126 19489
L63901 19489
" />
<path d="M64013 19489
L64013 19095
L63976 19151
L63938 19189
L63901 19207
" />
<path d="M64257 19095
L64501 19095
L64369 19245
L64426 19245
L64463 19264
L64482 19282
L64501 19320
L64501 19414
L64482 19451
L64463 19470
L64426 19489
L64313 19489
L64276 19470
L64257 19451
" />
<path d="M58061 22245
L57836 22245
" />
<path d="M57948 22245
L57948 21851
L57911 21907
L57873 21945
L57836 21963
" />
<path d="M58304 21851
L58342 21851
L58379 21870
L58398 21888
L58417 21926
L58436 22001
L58436 22095
L58417 22170
L58398 22207
L58379 22226
L58342 22245
L58304 22245
L58267 22226
L58248 22207
L58229 22170
L58211 22095
L58211 22001
L58229 21926
L58248 21888
L58267 21870
L58304 21851
" />
<path d="M58604 22245
L58604 21851
" />
<path d="M58642 22095
L58754 22245
" />
<path d="M58754 21982
L58604 22132
" />
<path d="M54696 21457
L54564 21270
" />
<path d="M54471 21457
L54471 21063
L54621 21063
L54658 21082
L54677 21101
L54696 21138
L54696 21195
L54677 21232
L54658 21251
L54621 21270
L54471 21270
" />
<path d="M55070 21457
L54846 21457
" />
<path d="M54958 21457
L54958 21063
L54921 21120
L54883 21157
L54846 21176
" />
<path d="M55408 21195
L55408 21457
" />
<path d="M55314 21045
L55220 21326
L55464 21326
" />
<path d="M19478 28347
L19253 28347
" />
<path d="M19366 28347
L19366 27953
L19328 28009
L19291 28047
L19253 28066
" />
<path d="M19722 27953
L19759 27953
L19797 27972
L19816 27991
L19834 28028
L19853 28103
L19853 28197
L19834 28272
L19816 28309
L19797 28328
L19759 28347
L19722 28347
L19684 28328
L19666 28309
L19647 28272
L19628 28197
L19628 28103
L19647 28028
L19666 27991
L19684 27972
L19722 27953
" />
<path d="M20022 28347
L20022 27953
" />
<path d="M20059 28197
L20172 28347
" />
<path d="M20172 28084
L20022 28234
" />
<path d="M17885 26378
L17753 26191
" />
<path d="M17660 26378
L17660 25985
L17810 25985
L17847 26003
L17866 26022
L17885 26060
L17885 26116
L17866 26153
L17847 26172
L17810 26191
L17660 26191
" />
<path d="M18259 26378
L18034 26378
" />
<path d="M18147 26378
L18147 25985
L18109 26041
L18072 26078
L18034 26097
" />
<path d="M18616 25985
L18428 25985
L18409 26172
L18428 26153
L18466 26135
L18559 26135
L18597 26153
L18616 26172
L18634 26210
L18634 26303
L18616 26341
L18597 26360
L18559 26378
L18466 26378
L18428 26360
L18409 26341
" />
<path d="M58061 21457
L57836 21457
" />
<path d="M57948 21457
L57948 21063
L57911 21120
L57873 21157
L57836 21176
" />
<path d="M58304 21063
L58342 21063
L58379 21082
L58398 21101
L58417 21138
L58436 21213
L58436 21307
L58417 21382
L58398 21420
L58379 21438
L58342 21457
L58304 21457
L58267 21438
L58248 21420
L58229 21382
L58211 21307
L58211 21213
L58229 21138
L58248 21101
L58267 21082
L58304 21063
" />
<path d="M58604 21457
L58604 21063
" />
<path d="M58642 21307
L58754 21457
" />
<path d="M58754 21195
L58604 21345
" />
<path d="M54696 22245
L54564 22057
" />
<path d="M54471 22245
L54471 21851
L54621 21851
L54658 21870
L54677 21888
L54696 21926
L54696 21982
L54677 22020
L54658 22038
L54621 22057
L54471 22057
" />
<path d="M55070 22245
L54846 22245
" />
<path d="M54958 22245
L54958 21851
L54921 21907
L54883 21945
L54846 21963
" />
<path d="M55408 21851
L55333 21851
L55295 21870
L55277 21888
L55239 21945
L55220 22020
L55220 22170
L55239 22207
L55258 22226
L55295 22245
L55370 22245
L55408 22226
L55427 22207
L55445 22170
L55445 22076
L55427 22038
L55408 22020
L55370 22001
L55295 22001
L55258 22020
L55239 22038
L55220 22076
" />
<path d="M17903 26949
L17678 26949
" />
<path d="M17791 26949
L17791 26556
L17753 26612
L17716 26649
L17678 26668
" />
<path d="M18147 26556
L18184 26556
L18222 26574
L18241 26593
L18259 26631
L18278 26706
L18278 26799
L18259 26874
L18241 26912
L18222 26931
L18184 26949
L18147 26949
L18109 26931
L18091 26912
L18072 26874
L18053 26799
L18053 26706
L18072 26631
L18091 26593
L18109 26574
L18147 26556
" />
<path d="M18447 26949
L18447 26556
" />
<path d="M18484 26799
L18597 26949
" />
<path d="M18597 26687
L18447 26837
" />
<path d="M20837 28347
L20706 28159
" />
<path d="M20612 28347
L20612 27953
L20762 27953
L20800 27972
L20819 27991
L20837 28028
L20837 28084
L20819 28122
L20800 28141
L20762 28159
L20612 28159
" />
<path d="M21212 28347
L20987 28347
" />
<path d="M21100 28347
L21100 27953
L21062 28009
L21025 28047
L20987 28066
" />
<path d="M21343 27953
L21606 27953
L21437 28347
" />
<path d="M57864 20276
L57639 20276
" />
<path d="M57751 20276
L57751 19882
L57714 19939
L57676 19976
L57639 19995
" />
<path d="M58108 19882
L58145 19882
L58183 19901
L58201 19920
L58220 19957
L58239 20032
L58239 20126
L58220 20201
L58201 20239
L58183 20257
L58145 20276
L58108 20276
L58070 20257
L58051 20239
L58033 20201
L58014 20126
L58014 20032
L58033 19957
L58051 19920
L58070 19901
L58108 19882
" />
<path d="M58408 20276
L58408 19882
" />
<path d="M58445 20126
L58558 20276
" />
<path d="M58558 20014
L58408 20164
" />
<path d="M54696 20276
L54564 20089
" />
<path d="M54471 20276
L54471 19882
L54621 19882
L54658 19901
L54677 19920
L54696 19957
L54696 20014
L54677 20051
L54658 20070
L54621 20089
L54471 20089
" />
<path d="M55070 20276
L54846 20276
" />
<path d="M54958 20276
L54958 19882
L54921 19939
L54883 19976
L54846 19995
" />
<path d="M55295 20051
L55258 20032
L55239 20014
L55220 19976
L55220 19957
L55239 19920
L55258 19901
L55295 19882
L55370 19882
L55408 19901
L55427 19920
L55445 19957
L55445 19976
L55427 20014
L55408 20032
L55370 20051
L55295 20051
L55258 20070
L55239 20089
L55220 20126
L55220 20201
L55239 20239
L55258 20257
L55295 20276
L55370 20276
L55408 20257
L55427 20239
L55445 20201
L55445 20126
L55427 20089
L55408 20070
L55370 20051
" />
<path d="M15541 26949
L15316 26949
" />
<path d="M15429 26949
L15429 26556
L15391 26612
L15354 26649
L15316 26668
" />
<path d="M15785 26556
L15822 26556
L15860 26574
L15879 26593
L15897 26631
L15916 26706
L15916 26799
L15897 26874
L15879 26912
L15860 26931
L15822 26949
L15785 26949
L15747 26931
L15729 26912
L15710 26874
L15691 26799
L15691 26706
L15710 26631
L15729 26593
L15747 26574
L15785 26556
" />
<path d="M16085 26949
L16085 26556
" />
<path d="M16122 26799
L16235 26949
" />
<path d="M16235 26687
L16085 26837
" />
<path d="M15522 26182
L15391 25994
" />
<path d="M15297 26182
L15297 25788
L15447 25788
L15485 25807
L15504 25825
L15522 25863
L15522 25919
L15504 25957
L15485 25975
L15447 25994
L15297 25994
" />
<path d="M15897 26182
L15672 26182
" />
<path d="M15785 26182
L15785 25788
L15747 25844
L15710 25882
L15672 25900
" />
<path d="M16085 26182
L16160 26182
L16197 26163
L16216 26144
L16253 26088
L16272 26013
L16272 25863
L16253 25825
L16235 25807
L16197 25788
L16122 25788
L16085 25807
L16066 25825
L16047 25863
L16047 25957
L16066 25994
L16085 26013
L16122 26032
L16197 26032
L16235 26013
L16253 25994
L16272 25957
" />
<path d="M57864 19489
L57639 19489
" />
<path d="M57751 19489
L57751 19095
L57714 19151
L57676 19189
L57639 19207
" />
<path d="M58108 19095
L58145 19095
L58183 19114
L58201 19132
L58220 19170
L58239 19245
L58239 19339
L58220 19414
L58201 19451
L58183 19470
L58145 19489
L58108 19489
L58070 19470
L58051 19451
L58033 19414
L58014 19339
L58014 19245
L58033 19170
L58051 19132
L58070 19114
L58108 19095
" />
<path d="M58408 19489
L58408 19095
" />
<path d="M58445 19339
L58558 19489
" />
<path d="M58558 19226
L58408 19376
" />
<path d="M54696 19489
L54564 19301
" />
<path d="M54471 19489
L54471 19095
L54621 19095
L54658 19114
L54677 19132
L54696 19170
L54696 19226
L54677 19264
L54658 19282
L54621 19301
L54471 19301
" />
<path d="M54846 19132
L54864 19114
L54902 19095
L54996 19095
L55033 19114
L55052 19132
L55070 19170
L55070 19207
L55052 19264
L54827 19489
L55070 19489
" />
<path d="M55314 19095
L55352 19095
L55389 19114
L55408 19132
L55427 19170
L55445 19245
L55445 19339
L55427 19414
L55408 19451
L55389 19470
L55352 19489
L55314 19489
L55277 19470
L55258 19451
L55239 19414
L55220 19339
L55220 19245
L55239 19170
L55258 19132
L55277 19114
L55314 19095
" />
<path d="M14163 28347
L13938 28347
" />
<path d="M14051 28347
L14051 27953
L14013 28009
L13976 28047
L13938 28066
" />
<path d="M14407 27953
L14444 27953
L14482 27972
L14501 27991
L14519 28028
L14538 28103
L14538 28197
L14519 28272
L14501 28309
L14482 28328
L14444 28347
L14407 28347
L14369 28328
L14351 28309
L14332 28272
L14313 28197
L14313 28103
L14332 28028
L14351 27991
L14369 27972
L14407 27953
" />
<path d="M14707 28347
L14707 27953
" />
<path d="M14744 28197
L14857 28347
" />
<path d="M14857 28084
L14707 28234
" />
<path d="M12373 28347
L12241 28159
" />
<path d="M12148 28347
L12148 27953
L12298 27953
L12335 27972
L12354 27991
L12373 28028
L12373 28084
L12354 28122
L12335 28141
L12298 28159
L12148 28159
" />
<path d="M12523 27991
L12541 27972
L12579 27953
L12673 27953
L12710 27972
L12729 27991
L12748 28028
L12748 28066
L12729 28122
L12504 28347
L12748 28347
" />
<path d="M13123 28347
L12898 28347
" />
<path d="M13010 28347
L13010 27953
L12973 28009
L12935 28047
L12898 28066
" />
<path d="M20003 39305
L20003 39567
" />
<path d="M19909 39155
L19816 39436
L20059 39436
" />
<path d="M20172 39174
L20434 39174
L20265 39567
" />
<path d="M20659 39174
L20697 39174
L20734 39192
L20753 39211
L20772 39249
L20790 39324
L20790 39417
L20772 39492
L20753 39530
L20734 39549
L20697 39567
L20659 39567
L20622 39549
L20603 39530
L20584 39492
L20565 39417
L20565 39324
L20584 39249
L20603 39211
L20622 39192
L20659 39174
" />
<path d="M21428 38209
L21297 38022
" />
<path d="M21203 38209
L21203 37815
L21353 37815
L21390 37834
L21409 37853
L21428 37890
L21428 37947
L21409 37984
L21390 38003
L21353 38022
L21203 38022
" />
<path d="M21578 37853
L21597 37834
L21634 37815
L21728 37815
L21765 37834
L21784 37853
L21803 37890
L21803 37928
L21784 37984
L21559 38209
L21803 38209
" />
<path d="M21953 37853
L21972 37834
L22009 37815
L22103 37815
L22140 37834
L22159 37853
L22178 37890
L22178 37928
L22159 37984
L21934 38209
L22178 38209
" />
<path d="M21409 30427
L21409 30689
" />
<path d="M21315 30277
L21222 30558
L21465 30558
" />
<path d="M21615 30689
L21615 30296
" />
<path d="M21653 30539
L21765 30689
" />
<path d="M21765 30427
L21615 30577
" />
<path d="M21897 30296
L22159 30296
L21990 30689
" />
<path d="M22806 30709
L22675 30522
" />
<path d="M22581 30709
L22581 30315
L22731 30315
L22768 30334
L22787 30353
L22806 30390
L22806 30447
L22787 30484
L22768 30503
L22731 30522
L22581 30522
" />
<path d="M22956 30353
L22975 30334
L23012 30315
L23106 30315
L23143 30334
L23162 30353
L23181 30390
L23181 30428
L23162 30484
L22937 30709
L23181 30709
" />
<path d="M23312 30315
L23556 30315
L23424 30465
L23481 30465
L23518 30484
L23537 30503
L23556 30540
L23556 30634
L23537 30672
L23518 30690
L23481 30709
L23368 30709
L23331 30690
L23312 30672
" />
<path d="M42275 46372
L42275 46634
" />
<path d="M42181 46222
L42088 46503
L42331 46503
" />
<path d="M42481 46634
L42481 46241
" />
<path d="M42519 46484
L42631 46634
" />
<path d="M42631 46372
L42481 46522
" />
<path d="M42763 46241
L43025 46241
L42856 46634
" />
<path d="M43672 47245
L43541 47057
" />
<path d="M43447 47245
L43447 46851
L43597 46851
L43634 46870
L43653 46888
L43672 46926
L43672 46982
L43653 47020
L43634 47038
L43597 47057
L43447 47057
" />
<path d="M43822 46888
L43841 46870
L43878 46851
L43972 46851
L44009 46870
L44028 46888
L44047 46926
L44047 46963
L44028 47020
L43803 47245
L44047 47245
" />
<path d="M44384 46982
L44384 47245
" />
<path d="M44291 46832
L44197 47113
L44441 47113
" />
<path d="M42275 48557
L42275 48819
" />
<path d="M42181 48407
L42088 48688
L42331 48688
" />
<path d="M42481 48819
L42481 48426
" />
<path d="M42519 48669
L42631 48819
" />
<path d="M42631 48557
L42481 48707
" />
<path d="M42763 48426
L43025 48426
L42856 48819
" />
<path d="M43672 48032
L43541 47844
" />
<path d="M43447 48032
L43447 47638
L43597 47638
L43634 47657
L43653 47676
L43672 47713
L43672 47769
L43653 47807
L43634 47826
L43597 47844
L43447 47844
" />
<path d="M43822 47676
L43841 47657
L43878 47638
L43972 47638
L44009 47657
L44028 47676
L44047 47713
L44047 47751
L44028 47807
L43803 48032
L44047 48032
" />
<path d="M44403 47638
L44216 47638
L44197 47826
L44216 47807
L44253 47788
L44347 47788
L44384 47807
L44403 47826
L44422 47863
L44422 47957
L44403 47994
L44384 48013
L44347 48032
L44253 48032
L44216 48013
L44197 47994
" />
<path d="M73229 42679
L73248 42698
L73229 42717
L73211 42698
L73229 42679
L73229 42717
" />
<path d="M73492 42323
L73529 42323
L73567 42342
L73585 42361
L73604 42398
L73623 42473
L73623 42567
L73604 42642
L73585 42679
L73567 42698
L73529 42717
L73492 42717
L73454 42698
L73436 42679
L73417 42642
L73398 42567
L73398 42473
L73417 42398
L73436 42361
L73454 42342
L73492 42323
" />
<path d="M73998 42717
L73773 42717
" />
<path d="M73885 42717
L73885 42323
L73848 42380
L73810 42417
L73773 42436
" />
<path d="M74335 42455
L74335 42717
" />
<path d="M74167 42455
L74167 42661
L74185 42698
L74223 42717
L74279 42717
L74317 42698
L74335 42679
" />
<path d="M74654 42511
L74523 42511
" />
<path d="M74523 42717
L74523 42323
L74710 42323
" />
<path d="M74971 43270
L74952 43289
L74896 43308
L74859 43308
L74802 43289
L74765 43251
L74746 43214
L74727 43139
L74727 43083
L74746 43008
L74765 42970
L74802 42933
L74859 42914
L74896 42914
L74952 42933
L74971 42951
" />
<path d="M75346 43308
L75121 43308
" />
<path d="M75234 43308
L75234 42914
L75196 42970
L75159 43008
L75121 43026
" />
<path d="M75477 42914
L75721 42914
L75590 43064
L75646 43064
L75684 43083
L75702 43101
L75721 43139
L75721 43233
L75702 43270
L75684 43289
L75646 43308
L75534 43308
L75496 43289
L75477 43270
" />
<path d="M73529 44938
L73304 44938
" />
<path d="M73417 44938
L73417 44544
L73379 44600
L73342 44638
L73304 44657
" />
<path d="M73773 44544
L73810 44544
L73848 44563
L73867 44582
L73885 44619
L73904 44694
L73904 44788
L73885 44863
L73867 44900
L73848 44919
L73810 44938
L73773 44938
L73735 44919
L73717 44900
L73698 44863
L73679 44788
L73679 44694
L73698 44619
L73717 44582
L73735 44563
L73773 44544
" />
<path d="M74242 44675
L74242 44938
" />
<path d="M74073 44675
L74073 44881
L74092 44919
L74129 44938
L74185 44938
L74223 44919
L74242 44900
" />
<path d="M74560 44731
L74429 44731
" />
<path d="M74429 44938
L74429 44544
L74617 44544
" />
<path d="M74971 44254
L74952 44273
L74896 44292
L74859 44292
L74802 44273
L74765 44236
L74746 44198
L74727 44123
L74727 44067
L74746 43992
L74765 43954
L74802 43917
L74859 43898
L74896 43898
L74952 43917
L74971 43936
" />
<path d="M75346 44292
L75121 44292
" />
<path d="M75234 44292
L75234 43898
L75196 43954
L75159 43992
L75121 44011
" />
<path d="M75684 44029
L75684 44292
" />
<path d="M75590 43879
L75496 44161
L75740 44161
" />
<path d="M17978 43898
L18241 44292
" />
<path d="M18241 43898
L17978 44292
" />
<path d="M18578 44292
L18391 44292
L18391 43898
" />
<path d="M18935 44292
L18803 44104
" />
<path d="M18710 44292
L18710 43898
L18860 43898
L18897 43917
L18916 43936
L18935 43973
L18935 44029
L18916 44067
L18897 44086
L18860 44104
L18710 44104
" />
<path d="M19066 43898
L19310 43898
L19178 44048
L19235 44048
L19272 44067
L19291 44086
L19310 44123
L19310 44217
L19291 44254
L19272 44273
L19235 44292
L19122 44292
L19085 44273
L19066 44254
" />
<path d="M44972 30796
L45197 30796
" />
<path d="M45084 31189
L45084 30796
" />
<path d="M45478 31171
L45440 31189
L45365 31189
L45328 31171
L45309 31133
L45309 30983
L45328 30946
L45365 30927
L45440 30927
L45478 30946
L45497 30983
L45497 31021
L45309 31058
" />
<path d="M45815 31171
L45778 31189
L45703 31189
L45665 31171
L45647 31133
L45647 30983
L45665 30946
L45703 30927
L45778 30927
L45815 30946
L45834 30983
L45834 31021
L45647 31058
" />
<path d="M46003 30927
L46003 31189
" />
<path d="M46003 30964
L46022 30946
L46059 30927
L46115 30927
L46153 30946
L46172 30983
L46172 31189
" />
<path d="M46340 31171
L46378 31189
L46453 31189
L46490 31171
L46509 31133
L46509 31114
L46490 31077
L46453 31058
L46397 31058
L46359 31039
L46340 31002
L46340 30983
L46359 30946
L46397 30927
L46453 30927
L46490 30946
" />
<path d="M46640 30927
L46734 31189
" />
<path d="M46828 30927
L46734 31189
L46696 31283
L46678 31302
L46640 31321
" />
<path d="M46940 30796
L47184 30796
L47053 30946
L47109 30946
L47146 30964
L47165 30983
L47184 31021
L47184 31114
L47165 31152
L47146 31171
L47109 31189
L46996 31189
L46959 31171
L46940 31152
" />
<path d="M47353 31152
L47371 31171
L47353 31189
L47334 31171
L47353 31152
L47353 31189
" />
<path d="M47728 30796
L47540 30796
L47521 30983
L47540 30964
L47578 30946
L47671 30946
L47709 30964
L47728 30983
L47746 31021
L47746 31114
L47728 31152
L47709 31171
L47671 31189
L47578 31189
L47540 31171
L47521 31152
" />
<path d="M18456 35327
L18456 34934
L18588 35215
L18719 34934
L18719 35327
" />
<path d="M18888 35215
L19075 35215
" />
<path d="M18850 35327
L18981 34934
L19112 35327
" />
<path d="M19206 34934
L19469 35327
" />
<path d="M19469 34934
L19206 35327
" />
<path d="M19787 35065
L19787 35327
" />
<path d="M19694 34915
L19600 35196
L19844 35196
" />
<path d="M20050 35102
L20012 35083
L19994 35065
L19975 35027
L19975 35008
L19994 34971
L20012 34952
L20050 34934
L20125 34934
L20162 34952
L20181 34971
L20200 35008
L20200 35027
L20181 35065
L20162 35083
L20125 35102
L20050 35102
L20012 35121
L19994 35140
L19975 35177
L19975 35252
L19994 35290
L20012 35308
L20050 35327
L20125 35327
L20162 35308
L20181 35290
L20200 35252
L20200 35177
L20181 35140
L20162 35121
L20125 35102
" />
<path d="M20556 34934
L20369 34934
L20350 35121
L20369 35102
L20406 35083
L20500 35083
L20537 35102
L20556 35121
L20575 35158
L20575 35252
L20556 35290
L20537 35308
L20500 35327
L20406 35327
L20369 35308
L20350 35290
" />
<path d="M20969 35290
L20950 35308
L20894 35327
L20856 35327
L20800 35308
L20762 35271
L20744 35233
L20725 35158
L20725 35102
L20744 35027
L20762 34990
L20800 34952
L20856 34934
L20894 34934
L20950 34952
L20969 34971
" />
<path d="M21118 35308
L21175 35327
L21268 35327
L21306 35308
L21325 35290
L21343 35252
L21343 35215
L21325 35177
L21306 35158
L21268 35140
L21193 35121
L21156 35102
L21137 35083
L21118 35046
L21118 35008
L21137 34971
L21156 34952
L21193 34934
L21287 34934
L21343 34952
" />
<path d="M21493 35215
L21681 35215
" />
<path d="M21456 35327
L21587 34934
L21718 35327
" />
<path d="M21850 35177
L22150 35177
" />
<path d="M22000 35327
L22000 35027
" />
</g>
<g style="fill:#000000; fill-opacity:0.0; 
stroke:#000000; stroke-width:59.0551; stroke-opacity:1; 
stroke-linecap:round; stroke-linejoin:round;">
</g>
<g style="fill:#C2C200; fill-opacity:0.0; 
stroke:#C2C200; stroke-width:59.0551; stroke-opacity:1; 
stroke-linecap:round; stroke-linejoin:round;">
</g>
<g style="fill:#C2C200; fill-opacity:0.0; 
stroke:#C2C200; stroke-width:39.3701; stroke-opacity:1; 
stroke-linecap:round; stroke-linejoin:round;">
<path d="M78374 49232
L78374 19
" />
<path d="M7508 49232
L78374 49232
" />
<path d="M7508 19
L7508 49232
" />
<path d="M78374 19
L7508 19
" />
</g> 
</svg>
