M48
;DRILL file {KiCad 4.0.6+dfsg1-1} date Sat Nov 25 00:29:15 2017
;FORMAT={-:-/ absolute / inch / decimal}
FMAT,2
INCH,TZ
T1C0.016
T2C0.031
T3C0.039
T4C0.043
T5C0.051
T6C0.071
T7C0.079
%
G90
G05
M72
T1
X3.4809Y-3.8927
X3.5207Y-4.2746
X3.6614Y-4.2126
X3.7008Y-3.5039
X3.7008Y-3.8976
X3.9764Y-3.8583
X4.2126Y-4.2913
X4.2191Y-4.6309
X4.2913Y-3.8976
X4.2913Y-4.5669
X4.3307Y-3.8583
X4.3307Y-4.5276
X4.7244Y-4.4882
X5.3937Y-4.3701
X5.3937Y-4.685
X5.5118Y-4.4488
X6.0236Y-4.0157
X6.2598Y-3.937
X6.378Y-3.8976
X6.4961Y-4.4882
X6.5354Y-3.7795
X6.5748Y-4.0157
X6.5748Y-4.5669
X6.6929Y-3.8189
X6.6929Y-4.4882
X6.7717Y-4.3307
X6.8898Y-4.0157
X6.8898Y-4.3307
X6.9685Y-3.8022
X6.9685Y-3.937
X7.0079Y-4.5276
X7.0423Y-3.9876
X7.0866Y-3.7402
X7.0866Y-4.7638
X7.1654Y-4.4882
T2
X2.9528Y-4.4244
X2.9528Y-4.7244
X3.1496Y-3.5433
X3.1496Y-3.7402
X3.1496Y-3.9323
X3.1496Y-4.2323
X3.1496Y-4.4244
X3.1496Y-4.7244
X3.3465Y-3.937
X3.3465Y-4.237
X3.3465Y-4.4291
X3.3465Y-4.626
X3.4252Y-4.7047
X3.5207Y-4.1732
X5.4823Y-3.4646
X6.0039Y-1.2748
X6.0039Y-1.5748
X6.0039Y-2.2638
X6.0039Y-2.5638
X6.0039Y-3.1449
X6.0039Y-3.4449
X6.122Y-3.7402
X6.2008Y-0.8858
X6.2008Y-1.0827
X6.2008Y-1.2748
X6.2008Y-1.5748
X6.2008Y-1.8701
X6.2008Y-2.0669
X6.2008Y-2.2591
X6.2008Y-2.5591
X6.2008Y-2.7559
X6.2008Y-2.9528
X6.2008Y-3.1496
X6.2008Y-3.4496
X6.2008Y-3.7402
X6.6929Y-0.8858
X6.8898Y-0.8858
X7.185Y-1.2748
X7.185Y-1.5748
X7.185Y-1.8701
X7.185Y-2.0669
X7.185Y-2.2638
X7.185Y-2.5638
X7.185Y-2.7559
X7.185Y-2.9528
X7.185Y-3.1496
X7.185Y-3.4496
X7.3819Y-1.2748
X7.3819Y-1.5748
X7.3819Y-2.2638
X7.3819Y-2.5638
X7.3819Y-3.1496
X7.3819Y-3.4496
X7.3819Y-3.6417
X7.3819Y-3.8386
T3
X5.8268Y-0.8268
X5.9268Y-0.8268
X6.3976Y-4.1323
X6.3976Y-4.2323
X6.4976Y-4.1323
X6.4976Y-4.2323
X6.5976Y-4.1323
X6.5976Y-4.2323
X6.6976Y-4.1323
X6.6976Y-4.2323
X6.7976Y-4.1323
X6.7976Y-4.2323
X6.8976Y-4.1323
X6.8976Y-4.2323
X6.9976Y-4.1323
X6.9976Y-4.2323
X7.0976Y-4.1323
X7.0976Y-4.2323
T4
X2.5591Y-4.2323
X2.6575Y-4.2323
X2.7559Y-4.2323
X6.5945Y-1.5748
X6.5945Y-2.5591
X6.5945Y-3.5433
X6.6929Y-1.5748
X6.6929Y-2.5591
X6.6929Y-3.5433
X6.7913Y-1.5748
X6.7913Y-2.5591
X6.7913Y-3.5433
T5
X2.8839Y-1.0138
X2.8839Y-3.3169
X3.0217Y-3.3169
X3.5728Y-3.7697
X3.5728Y-3.9075
X3.5728Y-4.4587
X3.5728Y-4.5965
X3.6713Y-1.0138
X3.6713Y-3.3169
X3.8091Y-3.3169
X4.5571Y-1.0138
X4.5571Y-3.3169
X4.6949Y-3.3169
X5.3445Y-1.0138
X5.3445Y-3.3169
X5.4823Y-3.3169
X5.876Y-3.7697
X5.876Y-4.4587
T6
X2.7874Y-1.2244
X2.7874Y-3.1063
X3.1181Y-1.1772
X3.1181Y-3.1535
X3.5748Y-1.2244
X3.5748Y-3.1063
X3.7362Y-4.0039
X3.7362Y-4.6929
X3.7835Y-3.6732
X3.7835Y-4.3622
X3.9055Y-1.1772
X3.9055Y-3.1535
X4.4606Y-1.2244
X4.4606Y-3.1063
X4.7913Y-1.1772
X4.7913Y-3.1535
X5.248Y-1.2244
X5.248Y-3.1063
X5.5787Y-1.1772
X5.5787Y-3.1535
X5.6654Y-3.6732
X5.6654Y-4.3622
X5.7126Y-4.0039
X5.7126Y-4.6929
T7
X2.3976Y-3.9213G85X2.3976Y-3.9528
G05
X2.9173Y-3.9213G85X2.9173Y-3.9528
G05
X6.4331Y-1.2638G85X6.4331Y-1.2953
G05
X6.4331Y-2.248G85X6.4331Y-2.2795
G05
X6.4331Y-3.2323G85X6.4331Y-3.2638
G05
X6.9528Y-1.2638G85X6.9528Y-1.2953
G05
X6.9528Y-2.248G85X6.9528Y-2.2795
G05
X6.9528Y-3.2323G85X6.9528Y-3.2638
G05
T0
M30
