G04 #@! TF.GenerationSoftware,KiCad,Pcbnew,5.1.2-f72e74a~84~ubuntu18.04.1*
G04 #@! TF.CreationDate,2019-07-06T16:20:52-06:00*
G04 #@! TF.ProjectId,colordance_mini,636f6c6f-7264-4616-9e63-655f6d696e69,rev?*
G04 #@! TF.SameCoordinates,Original*
G04 #@! TF.FileFunction,Legend,Top*
G04 #@! TF.FilePolarity,Positive*
%FSLAX46Y46*%
G04 Gerber Fmt 4.6, Leading zero omitted, Abs format (unit mm)*
G04 Created by KiCad (PCBNEW 5.1.2-f72e74a~84~ubuntu18.04.1) date 2019-07-06 16:20:52*
%MOMM*%
%LPD*%
G04 APERTURE LIST*
%ADD10C,0.300000*%
%ADD11C,1.500000*%
%ADD12C,0.500000*%
%ADD13C,0.150000*%
%ADD14C,0.200000*%
G04 APERTURE END LIST*
D10*
X142107142Y-114178571D02*
X142964285Y-114178571D01*
X142535714Y-115678571D02*
X142535714Y-114178571D01*
X143464285Y-114892857D02*
X143964285Y-114892857D01*
X144178571Y-115678571D02*
X143464285Y-115678571D01*
X143464285Y-114178571D01*
X144178571Y-114178571D01*
X144750000Y-115607142D02*
X144964285Y-115678571D01*
X145321428Y-115678571D01*
X145464285Y-115607142D01*
X145535714Y-115535714D01*
X145607142Y-115392857D01*
X145607142Y-115250000D01*
X145535714Y-115107142D01*
X145464285Y-115035714D01*
X145321428Y-114964285D01*
X145035714Y-114892857D01*
X144892857Y-114821428D01*
X144821428Y-114750000D01*
X144750000Y-114607142D01*
X144750000Y-114464285D01*
X144821428Y-114321428D01*
X144892857Y-114250000D01*
X145035714Y-114178571D01*
X145392857Y-114178571D01*
X145607142Y-114250000D01*
X146035714Y-114178571D02*
X146892857Y-114178571D01*
X146464285Y-115678571D02*
X146464285Y-114178571D01*
D11*
X140707107Y-115000000D02*
G75*
G03X140707107Y-115000000I-707107J0D01*
G01*
D12*
X82500000Y-113571428D02*
X82357142Y-113714285D01*
X81928571Y-113857142D01*
X81642857Y-113857142D01*
X81214285Y-113714285D01*
X80928571Y-113428571D01*
X80785714Y-113142857D01*
X80642857Y-112571428D01*
X80642857Y-112142857D01*
X80785714Y-111571428D01*
X80928571Y-111285714D01*
X81214285Y-111000000D01*
X81642857Y-110857142D01*
X81928571Y-110857142D01*
X82357142Y-111000000D01*
X82500000Y-111142857D01*
X84214285Y-113857142D02*
X83928571Y-113714285D01*
X83785714Y-113571428D01*
X83642857Y-113285714D01*
X83642857Y-112428571D01*
X83785714Y-112142857D01*
X83928571Y-112000000D01*
X84214285Y-111857142D01*
X84642857Y-111857142D01*
X84928571Y-112000000D01*
X85071428Y-112142857D01*
X85214285Y-112428571D01*
X85214285Y-113285714D01*
X85071428Y-113571428D01*
X84928571Y-113714285D01*
X84642857Y-113857142D01*
X84214285Y-113857142D01*
X86928571Y-113857142D02*
X86642857Y-113714285D01*
X86500000Y-113428571D01*
X86500000Y-110857142D01*
X88500000Y-113857142D02*
X88214285Y-113714285D01*
X88071428Y-113571428D01*
X87928571Y-113285714D01*
X87928571Y-112428571D01*
X88071428Y-112142857D01*
X88214285Y-112000000D01*
X88500000Y-111857142D01*
X88928571Y-111857142D01*
X89214285Y-112000000D01*
X89357142Y-112142857D01*
X89500000Y-112428571D01*
X89500000Y-113285714D01*
X89357142Y-113571428D01*
X89214285Y-113714285D01*
X88928571Y-113857142D01*
X88500000Y-113857142D01*
X90785714Y-113857142D02*
X90785714Y-111857142D01*
X90785714Y-112428571D02*
X90928571Y-112142857D01*
X91071428Y-112000000D01*
X91357142Y-111857142D01*
X91642857Y-111857142D01*
X93928571Y-113857142D02*
X93928571Y-110857142D01*
X93928571Y-113714285D02*
X93642857Y-113857142D01*
X93071428Y-113857142D01*
X92785714Y-113714285D01*
X92642857Y-113571428D01*
X92500000Y-113285714D01*
X92500000Y-112428571D01*
X92642857Y-112142857D01*
X92785714Y-112000000D01*
X93071428Y-111857142D01*
X93642857Y-111857142D01*
X93928571Y-112000000D01*
X96642857Y-113857142D02*
X96642857Y-112285714D01*
X96500000Y-112000000D01*
X96214285Y-111857142D01*
X95642857Y-111857142D01*
X95357142Y-112000000D01*
X96642857Y-113714285D02*
X96357142Y-113857142D01*
X95642857Y-113857142D01*
X95357142Y-113714285D01*
X95214285Y-113428571D01*
X95214285Y-113142857D01*
X95357142Y-112857142D01*
X95642857Y-112714285D01*
X96357142Y-112714285D01*
X96642857Y-112571428D01*
X98071428Y-111857142D02*
X98071428Y-113857142D01*
X98071428Y-112142857D02*
X98214285Y-112000000D01*
X98500000Y-111857142D01*
X98928571Y-111857142D01*
X99214285Y-112000000D01*
X99357142Y-112285714D01*
X99357142Y-113857142D01*
X102071428Y-113714285D02*
X101785714Y-113857142D01*
X101214285Y-113857142D01*
X100928571Y-113714285D01*
X100785714Y-113571428D01*
X100642857Y-113285714D01*
X100642857Y-112428571D01*
X100785714Y-112142857D01*
X100928571Y-112000000D01*
X101214285Y-111857142D01*
X101785714Y-111857142D01*
X102071428Y-112000000D01*
X104500000Y-113714285D02*
X104214285Y-113857142D01*
X103642857Y-113857142D01*
X103357142Y-113714285D01*
X103214285Y-113428571D01*
X103214285Y-112285714D01*
X103357142Y-112000000D01*
X103642857Y-111857142D01*
X104214285Y-111857142D01*
X104500000Y-112000000D01*
X104642857Y-112285714D01*
X104642857Y-112571428D01*
X103214285Y-112857142D01*
X107928571Y-111857142D02*
X108642857Y-113857142D01*
X109357142Y-111857142D01*
X112071428Y-113857142D02*
X110357142Y-113857142D01*
X111214285Y-113857142D02*
X111214285Y-110857142D01*
X110928571Y-111285714D01*
X110642857Y-111571428D01*
X110357142Y-111714285D01*
X113357142Y-113571428D02*
X113500000Y-113714285D01*
X113357142Y-113857142D01*
X113214285Y-113714285D01*
X113357142Y-113571428D01*
X113357142Y-113857142D01*
X114642857Y-111142857D02*
X114785714Y-111000000D01*
X115071428Y-110857142D01*
X115785714Y-110857142D01*
X116071428Y-111000000D01*
X116214285Y-111142857D01*
X116357142Y-111428571D01*
X116357142Y-111714285D01*
X116214285Y-112142857D01*
X114499999Y-113857142D01*
X116357142Y-113857142D01*
D10*
X199678571Y-63392857D02*
X198178571Y-63392857D01*
X199678571Y-62535714D01*
X198178571Y-62535714D01*
X198892857Y-61821428D02*
X198892857Y-61321428D01*
X199678571Y-61107142D02*
X199678571Y-61821428D01*
X198178571Y-61821428D01*
X198178571Y-61107142D01*
X198178571Y-60607142D02*
X199678571Y-59607142D01*
X198178571Y-59607142D02*
X199678571Y-60607142D01*
X198178571Y-59250000D02*
X198178571Y-58392857D01*
X199678571Y-58821428D02*
X198178571Y-58821428D01*
X199678571Y-77464285D02*
X198178571Y-77464285D01*
X198178571Y-76892857D01*
X198250000Y-76750000D01*
X198321428Y-76678571D01*
X198464285Y-76607142D01*
X198678571Y-76607142D01*
X198821428Y-76678571D01*
X198892857Y-76750000D01*
X198964285Y-76892857D01*
X198964285Y-77464285D01*
X199678571Y-75107142D02*
X198964285Y-75607142D01*
X199678571Y-75964285D02*
X198178571Y-75964285D01*
X198178571Y-75392857D01*
X198250000Y-75250000D01*
X198321428Y-75178571D01*
X198464285Y-75107142D01*
X198678571Y-75107142D01*
X198821428Y-75178571D01*
X198892857Y-75250000D01*
X198964285Y-75392857D01*
X198964285Y-75964285D01*
X198892857Y-74464285D02*
X198892857Y-73964285D01*
X199678571Y-73750000D02*
X199678571Y-74464285D01*
X198178571Y-74464285D01*
X198178571Y-73750000D01*
X198178571Y-73321428D02*
X199678571Y-72821428D01*
X198178571Y-72321428D01*
X198678571Y-116607142D02*
X198678571Y-116321428D01*
X198750000Y-116178571D01*
X198892857Y-116035714D01*
X199178571Y-115964285D01*
X199678571Y-115964285D01*
X199964285Y-116035714D01*
X200107142Y-116178571D01*
X200178571Y-116321428D01*
X200178571Y-116607142D01*
X200107142Y-116750000D01*
X199964285Y-116892857D01*
X199678571Y-116964285D01*
X199178571Y-116964285D01*
X198892857Y-116892857D01*
X198750000Y-116750000D01*
X198678571Y-116607142D01*
X200178571Y-115321428D02*
X198678571Y-115321428D01*
X200178571Y-114464285D01*
X198678571Y-114464285D01*
X199392857Y-112107142D02*
X199464285Y-111892857D01*
X199535714Y-111821428D01*
X199678571Y-111750000D01*
X199892857Y-111750000D01*
X200035714Y-111821428D01*
X200107142Y-111892857D01*
X200178571Y-112035714D01*
X200178571Y-112607142D01*
X198678571Y-112607142D01*
X198678571Y-112107142D01*
X198750000Y-111964285D01*
X198821428Y-111892857D01*
X198964285Y-111821428D01*
X199107142Y-111821428D01*
X199250000Y-111892857D01*
X199321428Y-111964285D01*
X199392857Y-112107142D01*
X199392857Y-112607142D01*
X198678571Y-111321428D02*
X198678571Y-110464285D01*
X200178571Y-110892857D02*
X198678571Y-110892857D01*
X200178571Y-109964285D02*
X198678571Y-109964285D01*
X200178571Y-109107142D01*
X198678571Y-109107142D01*
X170035714Y-163178571D02*
X170035714Y-161678571D01*
X170392857Y-161678571D01*
X170607142Y-161750000D01*
X170750000Y-161892857D01*
X170821428Y-162035714D01*
X170892857Y-162321428D01*
X170892857Y-162535714D01*
X170821428Y-162821428D01*
X170750000Y-162964285D01*
X170607142Y-163107142D01*
X170392857Y-163178571D01*
X170035714Y-163178571D01*
X171535714Y-163178571D02*
X171535714Y-161678571D01*
X172035714Y-162750000D01*
X172535714Y-161678571D01*
X172535714Y-163178571D01*
X173107142Y-161678571D02*
X174107142Y-163178571D01*
X174107142Y-161678571D02*
X173107142Y-163178571D01*
X63057142Y-163107142D02*
X63271428Y-163178571D01*
X63628571Y-163178571D01*
X63771428Y-163107142D01*
X63842857Y-163035714D01*
X63914285Y-162892857D01*
X63914285Y-162750000D01*
X63842857Y-162607142D01*
X63771428Y-162535714D01*
X63628571Y-162464285D01*
X63342857Y-162392857D01*
X63199999Y-162321428D01*
X63128571Y-162250000D01*
X63057142Y-162107142D01*
X63057142Y-161964285D01*
X63128571Y-161821428D01*
X63199999Y-161750000D01*
X63342857Y-161678571D01*
X63699999Y-161678571D01*
X63914285Y-161750000D01*
X64557142Y-163178571D02*
X64557142Y-161678571D01*
X65128571Y-161678571D01*
X65271428Y-161750000D01*
X65342857Y-161821428D01*
X65414285Y-161964285D01*
X65414285Y-162178571D01*
X65342857Y-162321428D01*
X65271428Y-162392857D01*
X65128571Y-162464285D01*
X64557142Y-162464285D01*
X66057142Y-163178571D02*
X66057142Y-161678571D01*
X68628571Y-163178571D02*
X67914285Y-163178571D01*
X67914285Y-161678571D01*
X69128571Y-162392857D02*
X69628571Y-162392857D01*
X69842857Y-163178571D02*
X69128571Y-163178571D01*
X69128571Y-161678571D01*
X69842857Y-161678571D01*
X70485714Y-163178571D02*
X70485714Y-161678571D01*
X70842857Y-161678571D01*
X71057142Y-161750000D01*
X71200000Y-161892857D01*
X71271428Y-162035714D01*
X71342857Y-162321428D01*
X71342857Y-162535714D01*
X71271428Y-162821428D01*
X71200000Y-162964285D01*
X71057142Y-163107142D01*
X70842857Y-163178571D01*
X70485714Y-163178571D01*
X40535714Y-163178571D02*
X40535714Y-161678571D01*
X41107142Y-161678571D01*
X41250000Y-161750000D01*
X41321428Y-161821428D01*
X41392857Y-161964285D01*
X41392857Y-162178571D01*
X41321428Y-162321428D01*
X41250000Y-162392857D01*
X41107142Y-162464285D01*
X40535714Y-162464285D01*
X42321428Y-161678571D02*
X42607142Y-161678571D01*
X42750000Y-161750000D01*
X42892857Y-161892857D01*
X42964285Y-162178571D01*
X42964285Y-162678571D01*
X42892857Y-162964285D01*
X42750000Y-163107142D01*
X42607142Y-163178571D01*
X42321428Y-163178571D01*
X42178571Y-163107142D01*
X42035714Y-162964285D01*
X41964285Y-162678571D01*
X41964285Y-162178571D01*
X42035714Y-161892857D01*
X42178571Y-161750000D01*
X42321428Y-161678571D01*
X43464285Y-161678571D02*
X43821428Y-163178571D01*
X44107142Y-162107142D01*
X44392857Y-163178571D01*
X44750000Y-161678571D01*
X45321428Y-162392857D02*
X45821428Y-162392857D01*
X46035714Y-163178571D02*
X45321428Y-163178571D01*
X45321428Y-161678571D01*
X46035714Y-161678571D01*
X47535714Y-163178571D02*
X47035714Y-162464285D01*
X46678571Y-163178571D02*
X46678571Y-161678571D01*
X47250000Y-161678571D01*
X47392857Y-161750000D01*
X47464285Y-161821428D01*
X47535714Y-161964285D01*
X47535714Y-162178571D01*
X47464285Y-162321428D01*
X47392857Y-162392857D01*
X47250000Y-162464285D01*
X46678571Y-162464285D01*
X26821428Y-104571428D02*
X26821428Y-104857142D01*
X26750000Y-105000000D01*
X26607142Y-105142857D01*
X26321428Y-105214285D01*
X25821428Y-105214285D01*
X25535714Y-105142857D01*
X25392857Y-105000000D01*
X25321428Y-104857142D01*
X25321428Y-104571428D01*
X25392857Y-104428571D01*
X25535714Y-104285714D01*
X25821428Y-104214285D01*
X26321428Y-104214285D01*
X26607142Y-104285714D01*
X26750000Y-104428571D01*
X26821428Y-104571428D01*
X25321428Y-106714285D02*
X26035714Y-106214285D01*
X25321428Y-105857142D02*
X26821428Y-105857142D01*
X26821428Y-106428571D01*
X26750000Y-106571428D01*
X26678571Y-106642857D01*
X26535714Y-106714285D01*
X26321428Y-106714285D01*
X26178571Y-106642857D01*
X26107142Y-106571428D01*
X26035714Y-106428571D01*
X26035714Y-105857142D01*
X25321428Y-107357142D02*
X26821428Y-107357142D01*
X26107142Y-108071428D02*
X26107142Y-108571428D01*
X25321428Y-108785714D02*
X25321428Y-108071428D01*
X26821428Y-108071428D01*
X26821428Y-108785714D01*
X25321428Y-109428571D02*
X26821428Y-109428571D01*
X25321428Y-110285714D01*
X26821428Y-110285714D01*
X26821428Y-110785714D02*
X26821428Y-111642857D01*
X25321428Y-111214285D02*
X26821428Y-111214285D01*
X25750000Y-112071428D02*
X25750000Y-112785714D01*
X25321428Y-111928571D02*
X26821428Y-112428571D01*
X25321428Y-112928571D01*
X26821428Y-113214285D02*
X26821428Y-114071428D01*
X25321428Y-113642857D02*
X26821428Y-113642857D01*
X25321428Y-114571428D02*
X26821428Y-114571428D01*
X26821428Y-115571428D02*
X26821428Y-115857142D01*
X26750000Y-116000000D01*
X26607142Y-116142857D01*
X26321428Y-116214285D01*
X25821428Y-116214285D01*
X25535714Y-116142857D01*
X25392857Y-116000000D01*
X25321428Y-115857142D01*
X25321428Y-115571428D01*
X25392857Y-115428571D01*
X25535714Y-115285714D01*
X25821428Y-115214285D01*
X26321428Y-115214285D01*
X26607142Y-115285714D01*
X26750000Y-115428571D01*
X26821428Y-115571428D01*
X25321428Y-116857142D02*
X26821428Y-116857142D01*
X25321428Y-117714285D01*
X26821428Y-117714285D01*
X26821428Y-126000000D02*
X26821428Y-126857142D01*
X25321428Y-126428571D02*
X26821428Y-126428571D01*
X26107142Y-127357142D02*
X26107142Y-127857142D01*
X25321428Y-128071428D02*
X25321428Y-127357142D01*
X26821428Y-127357142D01*
X26821428Y-128071428D01*
X25321428Y-128714285D02*
X26821428Y-128714285D01*
X25750000Y-129214285D01*
X26821428Y-129714285D01*
X25321428Y-129714285D01*
X25321428Y-130428571D02*
X26821428Y-130428571D01*
X26821428Y-131000000D01*
X26750000Y-131142857D01*
X26678571Y-131214285D01*
X26535714Y-131285714D01*
X26321428Y-131285714D01*
X26178571Y-131214285D01*
X26107142Y-131142857D01*
X26035714Y-131000000D01*
X26035714Y-130428571D01*
X26821428Y-132214285D02*
X26821428Y-132500000D01*
X26750000Y-132642857D01*
X26607142Y-132785714D01*
X26321428Y-132857142D01*
X25821428Y-132857142D01*
X25535714Y-132785714D01*
X25392857Y-132642857D01*
X25321428Y-132500000D01*
X25321428Y-132214285D01*
X25392857Y-132071428D01*
X25535714Y-131928571D01*
X25821428Y-131857142D01*
X26321428Y-131857142D01*
X26607142Y-131928571D01*
X26750000Y-132071428D01*
X26821428Y-132214285D01*
D13*
X109000000Y-50000000D02*
X109000000Y-100000000D01*
X111000000Y-50000000D02*
X109000000Y-50000000D01*
X111000000Y-100000000D02*
X111000000Y-50000000D01*
X109000000Y-100000000D02*
X111000000Y-100000000D01*
X104000000Y-106000000D02*
X104000000Y-44000000D01*
X104000000Y-44000000D02*
X116000000Y-44000000D01*
X116000000Y-44000000D02*
X116000000Y-105500000D01*
X116000000Y-105500000D02*
X116000000Y-106000000D01*
X116000000Y-106000000D02*
X104000000Y-106000000D01*
X129000000Y-50000000D02*
X129000000Y-100000000D01*
X131000000Y-50000000D02*
X129000000Y-50000000D01*
X131000000Y-100000000D02*
X131000000Y-50000000D01*
X129000000Y-100000000D02*
X131000000Y-100000000D01*
X124000000Y-106000000D02*
X124000000Y-44000000D01*
X124000000Y-44000000D02*
X136000000Y-44000000D01*
X136000000Y-44000000D02*
X136000000Y-105500000D01*
X136000000Y-105500000D02*
X136000000Y-106000000D01*
X136000000Y-106000000D02*
X124000000Y-106000000D01*
X90000000Y-49000000D02*
X40000000Y-49000000D01*
X90000000Y-51000000D02*
X90000000Y-49000000D01*
X40000000Y-51000000D02*
X90000000Y-51000000D01*
X40000000Y-49000000D02*
X40000000Y-51000000D01*
X34000000Y-44000000D02*
X96000000Y-44000000D01*
X96000000Y-44000000D02*
X96000000Y-56000000D01*
X96000000Y-56000000D02*
X34500000Y-56000000D01*
X34500000Y-56000000D02*
X34000000Y-56000000D01*
X34000000Y-56000000D02*
X34000000Y-44000000D01*
X90000000Y-69000000D02*
X40000000Y-69000000D01*
X90000000Y-71000000D02*
X90000000Y-69000000D01*
X40000000Y-71000000D02*
X90000000Y-71000000D01*
X40000000Y-69000000D02*
X40000000Y-71000000D01*
X34000000Y-64000000D02*
X96000000Y-64000000D01*
X96000000Y-64000000D02*
X96000000Y-76000000D01*
X96000000Y-76000000D02*
X34500000Y-76000000D01*
X34500000Y-76000000D02*
X34000000Y-76000000D01*
X34000000Y-76000000D02*
X34000000Y-64000000D01*
X149000000Y-50000000D02*
X149000000Y-100000000D01*
X151000000Y-50000000D02*
X149000000Y-50000000D01*
X151000000Y-100000000D02*
X151000000Y-50000000D01*
X149000000Y-100000000D02*
X151000000Y-100000000D01*
X144000000Y-106000000D02*
X144000000Y-44000000D01*
X144000000Y-44000000D02*
X156000000Y-44000000D01*
X156000000Y-44000000D02*
X156000000Y-105500000D01*
X156000000Y-105500000D02*
X156000000Y-106000000D01*
X156000000Y-106000000D02*
X144000000Y-106000000D01*
X169000000Y-50000000D02*
X169000000Y-100000000D01*
X171000000Y-50000000D02*
X169000000Y-50000000D01*
X171000000Y-100000000D02*
X171000000Y-50000000D01*
X169000000Y-100000000D02*
X171000000Y-100000000D01*
X164000000Y-106000000D02*
X164000000Y-44000000D01*
X164000000Y-44000000D02*
X176000000Y-44000000D01*
X176000000Y-44000000D02*
X176000000Y-105500000D01*
X176000000Y-105500000D02*
X176000000Y-106000000D01*
X176000000Y-106000000D02*
X164000000Y-106000000D01*
X45041381Y-90000000D02*
G75*
G03X45041381Y-90000000I-3041381J0D01*
G01*
X50500000Y-99000000D02*
X50500000Y-90000000D01*
X33500000Y-99000000D02*
X50500000Y-99000000D01*
X33500000Y-83000000D02*
X33500000Y-99000000D01*
X50500000Y-83000000D02*
X33500000Y-83000000D01*
X50500000Y-90000000D02*
X50500000Y-83000000D01*
X45535534Y-90000000D02*
G75*
G03X45535534Y-90000000I-3535534J0D01*
G01*
X68041381Y-90000000D02*
G75*
G03X68041381Y-90000000I-3041381J0D01*
G01*
X73500000Y-99000000D02*
X73500000Y-90000000D01*
X56500000Y-99000000D02*
X73500000Y-99000000D01*
X56500000Y-83000000D02*
X56500000Y-99000000D01*
X73500000Y-83000000D02*
X56500000Y-83000000D01*
X73500000Y-90000000D02*
X73500000Y-83000000D01*
X68535534Y-90000000D02*
G75*
G03X68535534Y-90000000I-3535534J0D01*
G01*
X91041381Y-90000000D02*
G75*
G03X91041381Y-90000000I-3041381J0D01*
G01*
X96500000Y-99000000D02*
X96500000Y-90000000D01*
X79500000Y-99000000D02*
X96500000Y-99000000D01*
X79500000Y-83000000D02*
X79500000Y-99000000D01*
X96500000Y-83000000D02*
X79500000Y-83000000D01*
X96500000Y-90000000D02*
X96500000Y-83000000D01*
X91535534Y-90000000D02*
G75*
G03X91535534Y-90000000I-3535534J0D01*
G01*
X193041381Y-90000000D02*
G75*
G03X193041381Y-90000000I-3041381J0D01*
G01*
X198500000Y-99000000D02*
X198500000Y-90000000D01*
X181500000Y-99000000D02*
X198500000Y-99000000D01*
X181500000Y-83000000D02*
X181500000Y-99000000D01*
X198500000Y-83000000D02*
X181500000Y-83000000D01*
X198500000Y-90000000D02*
X198500000Y-83000000D01*
X193535534Y-90000000D02*
G75*
G03X193535534Y-90000000I-3535534J0D01*
G01*
D14*
X197462214Y-45000000D02*
G75*
G03X197462214Y-45000000I-2462214J0D01*
G01*
X29462214Y-158000000D02*
G75*
G03X29462214Y-158000000I-2462214J0D01*
G01*
X29462214Y-45000000D02*
G75*
G03X29462214Y-45000000I-2462214J0D01*
G01*
X197462214Y-158000000D02*
G75*
G03X197462214Y-158000000I-2462214J0D01*
G01*
M02*
