G04 #@! TF.FileFunction,Paste,Bot*
%FSLAX46Y46*%
G04 Gerber Fmt 4.6, Leading zero omitted, Abs format (unit mm)*
G04 Created by KiCad (PCBNEW 4.0.6+dfsg1-1) date Fri Apr 13 21:26:29 2018*
%MOMM*%
%LPD*%
G01*
G04 APERTURE LIST*
%ADD10C,0.100000*%
%ADD11R,1.200000X0.750000*%
%ADD12R,2.000000X1.100000*%
%ADD13R,1.200000X0.900000*%
%ADD14R,0.900000X1.200000*%
%ADD15R,0.508000X1.143000*%
G04 APERTURE END LIST*
D10*
D11*
X29550000Y-97000000D03*
X31450000Y-97000000D03*
X52550000Y-97000000D03*
X54450000Y-97000000D03*
X29550000Y-86000000D03*
X31450000Y-86000000D03*
X52550000Y-86000000D03*
X54450000Y-86000000D03*
X75550000Y-97000000D03*
X77450000Y-97000000D03*
X173050000Y-112500000D03*
X174950000Y-112500000D03*
X157434588Y-139277576D03*
X155534588Y-139277576D03*
X157434588Y-141277576D03*
X155534588Y-141277576D03*
X75550000Y-86000000D03*
X77450000Y-86000000D03*
X179050000Y-112500000D03*
X180950000Y-112500000D03*
X170950000Y-121000000D03*
X169050000Y-121000000D03*
X170950000Y-119000000D03*
X169050000Y-119000000D03*
D12*
X42600000Y-114299999D03*
X42600002Y-116000000D03*
X42600000Y-117700000D03*
X47400000Y-117700001D03*
X47399998Y-116000000D03*
X47400000Y-114300000D03*
D13*
X166100000Y-122000000D03*
X163900000Y-122000000D03*
D14*
X37000000Y-150100000D03*
X37000000Y-147900000D03*
X37000000Y-145600000D03*
X37000000Y-143400000D03*
D13*
X163900000Y-139000000D03*
X166100000Y-139000000D03*
X163900000Y-120000000D03*
X166100000Y-120000000D03*
X31600000Y-95000000D03*
X29400000Y-95000000D03*
X54600000Y-95000000D03*
X52400000Y-95000000D03*
X29400000Y-93000000D03*
X31600000Y-93000000D03*
X52400000Y-93000000D03*
X54600000Y-93000000D03*
X29400000Y-90000000D03*
X31600000Y-90000000D03*
X52400000Y-90000000D03*
X54600000Y-90000000D03*
X29400000Y-88000000D03*
X31600000Y-88000000D03*
X52400000Y-88000000D03*
X54600000Y-88000000D03*
X77600000Y-95000000D03*
X75400000Y-95000000D03*
X175100000Y-110500000D03*
X172900000Y-110500000D03*
X75400000Y-93000000D03*
X77600000Y-93000000D03*
X172900000Y-108500000D03*
X175100000Y-108500000D03*
X75400000Y-90000000D03*
X77600000Y-90000000D03*
X178900000Y-108500000D03*
X181100000Y-108500000D03*
X75300000Y-88000000D03*
X77500000Y-88000000D03*
X178900000Y-110500000D03*
X181100000Y-110500000D03*
X166100000Y-137000000D03*
X163900000Y-137000000D03*
X163900000Y-118000000D03*
X166100000Y-118000000D03*
X110900000Y-158500000D03*
X113100000Y-158500000D03*
X110900000Y-160500000D03*
X113100000Y-160500000D03*
D11*
X33183814Y-148640702D03*
X31283814Y-148640702D03*
X33183814Y-151140702D03*
X31283814Y-151140702D03*
D15*
X166595000Y-132675000D03*
X167865000Y-132675000D03*
X169135000Y-132675000D03*
X170405000Y-132675000D03*
X170405000Y-126325000D03*
X169135000Y-126325000D03*
X167865000Y-126325000D03*
X166595000Y-126325000D03*
M02*
