M48
;DRILL file {KiCad 4.0.6+dfsg1-1} date Mon Apr  2 21:34:38 2018
;FORMAT={-:-/ absolute / inch / decimal}
FMAT,2
INCH,TZ
T1C0.016
T2C0.031
T3C0.033
T4C0.039
T5C0.043
T6C0.047
T7C0.051
T8C0.063
T9C0.071
T10C0.079
%
G90
G05
M72
T1
X1.1024Y-3.5433
X1.2992Y-3.3465
X1.2992Y-3.9961
X1.3189Y-4.6457
X1.3189Y-5.8071
X1.4567Y-4.0945
X1.5354Y-4.1535
X1.6772Y-4.5
X1.6772Y-4.5669
X1.7913Y-5.9252
X1.8307Y-5.9646
X1.9094Y-5.94
X1.9488Y-5.9055
X1.9882Y-5.8474
X2.0079Y-3.6614
X2.0276Y-5.7874
X2.062Y-5.0197
X2.0669Y-5.748
X2.0866Y-4.2717
X2.1063Y-5.7087
X2.1457Y-4.2717
X2.1457Y-5.6693
X2.185Y-4.311
X2.185Y-5.6299
X2.2047Y-3.3465
X2.2047Y-3.9567
X2.2218Y-4.3478
X2.2244Y-5.5906
X2.2441Y-4.3701
X2.2441Y-5.5512
X2.4213Y-5.94
X2.5591Y-5.9055
X2.874Y-6.0039
X2.874Y-6.1614
X2.9134Y-3.6614
X2.9724Y-4.5276
X3.1102Y-3.3465
X3.1102Y-3.9567
X3.1693Y-4.1535
X3.2283Y-5.1181
X3.2677Y-4.1142
X3.2874Y-5.9055
X3.3465Y-4.0748
X3.3661Y-5.8268
X3.4646Y-4.0354
X3.5101Y-5.6939
X3.563Y-3.9961
X3.563Y-5.5512
X3.6614Y-5.5906
X3.6811Y-3.9567
X3.7598Y-5.6299
X3.7815Y-4.3878
X3.8583Y-5.8465
X3.878Y-4.4094
X3.9764Y-4.4488
X3.9764Y-5.6496
X4.0551Y-5.7874
X4.0748Y-4.1929
X4.1732Y-4.2323
X4.252Y-4.252
X4.3701Y-6.063
X4.3701Y-6.2008
X4.4882Y-2.1654
X4.5866Y-4.6654
X4.6654Y-2.7559
X4.685Y-4.626
X4.685Y-5.7874
X4.7244Y-5.0787
X4.7835Y-4.2323
X4.7835Y-4.8622
X4.7835Y-5.8268
X4.8031Y-6.1614
X4.8228Y-5.1969
X4.8425Y-6.2598
X4.8622Y-5.7136
X4.8819Y-4.6063
X4.8819Y-4.9016
X4.9409Y-4.311
X4.9409Y-5.2165
X4.9606Y-5.748
X4.9803Y-4.5866
X5.0787Y-5.8809
X5.1181Y-6.0236
X5.1671Y-5.9498
X5.1772Y-4.562
X5.2559Y-4.6654
X5.3543Y-4.6309
X5.3888Y-4.6112
X5.3888Y-5.8809
X5.4134Y-4.5866
X5.4134Y-5.9498
X5.5118Y-5.689
X5.7087Y-4.8622
X5.748Y-4.3307
X5.7677Y-4.9016
X5.8071Y-4.9409
X5.8465Y-4.9803
X6.0827Y-5.4331
X6.1234Y-5.4834
X6.1982Y-5.4834
X6.2992Y-4.9409
X6.3976Y-4.6457
X6.3976Y-4.9409
X6.4567Y-4.4488
X6.4567Y-5.3543
X6.4567Y-5.5118
X6.4567Y-6.1024
X6.5157Y-4.3504
X6.6142Y-4.8622
X6.6142Y-5.2756
X6.6142Y-5.6496
X6.6535Y-4.5866
X6.6535Y-4.8228
X6.6535Y-5.2756
X6.6535Y-5.4724
X6.6555Y-4.685
X6.7089Y-4.9734
X6.7126Y-4.626
X6.7717Y-4.2717
X6.7913Y-4.685
X6.8937Y-4.2717
X6.9291Y-3.8386
X6.9488Y-4.4291
X6.9488Y-4.5079
X6.9488Y-5.4724
X7.0079Y-4.2717
X7.0866Y-4.9606
X7.0866Y-5.3937
X7.1299Y-4.2717
X7.1654Y-3.9173
X7.185Y-5.5118
X7.2835Y-5.
X7.4606Y-5.8071
X7.5197Y-5.8465
X7.5394Y-5.9449
T2
X4.1732Y-5.6299
X6.5157Y-6.2402
T3
X6.9957Y-4.8697
X6.9957Y-5.1697
X7.0957Y-4.8697
X7.0957Y-5.1697
X7.1957Y-4.8697
X7.1957Y-5.1697
X7.2957Y-4.8697
X7.2957Y-5.1697
T4
X1.1811Y-4.1339
X1.1811Y-4.4094
X1.1811Y-4.8819
X1.1811Y-5.1575
X1.378Y-4.2717
X1.378Y-4.5472
X1.378Y-5.0197
X1.378Y-5.2953
X1.5157Y-6.2598
X1.6535Y-6.063
X1.7323Y-5.389
X1.7323Y-5.489
X1.7323Y-5.589
X1.7323Y-5.689
X1.7913Y-6.2598
X1.9291Y-6.063
X2.2835Y-6.2598
X2.4213Y-6.063
X2.5591Y-6.2598
X2.6969Y-6.063
X3.1496Y-6.1614
X3.1496Y-6.2614
X3.1496Y-6.3614
X3.4449Y-6.1614
X3.4449Y-6.2614
X3.4449Y-6.3614
X3.7402Y-6.1614
X3.7402Y-6.2614
X3.7402Y-6.3614
X4.0354Y-6.1614
X4.0354Y-6.2614
X4.0354Y-6.3614
X4.7244Y-6.063
X4.7244Y-6.163
X4.7244Y-6.263
X4.7244Y-6.363
X5.0197Y-6.0583
X5.0197Y-6.1583
X5.0197Y-6.2583
X5.0197Y-6.3583
X5.315Y-6.0583
X5.315Y-6.1583
X5.315Y-6.2583
X5.315Y-6.3583
X5.6102Y-6.1583
X5.6102Y-6.2583
X5.6102Y-6.3583
X5.9055Y-5.8614
X5.9055Y-5.9614
X5.9055Y-6.0614
X5.9055Y-6.1614
X5.9055Y-6.2614
X5.9055Y-6.3614
X6.0008Y-5.1969
X6.1008Y-5.1969
X6.2008Y-5.1969
X6.3008Y-5.1969
X7.5197Y-2.185
X7.5197Y-2.4606
X7.5197Y-2.7362
X7.5197Y-3.0118
X7.5197Y-4.2717
X7.5197Y-4.5472
X7.7165Y-2.3228
X7.7165Y-2.5984
X7.7165Y-2.874
X7.7165Y-3.1496
X7.7165Y-4.4094
X7.7165Y-4.685
T5
X1.5551Y-3.8386
X1.6535Y-3.8386
X1.752Y-3.8386
X2.4606Y-3.8386
X2.5591Y-3.8386
X2.6575Y-3.8386
X2.8764Y-4.7346
X2.8764Y-5.3346
X2.9764Y-4.7346
X2.9764Y-5.2346
X2.9764Y-5.3346
X3.0764Y-4.7346
X3.0764Y-5.3346
X3.1264Y-4.8528
X3.1764Y-4.7346
X3.1764Y-5.2346
X3.1764Y-5.3346
X3.2264Y-4.8528
X3.2764Y-4.7346
X3.2764Y-5.2346
X3.2764Y-5.3346
X3.3264Y-4.8528
X3.3661Y-3.8386
X3.3764Y-4.7346
X3.3764Y-5.2346
X3.3764Y-5.3346
X3.4264Y-4.8528
X3.4646Y-3.8386
X3.4764Y-4.7346
X3.4764Y-5.0346
X3.4764Y-5.1346
X3.4764Y-5.3346
X3.5264Y-4.8528
X3.563Y-3.8386
X3.5764Y-4.7346
X3.5764Y-5.0346
X3.5764Y-5.1346
X3.5764Y-5.3346
X3.6764Y-4.7346
X3.6764Y-5.0346
X3.6764Y-5.1346
X3.6764Y-5.3346
X3.7764Y-4.7346
X3.7764Y-5.0346
X3.7764Y-5.1346
X3.7764Y-5.3346
X3.8764Y-4.7346
X3.8764Y-5.3346
X3.9764Y-4.7346
X3.9764Y-5.3346
X4.0764Y-4.7346
X4.0764Y-5.3346
X4.1764Y-4.7346
X4.1764Y-5.3346
X4.2764Y-4.7346
X4.2764Y-5.3346
X4.3764Y-4.7346
X4.3764Y-5.0346
X4.3764Y-5.1346
X4.3764Y-5.3346
X4.4764Y-4.7346
X4.4764Y-5.0346
X4.4764Y-5.1346
X4.4764Y-5.3346
X4.5764Y-4.7346
X4.5764Y-5.0346
X4.5764Y-5.1346
X4.5764Y-5.3346
X4.6764Y-4.7346
X4.6764Y-4.8346
X4.6764Y-4.9346
X4.6764Y-5.0346
X4.6764Y-5.1346
X4.6764Y-5.2346
X4.6764Y-5.3346
X4.7764Y-4.7346
X4.7764Y-5.0346
X4.7764Y-5.1346
X4.7764Y-5.3346
X4.8764Y-4.7346
X4.8764Y-5.0346
X4.8764Y-5.1346
X4.8764Y-5.3346
X4.9764Y-4.7346
X4.9764Y-5.0346
X4.9764Y-5.1346
X4.9764Y-5.3346
X5.0764Y-4.7346
X5.0764Y-5.0346
X5.0764Y-5.1346
X5.0764Y-5.3346
X5.1764Y-4.7346
X5.1764Y-5.0346
X5.1764Y-5.1346
X5.1764Y-5.3346
X7.3819Y-3.8386
X7.4803Y-3.8386
X7.5787Y-3.8386
T6
X6.7988Y-5.6569
T7
X1.4075Y-1.8996
X1.4075Y-2.0374
X1.4075Y-2.687
X1.4075Y-2.8248
X3.7106Y-1.8996
X3.7106Y-2.687
X4.2618Y-1.8012
X4.2618Y-4.1043
X4.3996Y-4.1043
X5.0492Y-1.8012
X5.0492Y-4.1043
X5.187Y-4.1043
X5.8366Y-1.8012
X5.8366Y-4.1043
X5.9744Y-4.1043
X6.624Y-1.8012
X6.624Y-4.1043
X6.7618Y-4.1043
T8
X6.6488Y-5.8321
X6.6488Y-6.1821
X6.9488Y-5.8071
X6.9488Y-5.9821
T9
X1.5709Y-2.1339
X1.5709Y-2.9213
X1.6181Y-1.8031
X1.6181Y-2.5906
X3.5Y-1.8031
X3.5Y-2.5906
X3.5472Y-2.1339
X3.5472Y-2.9213
X4.1654Y-2.0118
X4.1654Y-3.8937
X4.4961Y-1.9646
X4.4961Y-3.9409
X4.9528Y-2.0118
X4.9528Y-3.8937
X5.2835Y-1.9646
X5.2835Y-3.9409
X5.7402Y-2.0118
X5.7402Y-3.8937
X6.0709Y-1.9646
X6.0709Y-3.9409
X6.5276Y-2.0118
X6.5276Y-3.8937
X6.8583Y-1.9646
X6.8583Y-3.9409
T10
X1.3937Y-3.5276G85X1.3937Y-3.5591
G05
X1.9134Y-3.5276G85X1.9134Y-3.5591
G05
X2.2992Y-3.5276G85X2.2992Y-3.5591
G05
X2.8189Y-3.5276G85X2.8189Y-3.5591
G05
X3.2047Y-3.5276G85X3.2047Y-3.5591
G05
X3.7244Y-3.5276G85X3.7244Y-3.5591
G05
X7.2205Y-3.5276G85X7.2205Y-3.5591
G05
X7.7402Y-3.5276G85X7.7402Y-3.5591
G05
T0
M30
